G04 #@! TF.GenerationSoftware,KiCad,Pcbnew,7.0.2*
G04 #@! TF.CreationDate,2023-08-30T11:59:43+08:00*
G04 #@! TF.ProjectId,bldc_driver,626c6463-5f64-4726-9976-65722e6b6963,rev?*
G04 #@! TF.SameCoordinates,PX58b1140PY3750280*
G04 #@! TF.FileFunction,Copper,L2,Bot*
G04 #@! TF.FilePolarity,Positive*
%FSLAX46Y46*%
G04 Gerber Fmt 4.6, Leading zero omitted, Abs format (unit mm)*
G04 Created by KiCad (PCBNEW 7.0.2) date 2023-08-30 11:59:43*
%MOMM*%
%LPD*%
G01*
G04 APERTURE LIST*
G04 Aperture macros list*
%AMRoundRect*
0 Rectangle with rounded corners*
0 $1 Rounding radius*
0 $2 $3 $4 $5 $6 $7 $8 $9 X,Y pos of 4 corners*
0 Add a 4 corners polygon primitive as box body*
4,1,4,$2,$3,$4,$5,$6,$7,$8,$9,$2,$3,0*
0 Add four circle primitives for the rounded corners*
1,1,$1+$1,$2,$3*
1,1,$1+$1,$4,$5*
1,1,$1+$1,$6,$7*
1,1,$1+$1,$8,$9*
0 Add four rect primitives between the rounded corners*
20,1,$1+$1,$2,$3,$4,$5,0*
20,1,$1+$1,$4,$5,$6,$7,0*
20,1,$1+$1,$6,$7,$8,$9,0*
20,1,$1+$1,$8,$9,$2,$3,0*%
G04 Aperture macros list end*
G04 #@! TA.AperFunction,ComponentPad*
%ADD10RoundRect,0.250000X0.675000X-0.600000X0.675000X0.600000X-0.675000X0.600000X-0.675000X-0.600000X0*%
G04 #@! TD*
G04 #@! TA.AperFunction,ComponentPad*
%ADD11O,1.850000X1.700000*%
G04 #@! TD*
G04 #@! TA.AperFunction,ComponentPad*
%ADD12C,4.600000*%
G04 #@! TD*
G04 #@! TA.AperFunction,ComponentPad*
%ADD13RoundRect,0.250000X-0.675000X0.600000X-0.675000X-0.600000X0.675000X-0.600000X0.675000X0.600000X0*%
G04 #@! TD*
G04 #@! TA.AperFunction,ComponentPad*
%ADD14RoundRect,0.200000X0.300000X-0.200000X0.300000X0.200000X-0.300000X0.200000X-0.300000X-0.200000X0*%
G04 #@! TD*
G04 #@! TA.AperFunction,ComponentPad*
%ADD15O,1.000000X0.800000*%
G04 #@! TD*
G04 #@! TA.AperFunction,SMDPad,CuDef*
%ADD16C,1.000000*%
G04 #@! TD*
G04 #@! TA.AperFunction,SMDPad,CuDef*
%ADD17C,0.800000*%
G04 #@! TD*
G04 #@! TA.AperFunction,SMDPad,CuDef*
%ADD18R,1.500000X1.500000*%
G04 #@! TD*
G04 #@! TA.AperFunction,SMDPad,CuDef*
%ADD19C,0.500000*%
G04 #@! TD*
G04 #@! TA.AperFunction,ViaPad*
%ADD20C,0.600000*%
G04 #@! TD*
G04 #@! TA.AperFunction,Conductor*
%ADD21C,0.500000*%
G04 #@! TD*
G04 #@! TA.AperFunction,Conductor*
%ADD22C,0.150000*%
G04 #@! TD*
G04 #@! TA.AperFunction,Conductor*
%ADD23C,0.300000*%
G04 #@! TD*
G04 #@! TA.AperFunction,Conductor*
%ADD24C,0.400000*%
G04 #@! TD*
G04 #@! TA.AperFunction,Conductor*
%ADD25C,0.600000*%
G04 #@! TD*
G04 #@! TA.AperFunction,Conductor*
%ADD26C,0.200000*%
G04 #@! TD*
G04 APERTURE END LIST*
G04 #@! TA.AperFunction,EtchedComponent*
G36*
X24425000Y-26460000D02*
G01*
X23425000Y-26465000D01*
X23425000Y-25255000D01*
X24425000Y-25250000D01*
X24425000Y-26460000D01*
G37*
G04 #@! TD.AperFunction*
G04 #@! TA.AperFunction,EtchedComponent*
G36*
X23125000Y-25750000D02*
G01*
X22125000Y-25750000D01*
X22125000Y-25250000D01*
X23125000Y-25250000D01*
X23125000Y-25750000D01*
G37*
G04 #@! TD.AperFunction*
G04 #@! TA.AperFunction,EtchedComponent*
G36*
X14505330Y-15451777D02*
G01*
X14151777Y-15805330D01*
X13444670Y-15098223D01*
X13798223Y-14744670D01*
X14505330Y-15451777D01*
G37*
G04 #@! TD.AperFunction*
D10*
X55000000Y-29875000D03*
D11*
X55000000Y-27375000D03*
X55000000Y-24875000D03*
D12*
X3000000Y-37000000D03*
X57000000Y-3000000D03*
X57000000Y-37000000D03*
D13*
X5000000Y-9800000D03*
D11*
X5000000Y-12300000D03*
X5000000Y-14800000D03*
X5000000Y-17300000D03*
D12*
X3000000Y-3000000D03*
D14*
X27500000Y-17825000D03*
D15*
X27500000Y-16825000D03*
X27500000Y-15825000D03*
X27500000Y-14825000D03*
D13*
X5000000Y-22725000D03*
D11*
X5000000Y-25225000D03*
X5000000Y-27725000D03*
X5000000Y-30225000D03*
D16*
X23925000Y-26450000D03*
X23925000Y-25250000D03*
D17*
X27975000Y-5975000D03*
X25775000Y-10625000D03*
X24550000Y-17175000D03*
X24550000Y-16175000D03*
X24550000Y-15175000D03*
X31100000Y-4242329D03*
D18*
X46772000Y-19850000D03*
X43978000Y-19850000D03*
D19*
X23125000Y-25500000D03*
X22125000Y-25500000D03*
D18*
X46772000Y-34850000D03*
X43978000Y-34850000D03*
D19*
X14328553Y-15628553D03*
X13621447Y-14921447D03*
D18*
X46772000Y-27400000D03*
X43978000Y-27400000D03*
D20*
X24300000Y-32050000D03*
X21750000Y-32050000D03*
X23650000Y-32050000D03*
X23000000Y-32050000D03*
X22375000Y-32050000D03*
X48275000Y-5000000D03*
X48275000Y-5625000D03*
X48275000Y-4350000D03*
X48275000Y-6250000D03*
X45125000Y-5000000D03*
X45125000Y-3700000D03*
X45125000Y-5625000D03*
X45125000Y-4350000D03*
X45125000Y-6250000D03*
X45075000Y-21300000D03*
X43350000Y-36975000D03*
X41825000Y-35975000D03*
X43175000Y-23625000D03*
X31725000Y-24350000D03*
X11125000Y-19175000D03*
X14275000Y-17875000D03*
X11125000Y-17250000D03*
X24075000Y-27750000D03*
X30600000Y-27775000D03*
X44000000Y-21975000D03*
X34000000Y-24350000D03*
X32875000Y-27775000D03*
X11125000Y-18550000D03*
X35150000Y-24350000D03*
X44650000Y-21975000D03*
X31725000Y-27775000D03*
X34000000Y-25500000D03*
X44900000Y-31125000D03*
X31725000Y-26625000D03*
X26575000Y-27750000D03*
X45075000Y-36300000D03*
X50475000Y-39000000D03*
X34000000Y-26625000D03*
X24325000Y-35200000D03*
X35150000Y-26625000D03*
X14275000Y-19775000D03*
X35150000Y-23225000D03*
X43350000Y-25000000D03*
X28350000Y-33425000D03*
X51100000Y-39000000D03*
X30600000Y-25500000D03*
X32875000Y-26625000D03*
X6675000Y-36450000D03*
X23025000Y-35200000D03*
X35150000Y-27775000D03*
X32875000Y-24350000D03*
X7775000Y-37550000D03*
X44000000Y-25000000D03*
X45072000Y-25675000D03*
X44650000Y-25000000D03*
X49825000Y-39000000D03*
X23675000Y-35200000D03*
X45075000Y-20650000D03*
X32950000Y-31800000D03*
X33800000Y-32525000D03*
X30600000Y-26625000D03*
X11125000Y-19800000D03*
X45075000Y-35675000D03*
X44000000Y-36975000D03*
X21775000Y-35200000D03*
X35150000Y-25500000D03*
X22400000Y-35200000D03*
X14275000Y-18525000D03*
X44650000Y-36975000D03*
X42925000Y-36300000D03*
X34000000Y-27775000D03*
X36500000Y-29100000D03*
X31725000Y-25500000D03*
X42925000Y-25675000D03*
X7775000Y-35350000D03*
X31725000Y-23225000D03*
X34000000Y-23225000D03*
X30600000Y-23225000D03*
X27275000Y-34250000D03*
X23250000Y-26675000D03*
X11125000Y-17900000D03*
X32875000Y-23225000D03*
X43350000Y-21975000D03*
X14275000Y-19150000D03*
X45072000Y-26325000D03*
X42925000Y-21300000D03*
X30600000Y-24350000D03*
X39975000Y-19125000D03*
X32875000Y-25500000D03*
X39675000Y-35875000D03*
X46825000Y-20925000D03*
X47900000Y-20925000D03*
X47900000Y-22575000D03*
X46825000Y-21750000D03*
X46825000Y-22575000D03*
X47900000Y-21750000D03*
X47900000Y-37575000D03*
X46825000Y-35925000D03*
X46825000Y-37575000D03*
X47900000Y-36750000D03*
X47900000Y-35925000D03*
X46825000Y-36750000D03*
X48275000Y-13000000D03*
X48275000Y-11700000D03*
X48275000Y-13625000D03*
X48275000Y-12350000D03*
X48275000Y-14250000D03*
X44850000Y-37825000D03*
X50307007Y-9550000D03*
X46825000Y-26325000D03*
X46825000Y-24675000D03*
X47900000Y-26325000D03*
X45425000Y-38150000D03*
X44200000Y-37825000D03*
X47900000Y-25500000D03*
X46825000Y-25500000D03*
X47900000Y-24675000D03*
X44200000Y-38475000D03*
X44850000Y-38475000D03*
X25750000Y-28950000D03*
X27150000Y-29650000D03*
X15625000Y-14350000D03*
X14675000Y-11325000D03*
X30625000Y-21300000D03*
X37800000Y-8400000D03*
X38900000Y-11725000D03*
X37800000Y-7350000D03*
X21025000Y-12075000D03*
X13825000Y-6850000D03*
X36625000Y-17850000D03*
X19037500Y-9375000D03*
X33850000Y-7150000D03*
X41450000Y-8500000D03*
X22925000Y-25175000D03*
X37950000Y-19125000D03*
X39025000Y-19125000D03*
X28850000Y-12150000D03*
X36900000Y-19125000D03*
X35450000Y-13850000D03*
X34625000Y-21300000D03*
X39450000Y-6550000D03*
X35400000Y-19300000D03*
X33850000Y-12150000D03*
X29250000Y-29100000D03*
X19425000Y-25175000D03*
X13825000Y-11325000D03*
X37800000Y-9450000D03*
X32600000Y-3425000D03*
X21024999Y-13400000D03*
X31350000Y-9650000D03*
X37800000Y-6400000D03*
X29100000Y-3425000D03*
X27475000Y-19775000D03*
X28850000Y-7150000D03*
X17175000Y-11425000D03*
X28675000Y-25750000D03*
X26550000Y-13750000D03*
X30075000Y-3425000D03*
X20099999Y-16200000D03*
X26525000Y-5000000D03*
X29900000Y-19300000D03*
X20724999Y-18475000D03*
X24725000Y-14175000D03*
X28675000Y-23225000D03*
X26250000Y-6000000D03*
X32625000Y-16425000D03*
X28675000Y-24275000D03*
X28125000Y-25225000D03*
X29475000Y-16850000D03*
X26000000Y-9424000D03*
X26400000Y-14575000D03*
X34650000Y-13850000D03*
X28675000Y-18425000D03*
X48675000Y-32175000D03*
X48075000Y-32575000D03*
X48675000Y-33000000D03*
X48675000Y-33825000D03*
X48075000Y-33400000D03*
X48075000Y-29650000D03*
X48675000Y-29250000D03*
X48075000Y-28825000D03*
X48675000Y-30075000D03*
X48675000Y-28425000D03*
X48675000Y-18825000D03*
X48075000Y-18400000D03*
X48075000Y-17575000D03*
X48675000Y-18000000D03*
X48675000Y-17175000D03*
X34872449Y-3276429D03*
X26375000Y-4000000D03*
X35650000Y-6425000D03*
X30700000Y-5000000D03*
X41632671Y-9842329D03*
X40400000Y-12490000D03*
X35000000Y-6050000D03*
X15225000Y-4323500D03*
X14026500Y-5275000D03*
X15225000Y-5072003D03*
X14024951Y-6023501D03*
X15225000Y-5825000D03*
X29624000Y-15079476D03*
X29204468Y-16145532D03*
X24550000Y-15175000D03*
X25800000Y-16175000D03*
X26100000Y-17175000D03*
X33576500Y-18870171D03*
X32521622Y-18786965D03*
X22475000Y-8971000D03*
X23100000Y-7923500D03*
X38279829Y-23604829D03*
X40200000Y-24825000D03*
X42300000Y-33275000D03*
X42300000Y-35395540D03*
X40550000Y-26575000D03*
X39066579Y-28281921D03*
X15875000Y-3675000D03*
X42110221Y-16393377D03*
X45007766Y-9171694D03*
X36974641Y-16110472D03*
X44209187Y-11075973D03*
X43655898Y-10569102D03*
X42625000Y-15850000D03*
X37675802Y-15848500D03*
X44478495Y-8642423D03*
X25125000Y-3425000D03*
X39150000Y-10800000D03*
X27975000Y-5975000D03*
X26390105Y-11475414D03*
X31092329Y-4250000D03*
D21*
X23925000Y-26350000D02*
X24425000Y-26350000D01*
X23925000Y-26350000D02*
X23450000Y-26350000D01*
D22*
X48275000Y-11700000D02*
X50307007Y-9667993D01*
X50307007Y-9667993D02*
X50307007Y-9550000D01*
D23*
X15625000Y-12275000D02*
X14675000Y-11325000D01*
D22*
X27025000Y-29525000D02*
X27150000Y-29650000D01*
D23*
X15625000Y-14350000D02*
X15625000Y-12275000D01*
D22*
X26325000Y-29525000D02*
X27025000Y-29525000D01*
X26325000Y-29525000D02*
X25750000Y-28950000D01*
D21*
X23925000Y-25250000D02*
X23925000Y-24475000D01*
D24*
X14328553Y-15628553D02*
X14850000Y-16150000D01*
X23675000Y-25500000D02*
X23925000Y-25250000D01*
X23125000Y-25500000D02*
X23675000Y-25500000D01*
D21*
X23275000Y-25350000D02*
X24650000Y-25350000D01*
D22*
X28675000Y-24675000D02*
X28675000Y-24275000D01*
D23*
X26000000Y-6250000D02*
X26250000Y-6000000D01*
D22*
X28675000Y-24275000D02*
X28675000Y-23225000D01*
D23*
X32625000Y-16425000D02*
X32625000Y-15875000D01*
X32625000Y-15875000D02*
X34650000Y-13850000D01*
X26698511Y-14873511D02*
X26698511Y-18228524D01*
D22*
X28675000Y-22150000D02*
X26698511Y-20173511D01*
X26698511Y-20173511D02*
X26698511Y-18228524D01*
D23*
X28450000Y-18650000D02*
X28675000Y-18425000D01*
X27119987Y-18650000D02*
X26698511Y-18228524D01*
X32200000Y-16850000D02*
X32625000Y-16425000D01*
X26000000Y-9424000D02*
X26000000Y-6250000D01*
X25125000Y-14575000D02*
X24725000Y-14175000D01*
X26400000Y-14575000D02*
X26698511Y-14873511D01*
X26400000Y-14575000D02*
X25125000Y-14575000D01*
D22*
X28125000Y-25225000D02*
X28675000Y-24675000D01*
X28675000Y-23225000D02*
X28675000Y-22150000D01*
D23*
X29475000Y-16850000D02*
X32200000Y-16850000D01*
X28450000Y-18650000D02*
X27119987Y-18650000D01*
D25*
X48500000Y-33825000D02*
X48075000Y-33400000D01*
X48475000Y-32175000D02*
X48075000Y-32575000D01*
X48075000Y-32575000D02*
X48075000Y-33400000D01*
X48675000Y-32175000D02*
X48475000Y-32175000D01*
X48675000Y-32175000D02*
X48675000Y-33825000D01*
X48675000Y-33825000D02*
X48500000Y-33825000D01*
X48675000Y-28425000D02*
X48475000Y-28425000D01*
X48475000Y-28425000D02*
X48075000Y-28825000D01*
X48500000Y-30075000D02*
X48075000Y-29650000D01*
X48075000Y-28825000D02*
X48075000Y-29650000D01*
X48675000Y-29250000D02*
X48675000Y-30075000D01*
X48675000Y-28425000D02*
X48675000Y-29250000D01*
X48675000Y-30075000D02*
X48500000Y-30075000D01*
X48475000Y-17175000D02*
X48075000Y-17575000D01*
X48675000Y-18825000D02*
X48500000Y-18825000D01*
X48500000Y-18825000D02*
X48075000Y-18400000D01*
X48675000Y-17175000D02*
X48475000Y-17175000D01*
X48675000Y-17175000D02*
X48675000Y-18825000D01*
X48075000Y-17575000D02*
X48075000Y-18400000D01*
D22*
X34497020Y-2901000D02*
X34872449Y-3276429D01*
X26375000Y-3650000D02*
X27124000Y-2901000D01*
X26375000Y-4000000D02*
X26375000Y-3650000D01*
X35650000Y-4053980D02*
X34872449Y-3276429D01*
X35650000Y-6425000D02*
X35650000Y-4053980D01*
X27124000Y-2901000D02*
X34497020Y-2901000D01*
D26*
X35000000Y-6050000D02*
X33950000Y-5000000D01*
X33950000Y-5000000D02*
X30700000Y-5000000D01*
X40400000Y-12490000D02*
X41632671Y-11257329D01*
X41632671Y-11257329D02*
X41632671Y-9842329D01*
D24*
X13100000Y-5275362D02*
X13100000Y-14400000D01*
X15225000Y-4323500D02*
X14051862Y-4323500D01*
X13100000Y-14400000D02*
X13621447Y-14921447D01*
X14051862Y-4323500D02*
X13100000Y-5275362D01*
D22*
X15225000Y-5072003D02*
X14229497Y-5072003D01*
X14229497Y-5072003D02*
X14026500Y-5275000D01*
X15225000Y-5825000D02*
X14223452Y-5825000D01*
X14223452Y-5825000D02*
X14024951Y-6023501D01*
X29624000Y-15079476D02*
X29624000Y-15726000D01*
X29624000Y-15726000D02*
X29204468Y-16145532D01*
X25800000Y-16175000D02*
X24550000Y-16175000D01*
X26100000Y-17175000D02*
X24550000Y-17175000D01*
X33493294Y-18786965D02*
X33576500Y-18870171D01*
X32521622Y-18786965D02*
X33493294Y-18786965D01*
X22475000Y-8971000D02*
X22475000Y-8548500D01*
X22475000Y-8548500D02*
X23100000Y-7923500D01*
X39500000Y-24825000D02*
X40200000Y-24825000D01*
X38279829Y-23604829D02*
X39500000Y-24825000D01*
X42300000Y-35395540D02*
X42300000Y-33275000D01*
X40550000Y-26798500D02*
X40550000Y-26575000D01*
X39066579Y-28281921D02*
X40550000Y-26798500D01*
D24*
X13875000Y-3675000D02*
X15875000Y-3675000D01*
X19156377Y-25823511D02*
X18775000Y-25442134D01*
X20050000Y-25500000D02*
X19726489Y-25823511D01*
X17700000Y-23925000D02*
X17700000Y-19925000D01*
X12475000Y-14700000D02*
X12475000Y-5075000D01*
X17700000Y-19925000D02*
X12475000Y-14700000D01*
X19726489Y-25823511D02*
X19156377Y-25823511D01*
X18775000Y-25000000D02*
X17700000Y-23925000D01*
X18775000Y-25442134D02*
X18775000Y-25000000D01*
X12475000Y-5075000D02*
X13875000Y-3675000D01*
X22125000Y-25500000D02*
X20050000Y-25500000D01*
D22*
X45007766Y-9171694D02*
X45007766Y-10277394D01*
X38115350Y-16150000D02*
X41866844Y-16150000D01*
X37892850Y-16372500D02*
X38115350Y-16150000D01*
X36974641Y-16110472D02*
X37236669Y-16372500D01*
X37236669Y-16372500D02*
X37892850Y-16372500D01*
X45007766Y-10277394D02*
X44209187Y-11075973D01*
X41866844Y-16150000D02*
X42110221Y-16393377D01*
X37675802Y-15848500D02*
X41023500Y-15848500D01*
X41023500Y-15848500D02*
X41025000Y-15850000D01*
X44478495Y-9746505D02*
X43655898Y-10569102D01*
X44478495Y-8642423D02*
X44478495Y-9746505D01*
X41025000Y-15850000D02*
X42625000Y-15850000D01*
X26773000Y-2602000D02*
X36702000Y-2602000D01*
X40700000Y-9250000D02*
X40700000Y-6600000D01*
X25125000Y-3425000D02*
X25950000Y-3425000D01*
X39150000Y-10800000D02*
X40700000Y-9250000D01*
X25950000Y-3425000D02*
X26773000Y-2602000D01*
X36702000Y-2602000D02*
X40700000Y-6600000D01*
X26390105Y-11475414D02*
X26390105Y-11240105D01*
X26390105Y-11240105D02*
X25775000Y-10625000D01*
G04 #@! TA.AperFunction,Conductor*
G36*
X24622613Y-3264352D02*
G01*
X24636965Y-3299000D01*
X24636466Y-3305973D01*
X24619352Y-3425000D01*
X24639834Y-3567454D01*
X24639834Y-3567455D01*
X24639835Y-3567457D01*
X24680859Y-3657285D01*
X24699623Y-3698373D01*
X24777849Y-3788652D01*
X24793872Y-3807143D01*
X24914947Y-3884953D01*
X25053039Y-3925500D01*
X25196961Y-3925500D01*
X25335053Y-3884953D01*
X25456128Y-3807143D01*
X25533879Y-3717412D01*
X25567416Y-3700625D01*
X25570912Y-3700500D01*
X25885309Y-3700500D01*
X25919957Y-3714852D01*
X25934309Y-3749500D01*
X25929881Y-3769856D01*
X25889834Y-3857545D01*
X25869352Y-3999999D01*
X25889834Y-4142454D01*
X25889834Y-4142455D01*
X25889835Y-4142457D01*
X25949623Y-4273373D01*
X26043872Y-4382143D01*
X26164947Y-4459953D01*
X26303039Y-4500500D01*
X26446961Y-4500500D01*
X26585053Y-4459953D01*
X26706128Y-4382143D01*
X26800377Y-4273373D01*
X26860165Y-4142457D01*
X26880647Y-4000000D01*
X26860165Y-3857543D01*
X26800377Y-3726627D01*
X26778075Y-3700889D01*
X26766233Y-3665306D01*
X26780459Y-3634155D01*
X27150263Y-3264352D01*
X27184912Y-3250000D01*
X34320543Y-3250000D01*
X34355191Y-3264352D01*
X34369044Y-3292027D01*
X34387283Y-3418883D01*
X34387283Y-3418884D01*
X34387284Y-3418886D01*
X34447072Y-3549802D01*
X34541321Y-3658572D01*
X34662396Y-3736382D01*
X34800488Y-3776929D01*
X34944409Y-3776929D01*
X34944410Y-3776929D01*
X34946602Y-3776285D01*
X34983890Y-3780293D01*
X34995056Y-3788652D01*
X35360148Y-4153744D01*
X35374500Y-4188391D01*
X35374500Y-5605993D01*
X35360148Y-5640641D01*
X35325500Y-5654993D01*
X35299009Y-5647215D01*
X35210052Y-5590046D01*
X35071961Y-5549500D01*
X34944767Y-5549500D01*
X34910119Y-5535148D01*
X34202799Y-4827828D01*
X34194442Y-4816214D01*
X34193958Y-4815773D01*
X34193958Y-4815772D01*
X34158391Y-4783348D01*
X34156776Y-4781805D01*
X34142798Y-4767826D01*
X34139840Y-4765800D01*
X34134523Y-4761588D01*
X34110932Y-4740083D01*
X34096354Y-4734435D01*
X34086366Y-4729170D01*
X34073481Y-4720343D01*
X34042420Y-4713038D01*
X34035938Y-4711031D01*
X34006173Y-4699500D01*
X33990546Y-4699500D01*
X33979327Y-4698198D01*
X33977073Y-4697668D01*
X33964118Y-4694620D01*
X33932513Y-4699030D01*
X33925743Y-4699500D01*
X31605476Y-4699500D01*
X31570828Y-4685148D01*
X31556476Y-4650500D01*
X31566602Y-4620671D01*
X31568761Y-4617857D01*
X31624536Y-4545170D01*
X31685044Y-4399091D01*
X31705682Y-4242329D01*
X31685044Y-4085567D01*
X31624536Y-3939488D01*
X31582690Y-3884953D01*
X31528282Y-3814046D01*
X31402842Y-3717794D01*
X31402841Y-3717793D01*
X31256762Y-3657285D01*
X31100000Y-3636647D01*
X30943237Y-3657285D01*
X30900470Y-3675000D01*
X30804260Y-3714852D01*
X30797157Y-3717794D01*
X30671717Y-3814046D01*
X30575465Y-3939486D01*
X30514956Y-4085566D01*
X30494318Y-4242329D01*
X30514956Y-4399091D01*
X30543423Y-4467816D01*
X30543423Y-4505319D01*
X30516905Y-4531838D01*
X30511960Y-4533583D01*
X30489946Y-4540047D01*
X30368871Y-4617857D01*
X30274623Y-4726626D01*
X30214834Y-4857545D01*
X30194352Y-5000000D01*
X30214834Y-5142454D01*
X30274623Y-5273373D01*
X30338856Y-5347503D01*
X30368872Y-5382143D01*
X30489947Y-5459953D01*
X30628039Y-5500500D01*
X30771961Y-5500500D01*
X30910053Y-5459953D01*
X31031128Y-5382143D01*
X31087217Y-5317412D01*
X31120754Y-5300625D01*
X31124250Y-5300500D01*
X33805233Y-5300500D01*
X33839881Y-5314852D01*
X34487150Y-5962121D01*
X34501502Y-5996769D01*
X34501003Y-6003742D01*
X34494352Y-6049999D01*
X34514834Y-6192454D01*
X34514834Y-6192455D01*
X34514835Y-6192457D01*
X34555976Y-6282543D01*
X34574623Y-6323373D01*
X34662682Y-6425000D01*
X34668872Y-6432143D01*
X34789947Y-6509953D01*
X34928039Y-6550500D01*
X35071960Y-6550500D01*
X35071961Y-6550500D01*
X35106288Y-6540420D01*
X35143573Y-6544428D01*
X35164663Y-6567080D01*
X35224622Y-6698372D01*
X35224623Y-6698373D01*
X35318872Y-6807143D01*
X35439947Y-6884953D01*
X35578039Y-6925500D01*
X35721961Y-6925500D01*
X35860053Y-6884953D01*
X35981128Y-6807143D01*
X36075377Y-6698373D01*
X36135165Y-6567457D01*
X36155647Y-6425000D01*
X36135165Y-6282543D01*
X36075377Y-6151627D01*
X36025386Y-6093934D01*
X35981126Y-6042854D01*
X35948008Y-6021571D01*
X35926619Y-5990766D01*
X35925499Y-5980350D01*
X35925499Y-5072003D01*
X35925499Y-4085925D01*
X35926439Y-4076388D01*
X35930897Y-4053980D01*
X35925500Y-4026847D01*
X35909515Y-3946485D01*
X35881471Y-3904514D01*
X35868401Y-3884953D01*
X35861316Y-3874349D01*
X35861309Y-3874341D01*
X35848624Y-3855356D01*
X35829634Y-3842667D01*
X35822209Y-3836573D01*
X35380853Y-3395217D01*
X35366501Y-3360569D01*
X35366998Y-3353608D01*
X35373848Y-3305973D01*
X35375854Y-3292025D01*
X35394991Y-3259773D01*
X35424355Y-3250000D01*
X36940088Y-3250000D01*
X36974736Y-3264352D01*
X40410148Y-6699764D01*
X40424500Y-6734412D01*
X40424499Y-9115587D01*
X40410147Y-9150235D01*
X39272606Y-10287776D01*
X39237958Y-10302128D01*
X39224156Y-10300144D01*
X39221962Y-10299500D01*
X39221961Y-10299500D01*
X39078039Y-10299500D01*
X38939947Y-10340046D01*
X38818871Y-10417857D01*
X38724623Y-10526626D01*
X38664834Y-10657545D01*
X38644352Y-10800000D01*
X38664834Y-10942454D01*
X38664834Y-10942455D01*
X38664835Y-10942457D01*
X38724623Y-11073373D01*
X38818872Y-11182143D01*
X38939947Y-11259953D01*
X39078039Y-11300500D01*
X39221961Y-11300500D01*
X39360053Y-11259953D01*
X39481128Y-11182143D01*
X39575377Y-11073373D01*
X39635165Y-10942457D01*
X39655647Y-10800000D01*
X39644551Y-10722830D01*
X39653825Y-10686494D01*
X39658397Y-10681217D01*
X40872212Y-9467402D01*
X40879628Y-9461315D01*
X40898624Y-9448624D01*
X40915078Y-9424000D01*
X40946821Y-9376492D01*
X40959515Y-9357495D01*
X40966638Y-9321683D01*
X40976442Y-9272400D01*
X40976442Y-9272396D01*
X40980897Y-9250000D01*
X40976441Y-9227599D01*
X40975499Y-9218049D01*
X40975499Y-7110800D01*
X40989852Y-7076152D01*
X41024500Y-7061800D01*
X41059146Y-7076151D01*
X42835725Y-8860661D01*
X42850000Y-8895232D01*
X42850000Y-15029703D01*
X42835648Y-15064351D01*
X42558287Y-15341711D01*
X42537444Y-15354078D01*
X42414947Y-15390046D01*
X42293871Y-15467857D01*
X42216120Y-15557588D01*
X42182584Y-15574375D01*
X42179088Y-15574500D01*
X41062998Y-15574500D01*
X41053440Y-15573558D01*
X41050633Y-15573000D01*
X41050632Y-15573000D01*
X41048568Y-15572589D01*
X41045897Y-15572058D01*
X41023500Y-15567602D01*
X41001103Y-15572058D01*
X40991543Y-15573000D01*
X38121714Y-15573000D01*
X38087066Y-15558648D01*
X38084682Y-15556088D01*
X38006930Y-15466357D01*
X37885854Y-15388546D01*
X37747763Y-15348000D01*
X37603841Y-15348000D01*
X37465749Y-15388546D01*
X37344673Y-15466357D01*
X37250425Y-15575126D01*
X37229931Y-15620001D01*
X37202482Y-15645556D01*
X37171554Y-15646660D01*
X37046602Y-15609972D01*
X36902680Y-15609972D01*
X36764588Y-15650518D01*
X36643512Y-15728329D01*
X36549264Y-15837098D01*
X36489475Y-15968017D01*
X36468993Y-16110471D01*
X36489475Y-16252926D01*
X36489475Y-16252927D01*
X36489476Y-16252929D01*
X36515518Y-16309953D01*
X36549264Y-16383845D01*
X36622058Y-16467855D01*
X36643513Y-16492615D01*
X36764588Y-16570425D01*
X36902680Y-16610972D01*
X37046602Y-16610972D01*
X37060104Y-16607007D01*
X37097392Y-16611013D01*
X37101132Y-16613277D01*
X37129175Y-16632016D01*
X37236669Y-16653397D01*
X37259072Y-16648940D01*
X37268631Y-16648000D01*
X37860893Y-16648000D01*
X37870453Y-16648942D01*
X37892849Y-16653397D01*
X37892849Y-16653396D01*
X37892850Y-16653397D01*
X37906361Y-16650709D01*
X37915247Y-16648942D01*
X37915252Y-16648941D01*
X37919983Y-16648000D01*
X38000345Y-16632015D01*
X38052440Y-16597206D01*
X38068472Y-16586494D01*
X38068472Y-16586492D01*
X38073770Y-16582953D01*
X38073771Y-16582951D01*
X38091474Y-16571124D01*
X38104166Y-16552126D01*
X38110246Y-16544718D01*
X38215115Y-16439850D01*
X38249762Y-16425500D01*
X41356204Y-16425500D01*
X41390852Y-16439852D01*
X41405204Y-16474500D01*
X41390852Y-16509148D01*
X39200000Y-18699999D01*
X39200000Y-20829704D01*
X39185648Y-20864352D01*
X36614352Y-23435648D01*
X36579704Y-23450000D01*
X35799000Y-23450000D01*
X35764352Y-23435648D01*
X35750000Y-23401000D01*
X35750000Y-22750000D01*
X35315852Y-22750000D01*
X35302047Y-22748015D01*
X35221961Y-22724500D01*
X35078039Y-22724500D01*
X34997953Y-22748015D01*
X34984148Y-22750000D01*
X34165852Y-22750000D01*
X34152047Y-22748015D01*
X34071961Y-22724500D01*
X33928039Y-22724500D01*
X33847953Y-22748015D01*
X33834148Y-22750000D01*
X33040852Y-22750000D01*
X33027047Y-22748015D01*
X32946961Y-22724500D01*
X32803039Y-22724500D01*
X32722953Y-22748015D01*
X32709148Y-22750000D01*
X31890852Y-22750000D01*
X31877047Y-22748015D01*
X31796961Y-22724500D01*
X31653039Y-22724500D01*
X31572953Y-22748015D01*
X31559148Y-22750000D01*
X30765852Y-22750000D01*
X30752047Y-22748015D01*
X30671961Y-22724500D01*
X30528039Y-22724500D01*
X30447953Y-22748015D01*
X30434148Y-22750000D01*
X28999500Y-22750000D01*
X28964852Y-22735648D01*
X28950500Y-22701000D01*
X28950500Y-22181960D01*
X28951441Y-22172401D01*
X28955897Y-22150000D01*
X28934516Y-22042506D01*
X28889410Y-21975000D01*
X28886316Y-21970369D01*
X28886309Y-21970361D01*
X28873623Y-21951375D01*
X28854634Y-21938687D01*
X28847209Y-21932593D01*
X26988363Y-20073747D01*
X26974011Y-20039099D01*
X26974011Y-19039093D01*
X26988363Y-19004445D01*
X27023011Y-18990093D01*
X27038919Y-18992748D01*
X27050681Y-18996786D01*
X27061498Y-19000500D01*
X27061499Y-19000500D01*
X27061783Y-19000500D01*
X27075763Y-19002536D01*
X27076033Y-19002617D01*
X27126203Y-19000542D01*
X27128228Y-19000500D01*
X28408567Y-19000500D01*
X28418623Y-19001543D01*
X28435315Y-19005043D01*
X28468743Y-19000875D01*
X28474803Y-19000500D01*
X28479038Y-19000500D01*
X28479040Y-19000500D01*
X28499561Y-18997075D01*
X28501531Y-18996788D01*
X28551393Y-18990573D01*
X28551645Y-18990449D01*
X28565106Y-18986137D01*
X28565381Y-18986092D01*
X28609580Y-18962171D01*
X28611310Y-18961280D01*
X28656484Y-18939198D01*
X28656485Y-18939196D01*
X28663833Y-18935605D01*
X28664212Y-18936380D01*
X28690479Y-18925500D01*
X28746961Y-18925500D01*
X28885053Y-18884953D01*
X29006128Y-18807143D01*
X29023612Y-18786965D01*
X32015974Y-18786965D01*
X32036456Y-18929419D01*
X32036456Y-18929420D01*
X32036457Y-18929422D01*
X32070719Y-19004445D01*
X32096245Y-19060338D01*
X32152274Y-19125000D01*
X32190494Y-19169108D01*
X32311569Y-19246918D01*
X32449661Y-19287465D01*
X32593583Y-19287465D01*
X32731675Y-19246918D01*
X32852750Y-19169108D01*
X32930501Y-19079377D01*
X32964038Y-19062590D01*
X32967534Y-19062465D01*
X33082605Y-19062465D01*
X33117253Y-19076817D01*
X33127175Y-19091106D01*
X33151123Y-19143544D01*
X33245372Y-19252314D01*
X33366447Y-19330124D01*
X33504539Y-19370671D01*
X33648461Y-19370671D01*
X33786553Y-19330124D01*
X33907628Y-19252314D01*
X34001877Y-19143544D01*
X34061665Y-19012628D01*
X34082147Y-18870171D01*
X34061665Y-18727714D01*
X34001877Y-18596798D01*
X33907628Y-18488028D01*
X33825127Y-18435008D01*
X33786552Y-18410217D01*
X33648461Y-18369671D01*
X33504539Y-18369671D01*
X33366445Y-18410218D01*
X33245373Y-18488026D01*
X33242784Y-18491014D01*
X33239717Y-18494553D01*
X33206183Y-18511340D01*
X33202687Y-18511465D01*
X32967534Y-18511465D01*
X32932886Y-18497113D01*
X32930502Y-18494553D01*
X32852750Y-18404822D01*
X32731674Y-18327011D01*
X32593583Y-18286465D01*
X32449661Y-18286465D01*
X32311569Y-18327011D01*
X32190493Y-18404822D01*
X32096245Y-18513591D01*
X32036456Y-18644510D01*
X32015974Y-18786965D01*
X29023612Y-18786965D01*
X29100377Y-18698373D01*
X29160165Y-18567457D01*
X29180647Y-18425000D01*
X29160165Y-18282543D01*
X29100377Y-18151627D01*
X29006128Y-18042857D01*
X28954732Y-18009827D01*
X28885052Y-17965046D01*
X28746961Y-17924500D01*
X28603039Y-17924500D01*
X28464947Y-17965046D01*
X28343871Y-18042857D01*
X28249623Y-18151626D01*
X28195172Y-18270856D01*
X28167723Y-18296411D01*
X28150600Y-18299500D01*
X28068061Y-18299500D01*
X28033413Y-18285148D01*
X28019061Y-18250500D01*
X28033413Y-18215852D01*
X28051786Y-18197478D01*
X28097090Y-18094873D01*
X28099835Y-18071214D01*
X28100000Y-18068372D01*
X28100000Y-17950000D01*
X27661786Y-17950000D01*
X27700000Y-17870649D01*
X27700000Y-17779351D01*
X27661786Y-17700000D01*
X28099999Y-17700000D01*
X28099999Y-17581613D01*
X28099837Y-17578814D01*
X28097090Y-17555123D01*
X28051786Y-17452521D01*
X27968354Y-17369089D01*
X27954002Y-17334441D01*
X27968354Y-17299793D01*
X27973150Y-17295586D01*
X28028282Y-17253282D01*
X28124536Y-17127841D01*
X28185044Y-16981762D01*
X28205682Y-16825000D01*
X28185044Y-16668238D01*
X28124536Y-16522159D01*
X28061379Y-16439851D01*
X28028284Y-16396720D01*
X28028282Y-16396719D01*
X28028282Y-16396718D01*
X27985476Y-16363872D01*
X27966726Y-16331396D01*
X27976432Y-16295171D01*
X27985471Y-16286131D01*
X28028282Y-16253282D01*
X28110961Y-16145532D01*
X28698820Y-16145532D01*
X28719302Y-16287986D01*
X28719302Y-16287987D01*
X28719303Y-16287989D01*
X28763487Y-16384738D01*
X28779091Y-16418905D01*
X28842960Y-16492615D01*
X28873340Y-16527675D01*
X28991189Y-16603412D01*
X29012577Y-16634216D01*
X29009269Y-16664987D01*
X28989834Y-16707543D01*
X28969352Y-16849999D01*
X28989834Y-16992454D01*
X28989834Y-16992455D01*
X28989835Y-16992457D01*
X29049623Y-17123373D01*
X29143872Y-17232143D01*
X29264947Y-17309953D01*
X29403039Y-17350500D01*
X29546961Y-17350500D01*
X29685053Y-17309953D01*
X29806128Y-17232143D01*
X29813863Y-17223215D01*
X29818894Y-17217411D01*
X29852430Y-17200625D01*
X29855925Y-17200500D01*
X32158567Y-17200500D01*
X32168623Y-17201543D01*
X32185315Y-17205043D01*
X32218743Y-17200875D01*
X32224803Y-17200500D01*
X32229038Y-17200500D01*
X32229040Y-17200500D01*
X32249561Y-17197075D01*
X32251531Y-17196788D01*
X32301393Y-17190573D01*
X32301645Y-17190449D01*
X32315106Y-17186137D01*
X32315381Y-17186092D01*
X32359580Y-17162171D01*
X32361310Y-17161280D01*
X32406484Y-17139198D01*
X32406681Y-17139000D01*
X32418015Y-17130549D01*
X32418258Y-17130418D01*
X32452297Y-17093440D01*
X32453653Y-17092027D01*
X32605829Y-16939852D01*
X32640478Y-16925500D01*
X32696961Y-16925500D01*
X32835053Y-16884953D01*
X32956128Y-16807143D01*
X33050377Y-16698373D01*
X33110165Y-16567457D01*
X33130647Y-16425000D01*
X33110165Y-16282543D01*
X33050377Y-16151627D01*
X32987466Y-16079023D01*
X32975499Y-16046937D01*
X32975499Y-16040475D01*
X32989850Y-16005830D01*
X34630829Y-14364852D01*
X34665478Y-14350500D01*
X34721961Y-14350500D01*
X34860053Y-14309953D01*
X34981128Y-14232143D01*
X35075377Y-14123373D01*
X35135165Y-13992457D01*
X35155647Y-13850000D01*
X35135165Y-13707543D01*
X35075377Y-13576627D01*
X34981128Y-13467857D01*
X34981127Y-13467857D01*
X34860052Y-13390046D01*
X34721961Y-13349500D01*
X34578039Y-13349500D01*
X34439947Y-13390046D01*
X34318871Y-13467857D01*
X34224623Y-13576626D01*
X34164834Y-13707544D01*
X34144999Y-13845496D01*
X34131146Y-13873170D01*
X32406454Y-15597862D01*
X32398608Y-15604234D01*
X32384330Y-15613562D01*
X32363643Y-15640141D01*
X32359633Y-15644683D01*
X32356628Y-15647689D01*
X32344544Y-15664612D01*
X32343336Y-15666232D01*
X32312481Y-15705875D01*
X32312387Y-15706151D01*
X32305930Y-15718695D01*
X32305759Y-15718933D01*
X32291423Y-15767083D01*
X32290806Y-15769009D01*
X32274500Y-15816510D01*
X32274500Y-15816796D01*
X32272463Y-15830778D01*
X32272382Y-15831046D01*
X32274458Y-15881215D01*
X32274500Y-15883240D01*
X32274500Y-16046937D01*
X32262532Y-16079025D01*
X32199623Y-16151626D01*
X32139834Y-16282544D01*
X32119999Y-16420496D01*
X32106147Y-16448169D01*
X32069171Y-16485147D01*
X32034523Y-16499500D01*
X29855925Y-16499500D01*
X29821277Y-16485148D01*
X29818894Y-16482589D01*
X29806126Y-16467855D01*
X29688279Y-16392119D01*
X29666890Y-16361314D01*
X29670198Y-16330542D01*
X29689633Y-16287989D01*
X29710115Y-16145532D01*
X29699019Y-16068362D01*
X29708293Y-16032026D01*
X29712865Y-16026749D01*
X29796212Y-15943402D01*
X29803628Y-15937315D01*
X29822624Y-15924624D01*
X29828896Y-15915238D01*
X29839413Y-15899500D01*
X29871847Y-15850958D01*
X29877681Y-15842226D01*
X29883515Y-15833495D01*
X29888025Y-15810817D01*
X29900442Y-15748400D01*
X29900442Y-15748396D01*
X29904897Y-15726000D01*
X29900440Y-15703597D01*
X29899500Y-15694039D01*
X29899500Y-15524124D01*
X29913852Y-15489476D01*
X29922010Y-15482902D01*
X29929885Y-15477841D01*
X29955128Y-15461619D01*
X30049377Y-15352849D01*
X30109165Y-15221933D01*
X30129647Y-15079476D01*
X30109165Y-14937019D01*
X30049377Y-14806103D01*
X29955128Y-14697333D01*
X29882200Y-14650465D01*
X29834052Y-14619522D01*
X29695961Y-14578976D01*
X29552039Y-14578976D01*
X29413947Y-14619522D01*
X29292871Y-14697333D01*
X29198623Y-14806102D01*
X29138834Y-14937021D01*
X29118352Y-15079475D01*
X29138834Y-15221930D01*
X29138834Y-15221931D01*
X29138835Y-15221933D01*
X29198623Y-15352849D01*
X29292872Y-15461619D01*
X29325990Y-15482902D01*
X29347379Y-15513708D01*
X29348499Y-15524124D01*
X29348499Y-15591588D01*
X29334147Y-15626235D01*
X29327072Y-15633311D01*
X29292423Y-15647660D01*
X29278624Y-15645676D01*
X29276430Y-15645032D01*
X29276429Y-15645032D01*
X29132507Y-15645032D01*
X28994415Y-15685578D01*
X28873339Y-15763389D01*
X28779091Y-15872158D01*
X28719302Y-16003077D01*
X28698820Y-16145532D01*
X28110961Y-16145532D01*
X28124536Y-16127841D01*
X28185044Y-15981762D01*
X28205682Y-15825000D01*
X28185044Y-15668238D01*
X28124536Y-15522159D01*
X28049360Y-15424187D01*
X28028284Y-15396720D01*
X28028282Y-15396719D01*
X28028282Y-15396718D01*
X27985476Y-15363872D01*
X27966726Y-15331396D01*
X27976432Y-15295171D01*
X27985471Y-15286131D01*
X28028282Y-15253282D01*
X28124536Y-15127841D01*
X28185044Y-14981762D01*
X28205682Y-14825000D01*
X28185044Y-14668238D01*
X28124536Y-14522159D01*
X28057587Y-14434909D01*
X28028282Y-14396717D01*
X27915207Y-14309953D01*
X27902841Y-14300464D01*
X27756762Y-14239956D01*
X27640945Y-14224708D01*
X27640936Y-14224707D01*
X27639361Y-14224500D01*
X27360639Y-14224500D01*
X27359064Y-14224707D01*
X27359054Y-14224708D01*
X27243237Y-14239956D01*
X27097157Y-14300465D01*
X26971719Y-14396716D01*
X26956801Y-14416158D01*
X26924322Y-14434909D01*
X26888097Y-14425202D01*
X26873355Y-14406684D01*
X26868804Y-14396718D01*
X26825377Y-14301627D01*
X26731128Y-14192857D01*
X26623009Y-14123373D01*
X26610052Y-14115046D01*
X26471961Y-14074500D01*
X26328039Y-14074500D01*
X26189947Y-14115046D01*
X26068871Y-14192857D01*
X26056106Y-14207589D01*
X26022570Y-14224375D01*
X26019075Y-14224500D01*
X25290478Y-14224500D01*
X25255830Y-14210148D01*
X25243852Y-14198170D01*
X25229999Y-14170495D01*
X25210165Y-14032544D01*
X25191858Y-13992457D01*
X25150377Y-13901627D01*
X25056128Y-13792857D01*
X25056127Y-13792856D01*
X24935052Y-13715046D01*
X24796961Y-13674500D01*
X24653039Y-13674500D01*
X24514947Y-13715046D01*
X24393871Y-13792857D01*
X24299623Y-13901626D01*
X24239834Y-14032545D01*
X24219352Y-14175000D01*
X24239834Y-14317454D01*
X24239834Y-14317455D01*
X24239835Y-14317457D01*
X24299623Y-14448373D01*
X24370129Y-14529742D01*
X24381972Y-14565325D01*
X24365185Y-14598861D01*
X24351849Y-14607099D01*
X24247157Y-14650465D01*
X24121717Y-14746717D01*
X24025465Y-14872157D01*
X23964956Y-15018237D01*
X23950527Y-15127841D01*
X23944318Y-15175000D01*
X23964956Y-15331762D01*
X24025464Y-15477841D01*
X24052986Y-15513708D01*
X24121715Y-15603279D01*
X24121718Y-15603282D01*
X24151632Y-15626236D01*
X24164521Y-15636126D01*
X24183272Y-15668605D01*
X24173565Y-15704830D01*
X24164521Y-15713873D01*
X24162992Y-15715047D01*
X24121716Y-15746719D01*
X24025465Y-15872157D01*
X23964956Y-16018237D01*
X23947395Y-16151626D01*
X23944318Y-16175000D01*
X23964956Y-16331762D01*
X24025464Y-16477841D01*
X24049487Y-16509148D01*
X24121715Y-16603279D01*
X24121718Y-16603282D01*
X24159165Y-16632016D01*
X24164521Y-16636126D01*
X24183272Y-16668605D01*
X24173565Y-16704830D01*
X24164521Y-16713874D01*
X24121716Y-16746719D01*
X24025465Y-16872157D01*
X23964956Y-17018237D01*
X23950527Y-17127841D01*
X23944318Y-17175000D01*
X23964956Y-17331762D01*
X24025464Y-17477841D01*
X24025465Y-17477842D01*
X24121717Y-17603282D01*
X24177724Y-17646257D01*
X24247159Y-17699536D01*
X24393238Y-17760044D01*
X24550000Y-17780682D01*
X24706762Y-17760044D01*
X24852841Y-17699536D01*
X24978282Y-17603282D01*
X25074536Y-17477841D01*
X25074536Y-17477840D01*
X25078463Y-17472723D01*
X25080100Y-17473979D01*
X25099847Y-17454231D01*
X25118601Y-17450500D01*
X25654088Y-17450500D01*
X25688736Y-17464852D01*
X25691120Y-17467412D01*
X25700157Y-17477841D01*
X25768872Y-17557143D01*
X25889947Y-17634953D01*
X26028039Y-17675500D01*
X26171961Y-17675500D01*
X26285207Y-17642248D01*
X26322493Y-17646257D01*
X26346025Y-17675458D01*
X26348010Y-17689263D01*
X26348010Y-18187091D01*
X26346968Y-18197145D01*
X26343468Y-18213838D01*
X26347635Y-18247265D01*
X26348011Y-18253326D01*
X26348011Y-18257564D01*
X26351430Y-18278059D01*
X26351721Y-18280059D01*
X26357937Y-18329915D01*
X26358063Y-18330172D01*
X26362372Y-18343623D01*
X26362419Y-18343905D01*
X26386329Y-18388088D01*
X26387256Y-18389889D01*
X26412904Y-18442354D01*
X26412129Y-18442732D01*
X26423011Y-18469002D01*
X26423010Y-20141550D01*
X26422069Y-20151107D01*
X26417613Y-20173510D01*
X26422069Y-20195907D01*
X26422069Y-20195911D01*
X26438995Y-20281004D01*
X26499886Y-20372134D01*
X26518875Y-20384822D01*
X26526300Y-20390916D01*
X28385148Y-22249764D01*
X28399500Y-22284412D01*
X28399500Y-22780351D01*
X28385148Y-22814999D01*
X28376992Y-22821572D01*
X28343872Y-22842857D01*
X28249623Y-22951626D01*
X28189834Y-23082545D01*
X28169352Y-23225000D01*
X28189834Y-23367454D01*
X28189834Y-23367455D01*
X28189835Y-23367457D01*
X28249623Y-23498373D01*
X28343872Y-23607143D01*
X28371659Y-23625000D01*
X28376990Y-23628426D01*
X28398379Y-23659232D01*
X28399499Y-23669648D01*
X28399499Y-23830351D01*
X28385147Y-23864999D01*
X28376991Y-23871572D01*
X28343872Y-23892856D01*
X28249623Y-24001626D01*
X28189834Y-24132545D01*
X28169352Y-24274999D01*
X28189834Y-24417454D01*
X28249623Y-24548373D01*
X28295134Y-24600896D01*
X28306977Y-24636480D01*
X28292750Y-24667632D01*
X28247606Y-24712776D01*
X28212958Y-24727128D01*
X28199156Y-24725144D01*
X28196962Y-24724500D01*
X28196961Y-24724500D01*
X28053039Y-24724500D01*
X27914947Y-24765046D01*
X27793871Y-24842857D01*
X27699623Y-24951626D01*
X27639834Y-25082545D01*
X27619352Y-25224999D01*
X27639834Y-25367454D01*
X27639834Y-25367455D01*
X27639835Y-25367457D01*
X27699623Y-25498373D01*
X27793872Y-25607143D01*
X27914947Y-25684953D01*
X28053039Y-25725500D01*
X28196961Y-25725500D01*
X28335053Y-25684953D01*
X28456128Y-25607143D01*
X28550377Y-25498373D01*
X28610165Y-25367457D01*
X28630647Y-25225000D01*
X28619551Y-25147830D01*
X28628825Y-25111494D01*
X28633397Y-25106217D01*
X28847212Y-24892402D01*
X28854628Y-24886315D01*
X28873624Y-24873624D01*
X28889076Y-24850500D01*
X28934515Y-24782495D01*
X28935906Y-24775500D01*
X28948548Y-24711945D01*
X28969382Y-24680766D01*
X28970048Y-24680329D01*
X29006128Y-24657143D01*
X29100377Y-24548373D01*
X29160165Y-24417457D01*
X29180647Y-24275000D01*
X29160165Y-24132543D01*
X29100377Y-24001627D01*
X29006128Y-23892857D01*
X28973008Y-23871572D01*
X28951620Y-23840766D01*
X28950500Y-23830351D01*
X28950500Y-23669648D01*
X28964852Y-23635000D01*
X28973010Y-23628426D01*
X28978341Y-23625000D01*
X29006128Y-23607143D01*
X29100377Y-23498373D01*
X29160165Y-23367457D01*
X29180647Y-23225000D01*
X29160165Y-23082543D01*
X29160164Y-23082543D01*
X29154143Y-23069355D01*
X29152805Y-23031876D01*
X29178360Y-23004428D01*
X29198715Y-23000000D01*
X29951000Y-23000000D01*
X29985648Y-23014352D01*
X30000000Y-23049000D01*
X30000000Y-28879703D01*
X29985648Y-28914351D01*
X29514352Y-29385648D01*
X29479704Y-29400000D01*
X29020296Y-29400000D01*
X28985648Y-29385648D01*
X28514352Y-28914352D01*
X28500000Y-28879704D01*
X28500000Y-28000000D01*
X26250000Y-25750000D01*
X24248223Y-25750000D01*
X23748223Y-25250000D01*
X24101776Y-25250000D01*
X24429676Y-25577899D01*
X24449099Y-25552586D01*
X24509555Y-25406632D01*
X24530176Y-25249999D01*
X24509555Y-25093368D01*
X24449098Y-24947412D01*
X24429675Y-24922100D01*
X24101777Y-25249999D01*
X24101776Y-25250000D01*
X23748223Y-25250000D01*
X23420323Y-24922100D01*
X23420322Y-24922100D01*
X23400900Y-24947411D01*
X23340444Y-25093366D01*
X23334245Y-25140450D01*
X23315493Y-25172929D01*
X23279268Y-25182635D01*
X23263418Y-25177713D01*
X23234505Y-25162981D01*
X23125000Y-25145637D01*
X23015494Y-25162981D01*
X22981884Y-25180106D01*
X22981884Y-25180107D01*
X23267129Y-25465352D01*
X23281481Y-25500000D01*
X23267129Y-25534648D01*
X23159648Y-25642129D01*
X23125000Y-25656481D01*
X23090352Y-25642129D01*
X22805107Y-25356884D01*
X22805106Y-25356884D01*
X22787981Y-25390494D01*
X22770637Y-25500000D01*
X22787981Y-25609505D01*
X22823265Y-25678754D01*
X22826208Y-25716142D01*
X22801852Y-25744659D01*
X22779606Y-25750000D01*
X22582330Y-25750000D01*
X22547682Y-25735648D01*
X22533330Y-25701000D01*
X22537758Y-25680644D01*
X22538621Y-25678754D01*
X22561697Y-25628226D01*
X22580133Y-25500000D01*
X22561697Y-25371774D01*
X22507882Y-25253937D01*
X22423049Y-25156033D01*
X22423048Y-25156032D01*
X22423047Y-25156031D01*
X22314070Y-25085996D01*
X22189772Y-25049500D01*
X22060228Y-25049500D01*
X21935930Y-25085996D01*
X21927021Y-25091722D01*
X21900531Y-25099500D01*
X19986566Y-25099500D01*
X19959884Y-25108168D01*
X19952412Y-25109962D01*
X19924697Y-25114352D01*
X19899692Y-25127093D01*
X19892592Y-25130033D01*
X19865911Y-25138704D01*
X19846132Y-25153072D01*
X19843211Y-25155195D01*
X19836659Y-25159209D01*
X19811658Y-25171948D01*
X19574948Y-25408659D01*
X19540300Y-25423011D01*
X19342566Y-25423011D01*
X19307918Y-25408659D01*
X19189852Y-25290593D01*
X19175500Y-25255945D01*
X19175500Y-24948186D01*
X19175499Y-24948185D01*
X19175500Y-24936567D01*
X19166830Y-24909882D01*
X19165035Y-24902406D01*
X19160646Y-24874695D01*
X19147910Y-24849700D01*
X19144967Y-24842595D01*
X19136297Y-24815912D01*
X19136297Y-24815911D01*
X19119801Y-24793207D01*
X19115785Y-24786652D01*
X19110103Y-24775500D01*
X19103050Y-24761658D01*
X19086715Y-24745323D01*
X23597100Y-24745323D01*
X23925000Y-25073223D01*
X23925001Y-25073223D01*
X24252900Y-24745322D01*
X24252899Y-24745321D01*
X24227589Y-24725900D01*
X24081632Y-24665444D01*
X23924999Y-24644823D01*
X23768366Y-24665444D01*
X23622411Y-24725900D01*
X23597100Y-24745322D01*
X23597100Y-24745323D01*
X19086715Y-24745323D01*
X19083916Y-24742524D01*
X19083915Y-24742522D01*
X18616392Y-24274999D01*
X18114850Y-23773457D01*
X18100500Y-23738813D01*
X18100500Y-19893481D01*
X18100500Y-19861567D01*
X18091826Y-19834874D01*
X18090034Y-19827405D01*
X18085646Y-19799697D01*
X18085646Y-19799696D01*
X18072902Y-19774685D01*
X18069967Y-19767598D01*
X18061296Y-19740911D01*
X18044796Y-19718200D01*
X18040790Y-19711662D01*
X18028050Y-19686658D01*
X18008913Y-19667521D01*
X18008910Y-19667517D01*
X14392890Y-16051497D01*
X14378538Y-16016849D01*
X14392890Y-15982201D01*
X14419873Y-15968452D01*
X14438058Y-15965571D01*
X14536842Y-15915238D01*
X14615239Y-15836841D01*
X14657676Y-15753553D01*
X14252553Y-15753553D01*
X14217905Y-15739201D01*
X14203553Y-15704553D01*
X14203552Y-15299428D01*
X14453553Y-15299428D01*
X14453553Y-15503553D01*
X14657676Y-15503553D01*
X14657676Y-15503552D01*
X14615239Y-15420264D01*
X14536842Y-15341866D01*
X14453553Y-15299428D01*
X14203552Y-15299428D01*
X14120263Y-15341866D01*
X14041867Y-15420263D01*
X13991532Y-15519050D01*
X13988652Y-15537234D01*
X13969056Y-15569210D01*
X13932589Y-15577963D01*
X13905608Y-15564215D01*
X13765580Y-15424187D01*
X13751228Y-15389539D01*
X13765580Y-15354891D01*
X13786417Y-15342526D01*
X13810516Y-15335451D01*
X13919496Y-15265414D01*
X14004329Y-15167510D01*
X14058144Y-15049673D01*
X14076580Y-14921447D01*
X14058144Y-14793221D01*
X14004329Y-14675384D01*
X13919496Y-14577480D01*
X13919495Y-14577479D01*
X13919494Y-14577478D01*
X13810516Y-14507443D01*
X13770587Y-14495719D01*
X13749744Y-14483352D01*
X13514852Y-14248459D01*
X13500500Y-14213811D01*
X13500500Y-11325000D01*
X14169352Y-11325000D01*
X14189834Y-11467454D01*
X14189834Y-11467455D01*
X14189835Y-11467457D01*
X14249623Y-11598373D01*
X14343872Y-11707143D01*
X14464947Y-11784953D01*
X14603039Y-11825500D01*
X14659522Y-11825500D01*
X14694170Y-11839852D01*
X15260148Y-12405829D01*
X15274500Y-12440477D01*
X15274500Y-13971937D01*
X15262532Y-14004025D01*
X15199623Y-14076626D01*
X15139834Y-14207545D01*
X15119352Y-14349999D01*
X15139834Y-14492454D01*
X15139834Y-14492455D01*
X15139835Y-14492457D01*
X15199623Y-14623373D01*
X15293872Y-14732143D01*
X15414947Y-14809953D01*
X15553039Y-14850500D01*
X15696961Y-14850500D01*
X15835053Y-14809953D01*
X15956128Y-14732143D01*
X16050377Y-14623373D01*
X16110165Y-14492457D01*
X16130647Y-14350000D01*
X16110165Y-14207543D01*
X16050377Y-14076627D01*
X15987468Y-14004025D01*
X15975500Y-13971937D01*
X15975500Y-12490000D01*
X39894352Y-12490000D01*
X39914834Y-12632454D01*
X39914834Y-12632455D01*
X39914835Y-12632457D01*
X39974623Y-12763373D01*
X40068872Y-12872143D01*
X40189947Y-12949953D01*
X40328039Y-12990500D01*
X40471961Y-12990500D01*
X40610053Y-12949953D01*
X40731128Y-12872143D01*
X40825377Y-12763373D01*
X40885165Y-12632457D01*
X40905647Y-12490000D01*
X40898995Y-12443741D01*
X40908269Y-12407406D01*
X40912841Y-12402128D01*
X41804843Y-11510126D01*
X41816455Y-11501773D01*
X41816897Y-11501287D01*
X41816899Y-11501287D01*
X41849332Y-11465708D01*
X41850853Y-11464116D01*
X41864845Y-11450126D01*
X41866878Y-11447157D01*
X41871084Y-11441849D01*
X41892586Y-11418263D01*
X41892585Y-11418263D01*
X41892587Y-11418262D01*
X41898234Y-11403683D01*
X41903496Y-11393700D01*
X41912327Y-11380810D01*
X41919633Y-11349747D01*
X41921640Y-11343264D01*
X41925341Y-11333712D01*
X41933171Y-11313502D01*
X41933171Y-11297875D01*
X41934473Y-11286655D01*
X41938050Y-11271447D01*
X41933641Y-11239841D01*
X41933171Y-11233071D01*
X41933171Y-10270911D01*
X41947523Y-10236263D01*
X41955674Y-10229692D01*
X41963799Y-10224472D01*
X42058048Y-10115702D01*
X42117836Y-9984786D01*
X42138318Y-9842329D01*
X42117836Y-9699872D01*
X42058048Y-9568956D01*
X41963799Y-9460186D01*
X41945808Y-9448624D01*
X41842723Y-9382375D01*
X41704632Y-9341829D01*
X41560710Y-9341829D01*
X41422618Y-9382375D01*
X41301542Y-9460186D01*
X41207294Y-9568955D01*
X41147505Y-9699874D01*
X41127023Y-9842329D01*
X41147505Y-9984783D01*
X41147505Y-9984784D01*
X41147506Y-9984786D01*
X41207294Y-10115702D01*
X41301543Y-10224472D01*
X41309662Y-10229689D01*
X41331051Y-10260493D01*
X41332171Y-10270911D01*
X41332171Y-11112561D01*
X41317819Y-11147209D01*
X40489880Y-11975148D01*
X40455232Y-11989500D01*
X40328039Y-11989500D01*
X40189947Y-12030046D01*
X40068871Y-12107857D01*
X39974623Y-12216626D01*
X39914834Y-12347545D01*
X39894352Y-12490000D01*
X15975500Y-12490000D01*
X15975500Y-12316431D01*
X15976543Y-12306375D01*
X15980043Y-12289685D01*
X15975876Y-12256257D01*
X15975500Y-12250196D01*
X15975500Y-12245963D01*
X15975500Y-12245960D01*
X15972071Y-12225417D01*
X15971791Y-12223488D01*
X15965573Y-12173607D01*
X15965449Y-12173353D01*
X15961137Y-12159891D01*
X15961092Y-12159619D01*
X15937179Y-12115434D01*
X15936263Y-12113652D01*
X15914198Y-12068516D01*
X15913998Y-12068316D01*
X15905551Y-12056988D01*
X15905417Y-12056741D01*
X15868466Y-12022725D01*
X15867005Y-12021323D01*
X15193852Y-11348170D01*
X15179999Y-11320495D01*
X15178993Y-11313500D01*
X15160165Y-11182543D01*
X15100377Y-11051627D01*
X15006128Y-10942857D01*
X14982763Y-10927841D01*
X14885052Y-10865046D01*
X14746961Y-10824500D01*
X14603039Y-10824500D01*
X14464947Y-10865046D01*
X14343871Y-10942857D01*
X14249623Y-11051626D01*
X14189834Y-11182545D01*
X14169352Y-11325000D01*
X13500500Y-11325000D01*
X13500500Y-10625000D01*
X25169318Y-10625000D01*
X25189956Y-10781762D01*
X25250464Y-10927841D01*
X25250465Y-10927842D01*
X25346717Y-11053282D01*
X25423972Y-11112561D01*
X25472159Y-11149536D01*
X25618238Y-11210044D01*
X25775000Y-11230682D01*
X25875223Y-11217487D01*
X25911447Y-11227194D01*
X25930199Y-11259672D01*
X25926190Y-11286423D01*
X25904939Y-11332957D01*
X25884457Y-11475414D01*
X25904939Y-11617868D01*
X25904939Y-11617869D01*
X25904940Y-11617871D01*
X25964728Y-11748787D01*
X26058977Y-11857557D01*
X26180052Y-11935367D01*
X26318144Y-11975914D01*
X26462066Y-11975914D01*
X26600158Y-11935367D01*
X26721233Y-11857557D01*
X26815482Y-11748787D01*
X26875270Y-11617871D01*
X26895752Y-11475414D01*
X26875270Y-11332957D01*
X26815482Y-11202041D01*
X26721233Y-11093271D01*
X26600158Y-11015461D01*
X26600157Y-11015460D01*
X26600156Y-11015460D01*
X26548336Y-11000244D01*
X26527493Y-10987877D01*
X26371870Y-10832254D01*
X26357518Y-10797606D01*
X26359393Y-10788184D01*
X26359202Y-10788159D01*
X26372586Y-10686494D01*
X26380682Y-10625000D01*
X26360044Y-10468238D01*
X26299536Y-10322159D01*
X26228581Y-10229688D01*
X26203282Y-10196717D01*
X26077842Y-10100465D01*
X26077841Y-10100464D01*
X25931762Y-10039956D01*
X25775000Y-10019318D01*
X25618237Y-10039956D01*
X25472157Y-10100465D01*
X25346717Y-10196717D01*
X25250465Y-10322157D01*
X25210825Y-10417857D01*
X25189956Y-10468238D01*
X25169318Y-10625000D01*
X13500500Y-10625000D01*
X13500500Y-8971000D01*
X21969352Y-8971000D01*
X21989834Y-9113454D01*
X21989834Y-9113455D01*
X21989835Y-9113457D01*
X22049623Y-9244373D01*
X22143872Y-9353143D01*
X22264947Y-9430953D01*
X22403039Y-9471500D01*
X22546961Y-9471500D01*
X22685053Y-9430953D01*
X22695874Y-9423999D01*
X25494352Y-9423999D01*
X25514834Y-9566454D01*
X25514834Y-9566455D01*
X25514835Y-9566457D01*
X25574623Y-9697373D01*
X25668872Y-9806143D01*
X25789947Y-9883953D01*
X25928039Y-9924500D01*
X26071961Y-9924500D01*
X26210053Y-9883953D01*
X26331128Y-9806143D01*
X26425377Y-9697373D01*
X26485165Y-9566457D01*
X26505647Y-9424000D01*
X26485165Y-9281543D01*
X26425377Y-9150627D01*
X26362468Y-9078025D01*
X26350500Y-9045937D01*
X26350500Y-6528800D01*
X26364852Y-6494152D01*
X26385693Y-6481786D01*
X26460053Y-6459953D01*
X26581128Y-6382143D01*
X26675377Y-6273373D01*
X26735165Y-6142457D01*
X26755647Y-6000000D01*
X26755182Y-5996769D01*
X26752052Y-5975000D01*
X27369318Y-5975000D01*
X27389956Y-6131762D01*
X27450464Y-6277841D01*
X27468633Y-6301519D01*
X27546717Y-6403282D01*
X27584329Y-6432142D01*
X27672159Y-6499536D01*
X27818238Y-6560044D01*
X27975000Y-6580682D01*
X28131762Y-6560044D01*
X28277841Y-6499536D01*
X28403282Y-6403282D01*
X28499536Y-6277841D01*
X28560044Y-6131762D01*
X28580682Y-5975000D01*
X28560044Y-5818238D01*
X28499536Y-5672159D01*
X28457869Y-5617857D01*
X28403282Y-5546717D01*
X28277842Y-5450465D01*
X28277841Y-5450464D01*
X28131762Y-5389956D01*
X27975000Y-5369318D01*
X27818237Y-5389956D01*
X27672157Y-5450465D01*
X27546717Y-5546717D01*
X27450465Y-5672157D01*
X27389956Y-5818237D01*
X27371014Y-5962121D01*
X27369318Y-5975000D01*
X26752052Y-5975000D01*
X26735165Y-5857545D01*
X26735165Y-5857544D01*
X26735165Y-5857543D01*
X26675377Y-5726627D01*
X26581128Y-5617857D01*
X26537853Y-5590046D01*
X26460052Y-5540046D01*
X26321961Y-5499500D01*
X26178039Y-5499500D01*
X26039947Y-5540046D01*
X25918871Y-5617857D01*
X25824623Y-5726626D01*
X25764834Y-5857544D01*
X25744999Y-5995497D01*
X25733290Y-6018899D01*
X25733982Y-6019393D01*
X25731626Y-6022691D01*
X25731625Y-6022693D01*
X25726671Y-6029630D01*
X25719544Y-6039612D01*
X25718336Y-6041232D01*
X25687481Y-6080875D01*
X25687387Y-6081151D01*
X25680930Y-6093695D01*
X25680759Y-6093933D01*
X25666423Y-6142083D01*
X25665806Y-6144009D01*
X25649500Y-6191510D01*
X25649500Y-6191796D01*
X25647463Y-6205778D01*
X25647382Y-6206046D01*
X25649458Y-6256215D01*
X25649500Y-6258240D01*
X25649500Y-9045937D01*
X25637532Y-9078025D01*
X25574623Y-9150626D01*
X25514834Y-9281545D01*
X25494352Y-9423999D01*
X22695874Y-9423999D01*
X22806128Y-9353143D01*
X22900377Y-9244373D01*
X22960165Y-9113457D01*
X22980647Y-8971000D01*
X22960165Y-8828543D01*
X22900377Y-8697627D01*
X22844418Y-8633046D01*
X22832576Y-8597463D01*
X22846802Y-8566312D01*
X22977393Y-8435721D01*
X23012040Y-8421370D01*
X23025842Y-8423355D01*
X23028039Y-8424000D01*
X23028042Y-8424000D01*
X23171961Y-8424000D01*
X23310053Y-8383453D01*
X23431128Y-8305643D01*
X23525377Y-8196873D01*
X23585165Y-8065957D01*
X23605647Y-7923500D01*
X23585165Y-7781043D01*
X23525377Y-7650127D01*
X23431128Y-7541357D01*
X23431128Y-7541356D01*
X23310052Y-7463546D01*
X23171961Y-7423000D01*
X23028039Y-7423000D01*
X22889947Y-7463546D01*
X22768871Y-7541357D01*
X22674623Y-7650126D01*
X22614834Y-7781045D01*
X22594352Y-7923500D01*
X22605447Y-8000667D01*
X22596172Y-8037005D01*
X22591594Y-8042288D01*
X22302788Y-8331094D01*
X22295364Y-8337187D01*
X22276376Y-8349874D01*
X22218165Y-8436993D01*
X22212072Y-8444417D01*
X22211537Y-8444951D01*
X22212584Y-8455586D01*
X22196320Y-8537348D01*
X22175485Y-8568530D01*
X22174755Y-8569008D01*
X22143873Y-8588855D01*
X22049623Y-8697626D01*
X21989834Y-8828545D01*
X21969352Y-8971000D01*
X13500500Y-8971000D01*
X13500500Y-6305181D01*
X13514852Y-6270533D01*
X13549500Y-6256181D01*
X13584148Y-6270533D01*
X13594071Y-6284825D01*
X13599574Y-6296874D01*
X13693823Y-6405644D01*
X13814898Y-6483454D01*
X13952990Y-6524001D01*
X14096912Y-6524001D01*
X14235004Y-6483454D01*
X14356079Y-6405644D01*
X14450328Y-6296874D01*
X14510116Y-6165958D01*
X14513272Y-6144009D01*
X14513485Y-6142527D01*
X14532621Y-6110274D01*
X14561986Y-6100500D01*
X14779088Y-6100500D01*
X14813736Y-6114852D01*
X14816120Y-6117412D01*
X14886760Y-6198935D01*
X14893872Y-6207143D01*
X15014947Y-6284953D01*
X15153039Y-6325500D01*
X15296961Y-6325500D01*
X15435053Y-6284953D01*
X15556128Y-6207143D01*
X15650377Y-6098373D01*
X15710165Y-5967457D01*
X15730647Y-5825000D01*
X15710165Y-5682543D01*
X15650377Y-5551627D01*
X15588821Y-5480588D01*
X15576979Y-5445005D01*
X15588821Y-5416414D01*
X15650377Y-5345376D01*
X15710165Y-5214460D01*
X15730647Y-5072003D01*
X15710165Y-4929546D01*
X15650377Y-4798630D01*
X15590768Y-4729838D01*
X15578926Y-4694255D01*
X15590768Y-4665664D01*
X15650377Y-4596873D01*
X15710165Y-4465957D01*
X15730647Y-4323500D01*
X15716090Y-4222252D01*
X15725364Y-4185914D01*
X15757617Y-4166778D01*
X15778395Y-4168263D01*
X15803039Y-4175500D01*
X15946961Y-4175500D01*
X16085053Y-4134953D01*
X16206128Y-4057143D01*
X16300377Y-3948373D01*
X16360165Y-3817457D01*
X16380647Y-3675000D01*
X16379412Y-3666413D01*
X16360165Y-3532545D01*
X16360165Y-3532543D01*
X16300377Y-3401627D01*
X16239254Y-3331087D01*
X16227412Y-3295504D01*
X16244199Y-3261968D01*
X16276287Y-3250000D01*
X24587965Y-3250000D01*
X24622613Y-3264352D01*
G37*
G04 #@! TD.AperFunction*
G04 #@! TA.AperFunction,Conductor*
G36*
X49514352Y-11014352D02*
G01*
X52235648Y-13735648D01*
X52250000Y-13770295D01*
X52250000Y-38451000D01*
X52235648Y-38485648D01*
X52201000Y-38500000D01*
X51180709Y-38500000D01*
X51177232Y-38499500D01*
X51171961Y-38499500D01*
X51028039Y-38499500D01*
X51022768Y-38499500D01*
X51019291Y-38500000D01*
X50555709Y-38500000D01*
X50552232Y-38499500D01*
X50546961Y-38499500D01*
X50403039Y-38499500D01*
X50397768Y-38499500D01*
X50394291Y-38500000D01*
X49905709Y-38500000D01*
X49902232Y-38499500D01*
X49896961Y-38499500D01*
X49753039Y-38499500D01*
X49747768Y-38499500D01*
X49744291Y-38500000D01*
X46525000Y-38500000D01*
X46264352Y-38760648D01*
X46229704Y-38775000D01*
X43924000Y-38775000D01*
X43889352Y-38760648D01*
X43875000Y-38726000D01*
X43875000Y-37524500D01*
X43889352Y-37489852D01*
X43924000Y-37475500D01*
X44071961Y-37475500D01*
X44210053Y-37434953D01*
X44213437Y-37432777D01*
X44239928Y-37425000D01*
X44410072Y-37425000D01*
X44436562Y-37432777D01*
X44439947Y-37434953D01*
X44578039Y-37475500D01*
X44721961Y-37475500D01*
X44860053Y-37434953D01*
X44863437Y-37432777D01*
X44889928Y-37425000D01*
X45099999Y-37425000D01*
X45100000Y-37425000D01*
X45500000Y-37025000D01*
X45500000Y-36584857D01*
X45504427Y-36564504D01*
X45560165Y-36442457D01*
X45580647Y-36300000D01*
X45560165Y-36157543D01*
X45504427Y-36035496D01*
X45500000Y-36015142D01*
X45500000Y-35959857D01*
X45504427Y-35939504D01*
X45560165Y-35817457D01*
X45580647Y-35675000D01*
X45560165Y-35532543D01*
X45504427Y-35410496D01*
X45500000Y-35390142D01*
X45500000Y-33399999D01*
X47569352Y-33399999D01*
X47574001Y-33432326D01*
X47574001Y-33432331D01*
X47576800Y-33451803D01*
X47577174Y-33455278D01*
X47580909Y-33507484D01*
X47585410Y-33519553D01*
X47588000Y-33529698D01*
X47589835Y-33542456D01*
X47611571Y-33590053D01*
X47612909Y-33593284D01*
X47631202Y-33642329D01*
X47638927Y-33652648D01*
X47644271Y-33661655D01*
X47649622Y-33673372D01*
X47683885Y-33712914D01*
X47686078Y-33715635D01*
X47695780Y-33728594D01*
X47707211Y-33740025D01*
X47709595Y-33742585D01*
X47743872Y-33782143D01*
X47749404Y-33785698D01*
X47754713Y-33789110D01*
X47762870Y-33795684D01*
X48104316Y-34137130D01*
X48110888Y-34145285D01*
X48117855Y-34156126D01*
X48157412Y-34190402D01*
X48159973Y-34192787D01*
X48171403Y-34204218D01*
X48171406Y-34204220D01*
X48171407Y-34204221D01*
X48184367Y-34213922D01*
X48187070Y-34216101D01*
X48226625Y-34250375D01*
X48226627Y-34250377D01*
X48238340Y-34255726D01*
X48247349Y-34261071D01*
X48251183Y-34263941D01*
X48257669Y-34268796D01*
X48306708Y-34287086D01*
X48309932Y-34288421D01*
X48357543Y-34310165D01*
X48370300Y-34311999D01*
X48380442Y-34314587D01*
X48392517Y-34319091D01*
X48444715Y-34322824D01*
X48448188Y-34323197D01*
X48464201Y-34325500D01*
X48480372Y-34325500D01*
X48483868Y-34325625D01*
X48536072Y-34329359D01*
X48536072Y-34329358D01*
X48536073Y-34329359D01*
X48548664Y-34326619D01*
X48559080Y-34325500D01*
X48746961Y-34325500D01*
X48778298Y-34316298D01*
X48785129Y-34314813D01*
X48799491Y-34312748D01*
X48817457Y-34310165D01*
X48847168Y-34296595D01*
X48853711Y-34294155D01*
X48885053Y-34284953D01*
X48912538Y-34267288D01*
X48918649Y-34263951D01*
X48948373Y-34250377D01*
X48973062Y-34228982D01*
X48978636Y-34224809D01*
X49006128Y-34207143D01*
X49027526Y-34182447D01*
X49032447Y-34177526D01*
X49057143Y-34156128D01*
X49074809Y-34128636D01*
X49078982Y-34123062D01*
X49100377Y-34098373D01*
X49113951Y-34068649D01*
X49117288Y-34062538D01*
X49134953Y-34035053D01*
X49144155Y-34003711D01*
X49146596Y-33997167D01*
X49160165Y-33967457D01*
X49164812Y-33935129D01*
X49166299Y-33928296D01*
X49175500Y-33896961D01*
X49175500Y-33864300D01*
X49175999Y-33857326D01*
X49180647Y-33824999D01*
X49175999Y-33792672D01*
X49175500Y-33785698D01*
X49175500Y-33039300D01*
X49175999Y-33032326D01*
X49180647Y-32999999D01*
X49175999Y-32967672D01*
X49175500Y-32960698D01*
X49175500Y-32214300D01*
X49175999Y-32207326D01*
X49178080Y-32192857D01*
X49180647Y-32175000D01*
X49175998Y-32142671D01*
X49175500Y-32135698D01*
X49175500Y-32103040D01*
X49175500Y-32103039D01*
X49166294Y-32071689D01*
X49164814Y-32064885D01*
X49160165Y-32032543D01*
X49146594Y-32002828D01*
X49144154Y-31996287D01*
X49134953Y-31964947D01*
X49117293Y-31937467D01*
X49113943Y-31931332D01*
X49100377Y-31901627D01*
X49100375Y-31901625D01*
X49100375Y-31901624D01*
X49078992Y-31876947D01*
X49074801Y-31871349D01*
X49057143Y-31843872D01*
X49032459Y-31822483D01*
X49027519Y-31817543D01*
X49006128Y-31792857D01*
X48978647Y-31775196D01*
X48973051Y-31771007D01*
X48948373Y-31749623D01*
X48948371Y-31749622D01*
X48918664Y-31736054D01*
X48912531Y-31732705D01*
X48885054Y-31715047D01*
X48853714Y-31705845D01*
X48847165Y-31703402D01*
X48841878Y-31700987D01*
X48817457Y-31689835D01*
X48799488Y-31687251D01*
X48785129Y-31685186D01*
X48778301Y-31683701D01*
X48746961Y-31674500D01*
X48710799Y-31674500D01*
X48534076Y-31674500D01*
X48523659Y-31673380D01*
X48511072Y-31670641D01*
X48462758Y-31674097D01*
X48458875Y-31674375D01*
X48455382Y-31674500D01*
X48439198Y-31674500D01*
X48423190Y-31676801D01*
X48419714Y-31677175D01*
X48367516Y-31680908D01*
X48355446Y-31685410D01*
X48345301Y-31688000D01*
X48336195Y-31689309D01*
X48332543Y-31689835D01*
X48308232Y-31700936D01*
X48284930Y-31711578D01*
X48281701Y-31712915D01*
X48232667Y-31731204D01*
X48222351Y-31738927D01*
X48213347Y-31744270D01*
X48201627Y-31749623D01*
X48162074Y-31783895D01*
X48159350Y-31786090D01*
X48146406Y-31795779D01*
X48134957Y-31807227D01*
X48132399Y-31809608D01*
X48092855Y-31843872D01*
X48085889Y-31854712D01*
X48079317Y-31862867D01*
X47762867Y-32179317D01*
X47754712Y-32185889D01*
X47743872Y-32192855D01*
X47709608Y-32232399D01*
X47707228Y-32234955D01*
X47695783Y-32246401D01*
X47686079Y-32259363D01*
X47683888Y-32262081D01*
X47649621Y-32301629D01*
X47644269Y-32313346D01*
X47638928Y-32322348D01*
X47631203Y-32332668D01*
X47612914Y-32381703D01*
X47611577Y-32384933D01*
X47589835Y-32432544D01*
X47588000Y-32445300D01*
X47585411Y-32455444D01*
X47580908Y-32467518D01*
X47577174Y-32519718D01*
X47576800Y-32523195D01*
X47569352Y-32574998D01*
X47571186Y-32587750D01*
X47571560Y-32598220D01*
X47570640Y-32611072D01*
X47573380Y-32623663D01*
X47574500Y-32634080D01*
X47574500Y-33340920D01*
X47573380Y-33351336D01*
X47570640Y-33363927D01*
X47571560Y-33376779D01*
X47571186Y-33387248D01*
X47569352Y-33399999D01*
X45500000Y-33399999D01*
X45500000Y-29650000D01*
X47569352Y-29650000D01*
X47576800Y-29701804D01*
X47577174Y-29705280D01*
X47580909Y-29757484D01*
X47585410Y-29769553D01*
X47588000Y-29779698D01*
X47589835Y-29792456D01*
X47611571Y-29840053D01*
X47612909Y-29843284D01*
X47631202Y-29892329D01*
X47638927Y-29902648D01*
X47644271Y-29911655D01*
X47649622Y-29923372D01*
X47683885Y-29962914D01*
X47686078Y-29965635D01*
X47695780Y-29978594D01*
X47707211Y-29990025D01*
X47709595Y-29992585D01*
X47743872Y-30032143D01*
X47749404Y-30035698D01*
X47754713Y-30039110D01*
X47762870Y-30045684D01*
X48104316Y-30387130D01*
X48110888Y-30395285D01*
X48117855Y-30406126D01*
X48157412Y-30440402D01*
X48159973Y-30442787D01*
X48171403Y-30454218D01*
X48171406Y-30454220D01*
X48171407Y-30454221D01*
X48184367Y-30463922D01*
X48187070Y-30466101D01*
X48226625Y-30500375D01*
X48226627Y-30500377D01*
X48238340Y-30505726D01*
X48247349Y-30511071D01*
X48251183Y-30513941D01*
X48257669Y-30518796D01*
X48306708Y-30537086D01*
X48309932Y-30538421D01*
X48357543Y-30560165D01*
X48370300Y-30561999D01*
X48380442Y-30564587D01*
X48392517Y-30569091D01*
X48444715Y-30572824D01*
X48448188Y-30573197D01*
X48464201Y-30575500D01*
X48480372Y-30575500D01*
X48483868Y-30575625D01*
X48536072Y-30579359D01*
X48536072Y-30579358D01*
X48536073Y-30579359D01*
X48548664Y-30576619D01*
X48559080Y-30575500D01*
X48746961Y-30575500D01*
X48778298Y-30566298D01*
X48785129Y-30564813D01*
X48799491Y-30562748D01*
X48817457Y-30560165D01*
X48847168Y-30546595D01*
X48853711Y-30544155D01*
X48885053Y-30534953D01*
X48912538Y-30517288D01*
X48918649Y-30513951D01*
X48948373Y-30500377D01*
X48973062Y-30478982D01*
X48978636Y-30474809D01*
X49006128Y-30457143D01*
X49027526Y-30432447D01*
X49032447Y-30427526D01*
X49057143Y-30406128D01*
X49074809Y-30378636D01*
X49078982Y-30373062D01*
X49100377Y-30348373D01*
X49113951Y-30318649D01*
X49117288Y-30312538D01*
X49134953Y-30285053D01*
X49144155Y-30253711D01*
X49146596Y-30247167D01*
X49160164Y-30217459D01*
X49160163Y-30217459D01*
X49160165Y-30217457D01*
X49164813Y-30185115D01*
X49166294Y-30178309D01*
X49175500Y-30146961D01*
X49175500Y-30114300D01*
X49175999Y-30107326D01*
X49180647Y-30074999D01*
X49175999Y-30042672D01*
X49175500Y-30035698D01*
X49175500Y-29289300D01*
X49175999Y-29282326D01*
X49180647Y-29249999D01*
X49175999Y-29217672D01*
X49175500Y-29210698D01*
X49175500Y-28464300D01*
X49175999Y-28457326D01*
X49178080Y-28442857D01*
X49180647Y-28425000D01*
X49175998Y-28392671D01*
X49175500Y-28385698D01*
X49175500Y-28353040D01*
X49171338Y-28338867D01*
X49166294Y-28321689D01*
X49164814Y-28314885D01*
X49160165Y-28282543D01*
X49146594Y-28252828D01*
X49144154Y-28246287D01*
X49134953Y-28214947D01*
X49117293Y-28187467D01*
X49113943Y-28181332D01*
X49100377Y-28151627D01*
X49100375Y-28151625D01*
X49100375Y-28151624D01*
X49078992Y-28126947D01*
X49074801Y-28121349D01*
X49057143Y-28093872D01*
X49032459Y-28072483D01*
X49027519Y-28067543D01*
X49006128Y-28042857D01*
X48978647Y-28025196D01*
X48973051Y-28021007D01*
X48948373Y-27999623D01*
X48948371Y-27999622D01*
X48918664Y-27986054D01*
X48912531Y-27982705D01*
X48885054Y-27965047D01*
X48853714Y-27955845D01*
X48847165Y-27953402D01*
X48841878Y-27950987D01*
X48817457Y-27939835D01*
X48799488Y-27937251D01*
X48785129Y-27935186D01*
X48778301Y-27933701D01*
X48746961Y-27924500D01*
X48710799Y-27924500D01*
X48534076Y-27924500D01*
X48523659Y-27923380D01*
X48511072Y-27920641D01*
X48462758Y-27924097D01*
X48458875Y-27924375D01*
X48455382Y-27924500D01*
X48439198Y-27924500D01*
X48423190Y-27926801D01*
X48419714Y-27927175D01*
X48367516Y-27930908D01*
X48355446Y-27935410D01*
X48345301Y-27938000D01*
X48336195Y-27939309D01*
X48332543Y-27939835D01*
X48308232Y-27950936D01*
X48284930Y-27961578D01*
X48281701Y-27962915D01*
X48232667Y-27981204D01*
X48222351Y-27988927D01*
X48213347Y-27994270D01*
X48201627Y-27999623D01*
X48162074Y-28033895D01*
X48159350Y-28036090D01*
X48146406Y-28045779D01*
X48134957Y-28057227D01*
X48132399Y-28059608D01*
X48092855Y-28093872D01*
X48085889Y-28104712D01*
X48079317Y-28112867D01*
X47762867Y-28429317D01*
X47754712Y-28435889D01*
X47743872Y-28442855D01*
X47709608Y-28482399D01*
X47707228Y-28484955D01*
X47695783Y-28496401D01*
X47686079Y-28509363D01*
X47683888Y-28512081D01*
X47649621Y-28551629D01*
X47644269Y-28563346D01*
X47638928Y-28572348D01*
X47631203Y-28582668D01*
X47612914Y-28631703D01*
X47611577Y-28634933D01*
X47589835Y-28682544D01*
X47588000Y-28695300D01*
X47585411Y-28705444D01*
X47580908Y-28717518D01*
X47577174Y-28769718D01*
X47576800Y-28773195D01*
X47569352Y-28824998D01*
X47571186Y-28837750D01*
X47571560Y-28848220D01*
X47570640Y-28861072D01*
X47573380Y-28873663D01*
X47574500Y-28884080D01*
X47574500Y-29590920D01*
X47573380Y-29601336D01*
X47570640Y-29613927D01*
X47571560Y-29626779D01*
X47571186Y-29637248D01*
X47569352Y-29650000D01*
X45500000Y-29650000D01*
X45500000Y-26603289D01*
X45504428Y-26582933D01*
X45557165Y-26467457D01*
X45577647Y-26325000D01*
X45557165Y-26182543D01*
X45557164Y-26182543D01*
X45504428Y-26067065D01*
X45500000Y-26046710D01*
X45500000Y-25953289D01*
X45504428Y-25932933D01*
X45557165Y-25817457D01*
X45577647Y-25675000D01*
X45557165Y-25532543D01*
X45524014Y-25459953D01*
X45504428Y-25417065D01*
X45500000Y-25396710D01*
X45500000Y-21584857D01*
X45504427Y-21564504D01*
X45560165Y-21442457D01*
X45580647Y-21300000D01*
X45560165Y-21157543D01*
X45504427Y-21035496D01*
X45500000Y-21015142D01*
X45500000Y-20934857D01*
X45504427Y-20914504D01*
X45560165Y-20792457D01*
X45580647Y-20650000D01*
X45576297Y-20619748D01*
X45560165Y-20507545D01*
X45560165Y-20507543D01*
X45504427Y-20385496D01*
X45500000Y-20365142D01*
X45500000Y-18399999D01*
X47569352Y-18399999D01*
X47574001Y-18432326D01*
X47574001Y-18432331D01*
X47576800Y-18451803D01*
X47577174Y-18455278D01*
X47580909Y-18507484D01*
X47585410Y-18519553D01*
X47588000Y-18529698D01*
X47589835Y-18542456D01*
X47611571Y-18590053D01*
X47612909Y-18593284D01*
X47631202Y-18642329D01*
X47638927Y-18652648D01*
X47644271Y-18661655D01*
X47649622Y-18673372D01*
X47683885Y-18712914D01*
X47686078Y-18715635D01*
X47695780Y-18728594D01*
X47707211Y-18740025D01*
X47709595Y-18742585D01*
X47743872Y-18782143D01*
X47749404Y-18785698D01*
X47754713Y-18789110D01*
X47762870Y-18795684D01*
X48104316Y-19137130D01*
X48110888Y-19145285D01*
X48117855Y-19156126D01*
X48157412Y-19190402D01*
X48159973Y-19192787D01*
X48171403Y-19204218D01*
X48171406Y-19204220D01*
X48171407Y-19204221D01*
X48184367Y-19213922D01*
X48187070Y-19216101D01*
X48226625Y-19250375D01*
X48226627Y-19250377D01*
X48238340Y-19255726D01*
X48247349Y-19261071D01*
X48251183Y-19263941D01*
X48257669Y-19268796D01*
X48306708Y-19287086D01*
X48309932Y-19288421D01*
X48357543Y-19310165D01*
X48370300Y-19311999D01*
X48380442Y-19314587D01*
X48392517Y-19319091D01*
X48444715Y-19322824D01*
X48448188Y-19323197D01*
X48464201Y-19325500D01*
X48480372Y-19325500D01*
X48483868Y-19325625D01*
X48536072Y-19329359D01*
X48536072Y-19329358D01*
X48536073Y-19329359D01*
X48548664Y-19326619D01*
X48559080Y-19325500D01*
X48746961Y-19325500D01*
X48778298Y-19316298D01*
X48785129Y-19314813D01*
X48799491Y-19312748D01*
X48817457Y-19310165D01*
X48847168Y-19296595D01*
X48853711Y-19294155D01*
X48885053Y-19284953D01*
X48912538Y-19267288D01*
X48918649Y-19263951D01*
X48948373Y-19250377D01*
X48973062Y-19228982D01*
X48978636Y-19224809D01*
X49006128Y-19207143D01*
X49027526Y-19182447D01*
X49032447Y-19177526D01*
X49057143Y-19156128D01*
X49074809Y-19128636D01*
X49078982Y-19123062D01*
X49100377Y-19098373D01*
X49113951Y-19068649D01*
X49117288Y-19062538D01*
X49134953Y-19035053D01*
X49144155Y-19003711D01*
X49146596Y-18997167D01*
X49160164Y-18967459D01*
X49160163Y-18967459D01*
X49160165Y-18967457D01*
X49164813Y-18935115D01*
X49166294Y-18928309D01*
X49175500Y-18896961D01*
X49175500Y-18864300D01*
X49175999Y-18857326D01*
X49180647Y-18824999D01*
X49175999Y-18792672D01*
X49175500Y-18785698D01*
X49175500Y-18039300D01*
X49175999Y-18032326D01*
X49180647Y-17999999D01*
X49175999Y-17967672D01*
X49175500Y-17960698D01*
X49175500Y-17214300D01*
X49175999Y-17207326D01*
X49178080Y-17192857D01*
X49180647Y-17175000D01*
X49175998Y-17142671D01*
X49175500Y-17135698D01*
X49175500Y-17103040D01*
X49175500Y-17103039D01*
X49166294Y-17071689D01*
X49164814Y-17064885D01*
X49160165Y-17032543D01*
X49146594Y-17002828D01*
X49144154Y-16996287D01*
X49134953Y-16964947D01*
X49117293Y-16937467D01*
X49113943Y-16931332D01*
X49100377Y-16901627D01*
X49100375Y-16901625D01*
X49100375Y-16901624D01*
X49078992Y-16876947D01*
X49074801Y-16871349D01*
X49057143Y-16843872D01*
X49032459Y-16822483D01*
X49027519Y-16817543D01*
X49006128Y-16792857D01*
X48978647Y-16775196D01*
X48973051Y-16771007D01*
X48948373Y-16749623D01*
X48948371Y-16749622D01*
X48918664Y-16736054D01*
X48912531Y-16732705D01*
X48885054Y-16715047D01*
X48853714Y-16705845D01*
X48847165Y-16703402D01*
X48841878Y-16700987D01*
X48817457Y-16689835D01*
X48799488Y-16687251D01*
X48785129Y-16685186D01*
X48778301Y-16683701D01*
X48746961Y-16674500D01*
X48710799Y-16674500D01*
X48534076Y-16674500D01*
X48523659Y-16673380D01*
X48511072Y-16670641D01*
X48462758Y-16674097D01*
X48458875Y-16674375D01*
X48455382Y-16674500D01*
X48439198Y-16674500D01*
X48423190Y-16676801D01*
X48419714Y-16677175D01*
X48367516Y-16680908D01*
X48355446Y-16685410D01*
X48345301Y-16688000D01*
X48336195Y-16689309D01*
X48332543Y-16689835D01*
X48308232Y-16700936D01*
X48284930Y-16711578D01*
X48281701Y-16712915D01*
X48232667Y-16731204D01*
X48222351Y-16738927D01*
X48213347Y-16744270D01*
X48201627Y-16749623D01*
X48162074Y-16783895D01*
X48159350Y-16786090D01*
X48146406Y-16795779D01*
X48134957Y-16807227D01*
X48132399Y-16809608D01*
X48092855Y-16843872D01*
X48085889Y-16854712D01*
X48079317Y-16862867D01*
X47762867Y-17179317D01*
X47754712Y-17185889D01*
X47743872Y-17192855D01*
X47709608Y-17232399D01*
X47707228Y-17234955D01*
X47695783Y-17246401D01*
X47686079Y-17259363D01*
X47683888Y-17262081D01*
X47649621Y-17301629D01*
X47644269Y-17313346D01*
X47638928Y-17322348D01*
X47631203Y-17332668D01*
X47612914Y-17381703D01*
X47611577Y-17384933D01*
X47589835Y-17432544D01*
X47588000Y-17445300D01*
X47585411Y-17455444D01*
X47580908Y-17467518D01*
X47577174Y-17519718D01*
X47576800Y-17523195D01*
X47569352Y-17574998D01*
X47571186Y-17587750D01*
X47571560Y-17598220D01*
X47570640Y-17611072D01*
X47573380Y-17623663D01*
X47574500Y-17634080D01*
X47574500Y-18340920D01*
X47573380Y-18351336D01*
X47570640Y-18363927D01*
X47571560Y-18376779D01*
X47571186Y-18387248D01*
X47569352Y-18399999D01*
X45500000Y-18399999D01*
X45500000Y-11049000D01*
X45514352Y-11014352D01*
X45549000Y-11000000D01*
X49479704Y-11000000D01*
X49514352Y-11014352D01*
G37*
G04 #@! TD.AperFunction*
G04 #@! TA.AperFunction,Conductor*
G36*
X59885148Y-114852D02*
G01*
X59899500Y-149500D01*
X59899500Y-39850500D01*
X59885148Y-39885148D01*
X59850500Y-39899500D01*
X149500Y-39899500D01*
X114852Y-39885148D01*
X100500Y-39850500D01*
X100500Y-37001541D01*
X595352Y-37001541D01*
X614120Y-37299852D01*
X614506Y-37302909D01*
X670515Y-37596525D01*
X671278Y-37599496D01*
X763652Y-37883792D01*
X764775Y-37886627D01*
X892050Y-38157101D01*
X893533Y-38159799D01*
X1041444Y-38392869D01*
X1694695Y-37739617D01*
X1739946Y-37823234D01*
X1892632Y-38019404D01*
X2075523Y-38187768D01*
X2258422Y-38307261D01*
X1609430Y-38956253D01*
X1710227Y-39029488D01*
X1712824Y-39031136D01*
X1974754Y-39175133D01*
X1977546Y-39176447D01*
X2255467Y-39286483D01*
X2258373Y-39287428D01*
X2547914Y-39361769D01*
X2550915Y-39362341D01*
X2847489Y-39399808D01*
X2850536Y-39400000D01*
X3149464Y-39400000D01*
X3152510Y-39399808D01*
X3449084Y-39362341D01*
X3452085Y-39361769D01*
X3741626Y-39287428D01*
X3744532Y-39286483D01*
X4022453Y-39176447D01*
X4025245Y-39175133D01*
X4287175Y-39031136D01*
X4289772Y-39029488D01*
X4390568Y-38956253D01*
X4160317Y-38726002D01*
X43669500Y-38726002D01*
X43685141Y-38804639D01*
X43685143Y-38804643D01*
X43699495Y-38839291D01*
X43736121Y-38897581D01*
X43810706Y-38950504D01*
X43828033Y-38957681D01*
X43845357Y-38964857D01*
X43845358Y-38964857D01*
X43845360Y-38964858D01*
X43923997Y-38980500D01*
X43924000Y-38980500D01*
X46229707Y-38980500D01*
X46308343Y-38964858D01*
X46308343Y-38964857D01*
X46308347Y-38964857D01*
X46342995Y-38950505D01*
X46409662Y-38905958D01*
X46595768Y-38719852D01*
X46630416Y-38705500D01*
X49743407Y-38705500D01*
X49744291Y-38705500D01*
X49749534Y-38705124D01*
X49753030Y-38705000D01*
X49896970Y-38705000D01*
X49900465Y-38705124D01*
X49905709Y-38705500D01*
X49906593Y-38705500D01*
X50393407Y-38705500D01*
X50394291Y-38705500D01*
X50399534Y-38705124D01*
X50403030Y-38705000D01*
X50546970Y-38705000D01*
X50550465Y-38705124D01*
X50555709Y-38705500D01*
X50556593Y-38705500D01*
X51018407Y-38705500D01*
X51019291Y-38705500D01*
X51024534Y-38705124D01*
X51028030Y-38705000D01*
X51171970Y-38705000D01*
X51175465Y-38705124D01*
X51180709Y-38705500D01*
X51181593Y-38705500D01*
X52201003Y-38705500D01*
X52279639Y-38689858D01*
X52279639Y-38689857D01*
X52279643Y-38689857D01*
X52314291Y-38675505D01*
X52372581Y-38638879D01*
X52425505Y-38564291D01*
X52439857Y-38529643D01*
X52439858Y-38529639D01*
X52455500Y-38451002D01*
X52455500Y-37001541D01*
X54595352Y-37001541D01*
X54614120Y-37299852D01*
X54614506Y-37302909D01*
X54670515Y-37596525D01*
X54671278Y-37599496D01*
X54763652Y-37883792D01*
X54764775Y-37886627D01*
X54892050Y-38157101D01*
X54893533Y-38159799D01*
X55041444Y-38392869D01*
X55694695Y-37739617D01*
X55739946Y-37823234D01*
X55892632Y-38019404D01*
X56075523Y-38187768D01*
X56258422Y-38307261D01*
X55609430Y-38956253D01*
X55710227Y-39029488D01*
X55712824Y-39031136D01*
X55974754Y-39175133D01*
X55977546Y-39176447D01*
X56255467Y-39286483D01*
X56258373Y-39287428D01*
X56547914Y-39361769D01*
X56550915Y-39362341D01*
X56847489Y-39399808D01*
X56850536Y-39400000D01*
X57149464Y-39400000D01*
X57152510Y-39399808D01*
X57449084Y-39362341D01*
X57452085Y-39361769D01*
X57741626Y-39287428D01*
X57744532Y-39286483D01*
X58022453Y-39176447D01*
X58025245Y-39175133D01*
X58287175Y-39031136D01*
X58289772Y-39029488D01*
X58390568Y-38956253D01*
X57741577Y-38307262D01*
X57924477Y-38187768D01*
X58107368Y-38019404D01*
X58260054Y-37823234D01*
X58305303Y-37739618D01*
X58958554Y-38392869D01*
X59106474Y-38159787D01*
X59107945Y-38157111D01*
X59235224Y-37886627D01*
X59236347Y-37883792D01*
X59328721Y-37599496D01*
X59329484Y-37596525D01*
X59385493Y-37302909D01*
X59385879Y-37299852D01*
X59404648Y-37001541D01*
X59404648Y-36998458D01*
X59385879Y-36700147D01*
X59385493Y-36697090D01*
X59329484Y-36403474D01*
X59328721Y-36400503D01*
X59236347Y-36116207D01*
X59235224Y-36113372D01*
X59107949Y-35842898D01*
X59106466Y-35840200D01*
X58958554Y-35607129D01*
X58305303Y-36260380D01*
X58260054Y-36176766D01*
X58107368Y-35980596D01*
X57924477Y-35812232D01*
X57741575Y-35692737D01*
X58390568Y-35043745D01*
X58289772Y-34970511D01*
X58287175Y-34968863D01*
X58025245Y-34824866D01*
X58022453Y-34823552D01*
X57744532Y-34713516D01*
X57741626Y-34712571D01*
X57452085Y-34638230D01*
X57449084Y-34637658D01*
X57152510Y-34600191D01*
X57149464Y-34600000D01*
X56850536Y-34600000D01*
X56847489Y-34600191D01*
X56550915Y-34637658D01*
X56547914Y-34638230D01*
X56258373Y-34712571D01*
X56255467Y-34713516D01*
X55977546Y-34823552D01*
X55974754Y-34824866D01*
X55712825Y-34968863D01*
X55710223Y-34970514D01*
X55609429Y-35043744D01*
X56258422Y-35692737D01*
X56075523Y-35812232D01*
X55892632Y-35980596D01*
X55739946Y-36176766D01*
X55694696Y-36260381D01*
X55041443Y-35607128D01*
X55041443Y-35607129D01*
X54893534Y-35840200D01*
X54892050Y-35842898D01*
X54764775Y-36113372D01*
X54763652Y-36116207D01*
X54671278Y-36400503D01*
X54670515Y-36403474D01*
X54614506Y-36697090D01*
X54614120Y-36700147D01*
X54595352Y-36998458D01*
X54595352Y-37001541D01*
X52455500Y-37001541D01*
X52455500Y-30529266D01*
X53874500Y-30529266D01*
X53874604Y-30530376D01*
X53874605Y-30530395D01*
X53877354Y-30559699D01*
X53922207Y-30687883D01*
X54002849Y-30797150D01*
X54112116Y-30877792D01*
X54112117Y-30877792D01*
X54112118Y-30877793D01*
X54240301Y-30922646D01*
X54270734Y-30925500D01*
X54271870Y-30925500D01*
X55728130Y-30925500D01*
X55729266Y-30925500D01*
X55759699Y-30922646D01*
X55887882Y-30877793D01*
X55997150Y-30797150D01*
X56077793Y-30687882D01*
X56122646Y-30559699D01*
X56125500Y-30529266D01*
X56125500Y-29220734D01*
X56122646Y-29190301D01*
X56077793Y-29062118D01*
X56077792Y-29062116D01*
X55997150Y-28952849D01*
X55887883Y-28872207D01*
X55759699Y-28827354D01*
X55730395Y-28824605D01*
X55730376Y-28824604D01*
X55729266Y-28824500D01*
X54270734Y-28824500D01*
X54269624Y-28824604D01*
X54269604Y-28824605D01*
X54240300Y-28827354D01*
X54112116Y-28872207D01*
X54002849Y-28952849D01*
X53922207Y-29062116D01*
X53877354Y-29190300D01*
X53874605Y-29219604D01*
X53874604Y-29219624D01*
X53874500Y-29220734D01*
X53874500Y-30529266D01*
X52455500Y-30529266D01*
X52455500Y-27374999D01*
X53869417Y-27374999D01*
X53889699Y-27580934D01*
X53933401Y-27724999D01*
X53949768Y-27778954D01*
X54047315Y-27961450D01*
X54178590Y-28121410D01*
X54338550Y-28252685D01*
X54521046Y-28350232D01*
X54620055Y-28380265D01*
X54719065Y-28410300D01*
X54734062Y-28411777D01*
X54873392Y-28425500D01*
X54874596Y-28425500D01*
X55125404Y-28425500D01*
X55126608Y-28425500D01*
X55280934Y-28410300D01*
X55478954Y-28350232D01*
X55661450Y-28252685D01*
X55821410Y-28121410D01*
X55952685Y-27961450D01*
X56050232Y-27778954D01*
X56110300Y-27580934D01*
X56130583Y-27375000D01*
X56110300Y-27169066D01*
X56050232Y-26971046D01*
X55952685Y-26788550D01*
X55821410Y-26628590D01*
X55661450Y-26497315D01*
X55478954Y-26399768D01*
X55478953Y-26399767D01*
X55478952Y-26399767D01*
X55280934Y-26339699D01*
X55127806Y-26324618D01*
X55126608Y-26324500D01*
X54873392Y-26324500D01*
X54872194Y-26324617D01*
X54872193Y-26324618D01*
X54719065Y-26339699D01*
X54521047Y-26399767D01*
X54338550Y-26497315D01*
X54178590Y-26628590D01*
X54047315Y-26788550D01*
X53949767Y-26971047D01*
X53889699Y-27169065D01*
X53869417Y-27374999D01*
X52455500Y-27374999D01*
X52455500Y-24875000D01*
X53869417Y-24875000D01*
X53889699Y-25080934D01*
X53949767Y-25278952D01*
X53949768Y-25278954D01*
X54047315Y-25461450D01*
X54178590Y-25621410D01*
X54338550Y-25752685D01*
X54521046Y-25850232D01*
X54620055Y-25880265D01*
X54719065Y-25910300D01*
X54734062Y-25911777D01*
X54873392Y-25925500D01*
X54874596Y-25925500D01*
X55125404Y-25925500D01*
X55126608Y-25925500D01*
X55280934Y-25910300D01*
X55478954Y-25850232D01*
X55661450Y-25752685D01*
X55821410Y-25621410D01*
X55952685Y-25461450D01*
X56050232Y-25278954D01*
X56110300Y-25080934D01*
X56130583Y-24875000D01*
X56110300Y-24669066D01*
X56101634Y-24640499D01*
X56074030Y-24549500D01*
X56050232Y-24471046D01*
X55952685Y-24288550D01*
X55821410Y-24128590D01*
X55661450Y-23997315D01*
X55478954Y-23899768D01*
X55478953Y-23899767D01*
X55478952Y-23899767D01*
X55280934Y-23839699D01*
X55127806Y-23824618D01*
X55126608Y-23824500D01*
X54873392Y-23824500D01*
X54872194Y-23824617D01*
X54872193Y-23824618D01*
X54719065Y-23839699D01*
X54521047Y-23899767D01*
X54338550Y-23997315D01*
X54178590Y-24128590D01*
X54047315Y-24288550D01*
X53949767Y-24471047D01*
X53889699Y-24669065D01*
X53869417Y-24875000D01*
X52455500Y-24875000D01*
X52455500Y-13770293D01*
X52439856Y-13691652D01*
X52439856Y-13691650D01*
X52425504Y-13657003D01*
X52380958Y-13590338D01*
X51059225Y-12268605D01*
X49659663Y-10869042D01*
X49610942Y-10836487D01*
X49590106Y-10805304D01*
X49597423Y-10768522D01*
X49603512Y-10761102D01*
X50299763Y-10064852D01*
X50334412Y-10050500D01*
X50378968Y-10050500D01*
X50517060Y-10009953D01*
X50638135Y-9932143D01*
X50732384Y-9823373D01*
X50792172Y-9692457D01*
X50812654Y-9550000D01*
X50792172Y-9407543D01*
X50732384Y-9276627D01*
X50638135Y-9167857D01*
X50556355Y-9115300D01*
X50517059Y-9090046D01*
X50378968Y-9049500D01*
X50235046Y-9049500D01*
X50096954Y-9090046D01*
X49975878Y-9167857D01*
X49881630Y-9276626D01*
X49821841Y-9407545D01*
X49801359Y-9550000D01*
X49821841Y-9692456D01*
X49829994Y-9710309D01*
X49831332Y-9747788D01*
X49820070Y-9765312D01*
X48805236Y-10780148D01*
X48770588Y-10794500D01*
X45548997Y-10794500D01*
X45470360Y-10810141D01*
X45435709Y-10824495D01*
X45377418Y-10861121D01*
X45324495Y-10935706D01*
X45310141Y-10970360D01*
X45294500Y-11048997D01*
X45294500Y-11049000D01*
X45294500Y-18396165D01*
X45294500Y-20365142D01*
X45299195Y-20408817D01*
X45303622Y-20429171D01*
X45317498Y-20470865D01*
X45318039Y-20472050D01*
X45318040Y-20472052D01*
X45358036Y-20559629D01*
X45361965Y-20573012D01*
X45372031Y-20643026D01*
X45372031Y-20656973D01*
X45361964Y-20726989D01*
X45358035Y-20740370D01*
X45318044Y-20827938D01*
X45318039Y-20827948D01*
X45317498Y-20829135D01*
X45317088Y-20830366D01*
X45317084Y-20830377D01*
X45304034Y-20869588D01*
X45303622Y-20870827D01*
X45303343Y-20872106D01*
X45303343Y-20872109D01*
X45299474Y-20889895D01*
X45299472Y-20889904D01*
X45299195Y-20891180D01*
X45299055Y-20892477D01*
X45299054Y-20892487D01*
X45294641Y-20933541D01*
X45294500Y-20934857D01*
X45294500Y-21015142D01*
X45299195Y-21058817D01*
X45303622Y-21079171D01*
X45317498Y-21120865D01*
X45318041Y-21122054D01*
X45318043Y-21122059D01*
X45358035Y-21209630D01*
X45361964Y-21223011D01*
X45372031Y-21293025D01*
X45372031Y-21306973D01*
X45361964Y-21376989D01*
X45358035Y-21390370D01*
X45318044Y-21477938D01*
X45318039Y-21477948D01*
X45317498Y-21479135D01*
X45317088Y-21480366D01*
X45317084Y-21480377D01*
X45304034Y-21519588D01*
X45303622Y-21520827D01*
X45303343Y-21522106D01*
X45303343Y-21522109D01*
X45299474Y-21539895D01*
X45299472Y-21539904D01*
X45299195Y-21541180D01*
X45299055Y-21542477D01*
X45299054Y-21542487D01*
X45294641Y-21583541D01*
X45294500Y-21584857D01*
X45294500Y-25396710D01*
X45294640Y-25398018D01*
X45294641Y-25398025D01*
X45299055Y-25439089D01*
X45299057Y-25439103D01*
X45299196Y-25440393D01*
X45303624Y-25460748D01*
X45304039Y-25461995D01*
X45304041Y-25462002D01*
X45317082Y-25501181D01*
X45317499Y-25502433D01*
X45318042Y-25503623D01*
X45318046Y-25503632D01*
X45355034Y-25584625D01*
X45358963Y-25598006D01*
X45369031Y-25668026D01*
X45369031Y-25681974D01*
X45358964Y-25751989D01*
X45355035Y-25765370D01*
X45318045Y-25846367D01*
X45318040Y-25846377D01*
X45317499Y-25847564D01*
X45317086Y-25848802D01*
X45317085Y-25848807D01*
X45305740Y-25882895D01*
X45303624Y-25889252D01*
X45303349Y-25890514D01*
X45303344Y-25890534D01*
X45299476Y-25908318D01*
X45299474Y-25908328D01*
X45299196Y-25909608D01*
X45299055Y-25910917D01*
X45299055Y-25910919D01*
X45294699Y-25951441D01*
X45294500Y-25953289D01*
X45294500Y-26046710D01*
X45294640Y-26048018D01*
X45294641Y-26048025D01*
X45299055Y-26089089D01*
X45299057Y-26089103D01*
X45299196Y-26090393D01*
X45303624Y-26110748D01*
X45304039Y-26111995D01*
X45304041Y-26112002D01*
X45311567Y-26134613D01*
X45317498Y-26152431D01*
X45318041Y-26153621D01*
X45318045Y-26153630D01*
X45355033Y-26234625D01*
X45358962Y-26248005D01*
X45369031Y-26318025D01*
X45369031Y-26331974D01*
X45358964Y-26401989D01*
X45355035Y-26415370D01*
X45318045Y-26496367D01*
X45318040Y-26496377D01*
X45317499Y-26497564D01*
X45303624Y-26539252D01*
X45303349Y-26540514D01*
X45303344Y-26540534D01*
X45299476Y-26558318D01*
X45299474Y-26558328D01*
X45299196Y-26559608D01*
X45294500Y-26603289D01*
X45294500Y-29646166D01*
X45294500Y-33396165D01*
X45294500Y-35390142D01*
X45299195Y-35433817D01*
X45303622Y-35454171D01*
X45317498Y-35495865D01*
X45318039Y-35497050D01*
X45318040Y-35497052D01*
X45358036Y-35584629D01*
X45361965Y-35598012D01*
X45372031Y-35668026D01*
X45372031Y-35681973D01*
X45361964Y-35751989D01*
X45358035Y-35765370D01*
X45318044Y-35852938D01*
X45318039Y-35852948D01*
X45317498Y-35854135D01*
X45317088Y-35855366D01*
X45317084Y-35855377D01*
X45304034Y-35894588D01*
X45303622Y-35895827D01*
X45303343Y-35897106D01*
X45303343Y-35897109D01*
X45299474Y-35914895D01*
X45299472Y-35914904D01*
X45299195Y-35916180D01*
X45299055Y-35917477D01*
X45299054Y-35917487D01*
X45294641Y-35958541D01*
X45294500Y-35959857D01*
X45294500Y-36015142D01*
X45299195Y-36058817D01*
X45303622Y-36079171D01*
X45304036Y-36080417D01*
X45304037Y-36080418D01*
X45315947Y-36116207D01*
X45317498Y-36120865D01*
X45318041Y-36122054D01*
X45318043Y-36122059D01*
X45358035Y-36209630D01*
X45361964Y-36223011D01*
X45372031Y-36293025D01*
X45372031Y-36306973D01*
X45361964Y-36376989D01*
X45358035Y-36390370D01*
X45318044Y-36477938D01*
X45318039Y-36477948D01*
X45317498Y-36479135D01*
X45317088Y-36480366D01*
X45317084Y-36480377D01*
X45304034Y-36519588D01*
X45303622Y-36520827D01*
X45303343Y-36522106D01*
X45303343Y-36522109D01*
X45299474Y-36539895D01*
X45299472Y-36539904D01*
X45299195Y-36541180D01*
X45299055Y-36542477D01*
X45299054Y-36542487D01*
X45294641Y-36583541D01*
X45294500Y-36584857D01*
X45294500Y-36586177D01*
X45294500Y-36919584D01*
X45280148Y-36954232D01*
X45029232Y-37205148D01*
X44994584Y-37219500D01*
X44889925Y-37219500D01*
X44832047Y-37227819D01*
X44805548Y-37235599D01*
X44801489Y-37237453D01*
X44794941Y-37239895D01*
X44699175Y-37268015D01*
X44685370Y-37270000D01*
X44614630Y-37270000D01*
X44600825Y-37268015D01*
X44505057Y-37239895D01*
X44498510Y-37237453D01*
X44494450Y-37235599D01*
X44494447Y-37235598D01*
X44467959Y-37227821D01*
X44410075Y-37219500D01*
X44410072Y-37219500D01*
X44239928Y-37219500D01*
X44239925Y-37219500D01*
X44182047Y-37227819D01*
X44155548Y-37235599D01*
X44151489Y-37237453D01*
X44144941Y-37239895D01*
X44049175Y-37268015D01*
X44035370Y-37270000D01*
X43923997Y-37270000D01*
X43845360Y-37285641D01*
X43810709Y-37299995D01*
X43752418Y-37336621D01*
X43699495Y-37411206D01*
X43685141Y-37445860D01*
X43669500Y-37524497D01*
X43669500Y-38726002D01*
X4160317Y-38726002D01*
X3741577Y-38307262D01*
X3924477Y-38187768D01*
X4107368Y-38019404D01*
X4260054Y-37823234D01*
X4305303Y-37739618D01*
X4958554Y-38392869D01*
X5106474Y-38159787D01*
X5107945Y-38157111D01*
X5235224Y-37886627D01*
X5236347Y-37883792D01*
X5328721Y-37599496D01*
X5329484Y-37596525D01*
X5385493Y-37302909D01*
X5385879Y-37299852D01*
X5404648Y-37001541D01*
X5404648Y-36998458D01*
X5385879Y-36700147D01*
X5385493Y-36697090D01*
X5329484Y-36403474D01*
X5328721Y-36400503D01*
X5236347Y-36116207D01*
X5235224Y-36113372D01*
X5107949Y-35842898D01*
X5106466Y-35840200D01*
X4958554Y-35607129D01*
X4305303Y-36260380D01*
X4260054Y-36176766D01*
X4107368Y-35980596D01*
X3924477Y-35812232D01*
X3741575Y-35692737D01*
X4038772Y-35395540D01*
X41794352Y-35395540D01*
X41814834Y-35537994D01*
X41814834Y-35537995D01*
X41814835Y-35537997D01*
X41874623Y-35668913D01*
X41968872Y-35777683D01*
X42089947Y-35855493D01*
X42228039Y-35896040D01*
X42371961Y-35896040D01*
X42510053Y-35855493D01*
X42631128Y-35777683D01*
X42725377Y-35668913D01*
X42785165Y-35537997D01*
X42805647Y-35395540D01*
X42785165Y-35253083D01*
X42725377Y-35122167D01*
X42631128Y-35013397D01*
X42598008Y-34992112D01*
X42576620Y-34961306D01*
X42575500Y-34950891D01*
X42575500Y-33719648D01*
X42589852Y-33685000D01*
X42598010Y-33678426D01*
X42631128Y-33657143D01*
X42725377Y-33548373D01*
X42785165Y-33417457D01*
X42805647Y-33275000D01*
X42785165Y-33132543D01*
X42725377Y-33001627D01*
X42631128Y-32892857D01*
X42631128Y-32892856D01*
X42510052Y-32815046D01*
X42371961Y-32774500D01*
X42228039Y-32774500D01*
X42089947Y-32815046D01*
X41968871Y-32892857D01*
X41874623Y-33001626D01*
X41814834Y-33132545D01*
X41794352Y-33275000D01*
X41814834Y-33417454D01*
X41874623Y-33548373D01*
X41968872Y-33657143D01*
X42001990Y-33678426D01*
X42023380Y-33709231D01*
X42024500Y-33719648D01*
X42024500Y-34950891D01*
X42010148Y-34985539D01*
X42001992Y-34992112D01*
X41968872Y-35013397D01*
X41874623Y-35122166D01*
X41814834Y-35253085D01*
X41794352Y-35395540D01*
X4038772Y-35395540D01*
X4390568Y-35043745D01*
X4289772Y-34970511D01*
X4287175Y-34968863D01*
X4025245Y-34824866D01*
X4022453Y-34823552D01*
X3744532Y-34713516D01*
X3741626Y-34712571D01*
X3452085Y-34638230D01*
X3449084Y-34637658D01*
X3152510Y-34600191D01*
X3149464Y-34600000D01*
X2850536Y-34600000D01*
X2847489Y-34600191D01*
X2550915Y-34637658D01*
X2547914Y-34638230D01*
X2258373Y-34712571D01*
X2255467Y-34713516D01*
X1977546Y-34823552D01*
X1974754Y-34824866D01*
X1712825Y-34968863D01*
X1710223Y-34970514D01*
X1609429Y-35043744D01*
X2258422Y-35692737D01*
X2075523Y-35812232D01*
X1892632Y-35980596D01*
X1739946Y-36176766D01*
X1694696Y-36260381D01*
X1041443Y-35607128D01*
X1041443Y-35607129D01*
X893534Y-35840200D01*
X892050Y-35842898D01*
X764775Y-36113372D01*
X763652Y-36116207D01*
X671278Y-36400503D01*
X670515Y-36403474D01*
X614506Y-36697090D01*
X614120Y-36700147D01*
X595352Y-36998458D01*
X595352Y-37001541D01*
X100500Y-37001541D01*
X100500Y-30225000D01*
X3869417Y-30225000D01*
X3889699Y-30430934D01*
X3933401Y-30575000D01*
X3949768Y-30628954D01*
X4047315Y-30811450D01*
X4178590Y-30971410D01*
X4338550Y-31102685D01*
X4521046Y-31200232D01*
X4620056Y-31230265D01*
X4719065Y-31260300D01*
X4734062Y-31261777D01*
X4873392Y-31275500D01*
X4874596Y-31275500D01*
X5125404Y-31275500D01*
X5126608Y-31275500D01*
X5280934Y-31260300D01*
X5478954Y-31200232D01*
X5661450Y-31102685D01*
X5821410Y-30971410D01*
X5952685Y-30811450D01*
X6050232Y-30628954D01*
X6110300Y-30430934D01*
X6130583Y-30225000D01*
X6110300Y-30019066D01*
X6050232Y-29821046D01*
X5952685Y-29638550D01*
X5821410Y-29478590D01*
X5661450Y-29347315D01*
X5478954Y-29249768D01*
X5478953Y-29249767D01*
X5478952Y-29249767D01*
X5280934Y-29189699D01*
X5127806Y-29174618D01*
X5126608Y-29174500D01*
X4873392Y-29174500D01*
X4872194Y-29174617D01*
X4872193Y-29174618D01*
X4719065Y-29189699D01*
X4521047Y-29249767D01*
X4338550Y-29347315D01*
X4178590Y-29478590D01*
X4047315Y-29638550D01*
X3949767Y-29821047D01*
X3889699Y-30019065D01*
X3869417Y-30225000D01*
X100500Y-30225000D01*
X100500Y-27725000D01*
X3869417Y-27725000D01*
X3889699Y-27930934D01*
X3949767Y-28128952D01*
X3949768Y-28128954D01*
X4047315Y-28311450D01*
X4178590Y-28471410D01*
X4338550Y-28602685D01*
X4521046Y-28700232D01*
X4620056Y-28730265D01*
X4719065Y-28760300D01*
X4734062Y-28761777D01*
X4873392Y-28775500D01*
X4874596Y-28775500D01*
X5125404Y-28775500D01*
X5126608Y-28775500D01*
X5280934Y-28760300D01*
X5478954Y-28700232D01*
X5661450Y-28602685D01*
X5821410Y-28471410D01*
X5952685Y-28311450D01*
X6050232Y-28128954D01*
X6110300Y-27930934D01*
X6130583Y-27725000D01*
X6110300Y-27519066D01*
X6050232Y-27321046D01*
X5952685Y-27138550D01*
X5821410Y-26978590D01*
X5661450Y-26847315D01*
X5478954Y-26749768D01*
X5478953Y-26749767D01*
X5478952Y-26749767D01*
X5280934Y-26689699D01*
X5127806Y-26674618D01*
X5126608Y-26674500D01*
X4873392Y-26674500D01*
X4872194Y-26674617D01*
X4872193Y-26674618D01*
X4719065Y-26689699D01*
X4521047Y-26749767D01*
X4338550Y-26847315D01*
X4178590Y-26978590D01*
X4047315Y-27138550D01*
X3949767Y-27321047D01*
X3889699Y-27519065D01*
X3869417Y-27725000D01*
X100500Y-27725000D01*
X100500Y-25625000D01*
X4060084Y-25625000D01*
X4067687Y-25645531D01*
X4169890Y-25809500D01*
X4303005Y-25949538D01*
X4461584Y-26059912D01*
X4600000Y-26119310D01*
X4600000Y-25625000D01*
X5400000Y-25625000D01*
X5400000Y-26118691D01*
X5451570Y-26102511D01*
X5620504Y-26008745D01*
X5767103Y-25882895D01*
X5885368Y-25730109D01*
X5936927Y-25625000D01*
X5400000Y-25625000D01*
X4600000Y-25625000D01*
X4060084Y-25625000D01*
X100500Y-25625000D01*
X100500Y-25256395D01*
X4621114Y-25256395D01*
X4651837Y-25377719D01*
X4720289Y-25482492D01*
X4819052Y-25559363D01*
X4937424Y-25600000D01*
X5031073Y-25600000D01*
X5123446Y-25584586D01*
X5233514Y-25525019D01*
X5318278Y-25432941D01*
X5368551Y-25318330D01*
X5378886Y-25193605D01*
X5348163Y-25072281D01*
X5279711Y-24967508D01*
X5180948Y-24890637D01*
X5062576Y-24850000D01*
X4968927Y-24850000D01*
X4876554Y-24865414D01*
X4766486Y-24924981D01*
X4681722Y-25017059D01*
X4631449Y-25131670D01*
X4621114Y-25256395D01*
X100500Y-25256395D01*
X100500Y-24825000D01*
X4063073Y-24825000D01*
X4600000Y-24825000D01*
X4600000Y-24331307D01*
X4548429Y-24347488D01*
X4379495Y-24441254D01*
X4232896Y-24567104D01*
X4114631Y-24719890D01*
X4063073Y-24825000D01*
X100500Y-24825000D01*
X100500Y-24330688D01*
X5400000Y-24330688D01*
X5400000Y-24825000D01*
X5939916Y-24825000D01*
X5932312Y-24804468D01*
X5830109Y-24640499D01*
X5696994Y-24500461D01*
X5538417Y-24390088D01*
X5400000Y-24330688D01*
X100500Y-24330688D01*
X100500Y-23379266D01*
X3874500Y-23379266D01*
X3874604Y-23380376D01*
X3874605Y-23380395D01*
X3877354Y-23409699D01*
X3922207Y-23537883D01*
X4002849Y-23647150D01*
X4112116Y-23727792D01*
X4112117Y-23727792D01*
X4112118Y-23727793D01*
X4240301Y-23772646D01*
X4270734Y-23775500D01*
X4271870Y-23775500D01*
X5728130Y-23775500D01*
X5729266Y-23775500D01*
X5759699Y-23772646D01*
X5887882Y-23727793D01*
X5997150Y-23647150D01*
X6077793Y-23537882D01*
X6122646Y-23409699D01*
X6125500Y-23379266D01*
X6125500Y-22070734D01*
X6122646Y-22040301D01*
X6077793Y-21912118D01*
X6077792Y-21912116D01*
X5997150Y-21802849D01*
X5887883Y-21722207D01*
X5759699Y-21677354D01*
X5730395Y-21674605D01*
X5730376Y-21674604D01*
X5729266Y-21674500D01*
X4270734Y-21674500D01*
X4269624Y-21674604D01*
X4269604Y-21674605D01*
X4240300Y-21677354D01*
X4112116Y-21722207D01*
X4002849Y-21802849D01*
X3922207Y-21912116D01*
X3877354Y-22040300D01*
X3874605Y-22069604D01*
X3874604Y-22069624D01*
X3874500Y-22070734D01*
X3874500Y-23379266D01*
X100500Y-23379266D01*
X100500Y-17300000D01*
X3869417Y-17300000D01*
X3889699Y-17505934D01*
X3949767Y-17703952D01*
X3949768Y-17703954D01*
X4047315Y-17886450D01*
X4178590Y-18046410D01*
X4338550Y-18177685D01*
X4521046Y-18275232D01*
X4620056Y-18305265D01*
X4719065Y-18335300D01*
X4734062Y-18336777D01*
X4873392Y-18350500D01*
X4874596Y-18350500D01*
X5125404Y-18350500D01*
X5126608Y-18350500D01*
X5280934Y-18335300D01*
X5478954Y-18275232D01*
X5661450Y-18177685D01*
X5821410Y-18046410D01*
X5952685Y-17886450D01*
X6050232Y-17703954D01*
X6110300Y-17505934D01*
X6130583Y-17300000D01*
X6110300Y-17094066D01*
X6050232Y-16896046D01*
X5952685Y-16713550D01*
X5821410Y-16553590D01*
X5661450Y-16422315D01*
X5478954Y-16324768D01*
X5478953Y-16324767D01*
X5478952Y-16324767D01*
X5280934Y-16264699D01*
X5127806Y-16249618D01*
X5126608Y-16249500D01*
X4873392Y-16249500D01*
X4872194Y-16249617D01*
X4872193Y-16249618D01*
X4719065Y-16264699D01*
X4521047Y-16324767D01*
X4338550Y-16422315D01*
X4178590Y-16553590D01*
X4047315Y-16713550D01*
X3949767Y-16896047D01*
X3889699Y-17094065D01*
X3869417Y-17300000D01*
X100500Y-17300000D01*
X100500Y-14800000D01*
X3869417Y-14800000D01*
X3889699Y-15005934D01*
X3931276Y-15142994D01*
X3949768Y-15203954D01*
X4047315Y-15386450D01*
X4178590Y-15546410D01*
X4338550Y-15677685D01*
X4521046Y-15775232D01*
X4620056Y-15805265D01*
X4719065Y-15835300D01*
X4734062Y-15836777D01*
X4873392Y-15850500D01*
X4874596Y-15850500D01*
X5125404Y-15850500D01*
X5126608Y-15850500D01*
X5280934Y-15835300D01*
X5478954Y-15775232D01*
X5661450Y-15677685D01*
X5821410Y-15546410D01*
X5952685Y-15386450D01*
X6050232Y-15203954D01*
X6110300Y-15005934D01*
X6130583Y-14800000D01*
X6126982Y-14763434D01*
X12074500Y-14763434D01*
X12083168Y-14790116D01*
X12084962Y-14797587D01*
X12089353Y-14825303D01*
X12102090Y-14850301D01*
X12105031Y-14857402D01*
X12113702Y-14884088D01*
X12130195Y-14906789D01*
X12134212Y-14913344D01*
X12146948Y-14938340D01*
X12146949Y-14938341D01*
X12146950Y-14938342D01*
X12167053Y-14958445D01*
X12167066Y-14958460D01*
X17285147Y-20076541D01*
X17299499Y-20111189D01*
X17299500Y-23861567D01*
X17299500Y-23988434D01*
X17308168Y-24015116D01*
X17309962Y-24022587D01*
X17314353Y-24050303D01*
X17327090Y-24075301D01*
X17330031Y-24082402D01*
X17338702Y-24109088D01*
X17355195Y-24131789D01*
X17359212Y-24138344D01*
X17371948Y-24163340D01*
X17371949Y-24163341D01*
X17371950Y-24163342D01*
X17392053Y-24183445D01*
X17392066Y-24183460D01*
X18360148Y-25151541D01*
X18374500Y-25186189D01*
X18374500Y-25505568D01*
X18383168Y-25532250D01*
X18384962Y-25539721D01*
X18389353Y-25567437D01*
X18402090Y-25592435D01*
X18405031Y-25599536D01*
X18413702Y-25626222D01*
X18430195Y-25648923D01*
X18434212Y-25655478D01*
X18446948Y-25680474D01*
X18446949Y-25680475D01*
X18446950Y-25680476D01*
X18467053Y-25700579D01*
X18467066Y-25700594D01*
X18898897Y-26132424D01*
X18898901Y-26132427D01*
X18918035Y-26151561D01*
X18919743Y-26152431D01*
X18943029Y-26164296D01*
X18949584Y-26168312D01*
X18972288Y-26184808D01*
X18992905Y-26191506D01*
X18998972Y-26193478D01*
X19006077Y-26196421D01*
X19031073Y-26209157D01*
X19058790Y-26213547D01*
X19066244Y-26215335D01*
X19092944Y-26224011D01*
X19124858Y-26224011D01*
X19153715Y-26224011D01*
X19188363Y-26238362D01*
X25875000Y-32925000D01*
X25875001Y-32925000D01*
X34949999Y-32925000D01*
X34950000Y-32925000D01*
X37200000Y-30675000D01*
X37100000Y-30575000D01*
X34914352Y-32760648D01*
X34879704Y-32775000D01*
X25970242Y-32775000D01*
X25935659Y-32760713D01*
X24271421Y-31102685D01*
X22411296Y-29249500D01*
X22110673Y-28949999D01*
X25244352Y-28949999D01*
X25264834Y-29092454D01*
X25264834Y-29092455D01*
X25264835Y-29092457D01*
X25309245Y-29189700D01*
X25324623Y-29223373D01*
X25340521Y-29241721D01*
X25418872Y-29332143D01*
X25539947Y-29409953D01*
X25678039Y-29450500D01*
X25821960Y-29450500D01*
X25821961Y-29450500D01*
X25824153Y-29449856D01*
X25861441Y-29453864D01*
X25872607Y-29462223D01*
X26107590Y-29697206D01*
X26113683Y-29704630D01*
X26126374Y-29723622D01*
X26126375Y-29723622D01*
X26126376Y-29723624D01*
X26145361Y-29736309D01*
X26145374Y-29736319D01*
X26166597Y-29750500D01*
X26217505Y-29784515D01*
X26302597Y-29801441D01*
X26302603Y-29801442D01*
X26324998Y-29805897D01*
X26324999Y-29805896D01*
X26325000Y-29805897D01*
X26347402Y-29801440D01*
X26356961Y-29800500D01*
X26637018Y-29800500D01*
X26671666Y-29814852D01*
X26681588Y-29829141D01*
X26724623Y-29923373D01*
X26818872Y-30032143D01*
X26939947Y-30109953D01*
X27078039Y-30150500D01*
X27221961Y-30150500D01*
X27360053Y-30109953D01*
X27481128Y-30032143D01*
X27575377Y-29923373D01*
X27635165Y-29792457D01*
X27655647Y-29650000D01*
X27635165Y-29507543D01*
X27575377Y-29376627D01*
X27481128Y-29267857D01*
X27452564Y-29249500D01*
X27360052Y-29190046D01*
X27221961Y-29149500D01*
X27078039Y-29149500D01*
X26939945Y-29190047D01*
X26859540Y-29241721D01*
X26833049Y-29249500D01*
X26459412Y-29249500D01*
X26424764Y-29235148D01*
X26258404Y-29068788D01*
X26244052Y-29034140D01*
X26244550Y-29027178D01*
X26255647Y-28950000D01*
X26235165Y-28807543D01*
X26175377Y-28676627D01*
X26081128Y-28567857D01*
X26061580Y-28555294D01*
X25960052Y-28490046D01*
X25821961Y-28449500D01*
X25678039Y-28449500D01*
X25539947Y-28490046D01*
X25418871Y-28567857D01*
X25324623Y-28676626D01*
X25264834Y-28807545D01*
X25244352Y-28949999D01*
X22110673Y-28949999D01*
X20204141Y-27050581D01*
X23890102Y-27050581D01*
X23924999Y-27055176D01*
X23959897Y-27050581D01*
X23925001Y-27015685D01*
X23890102Y-27050581D01*
X20204141Y-27050581D01*
X19601310Y-26449999D01*
X23319822Y-26449999D01*
X23324417Y-26484896D01*
X23359312Y-26450001D01*
X24490685Y-26450001D01*
X24525581Y-26484897D01*
X24530176Y-26449999D01*
X24525581Y-26415102D01*
X24490685Y-26450000D01*
X24490685Y-26450001D01*
X23359312Y-26450001D01*
X23359314Y-26449999D01*
X23324417Y-26415102D01*
X23319822Y-26449999D01*
X19601310Y-26449999D01*
X19458502Y-26307724D01*
X19444085Y-26273103D01*
X19458372Y-26238428D01*
X19492993Y-26224011D01*
X19789923Y-26224011D01*
X19807293Y-26218366D01*
X19816606Y-26215340D01*
X19824075Y-26213546D01*
X19851793Y-26209157D01*
X19876795Y-26196416D01*
X19883885Y-26193479D01*
X19910579Y-26184807D01*
X19933281Y-26168313D01*
X19939833Y-26164297D01*
X19964831Y-26151561D01*
X19981774Y-26134616D01*
X19981780Y-26134613D01*
X20201541Y-25914852D01*
X20236189Y-25900500D01*
X21900531Y-25900500D01*
X21927021Y-25908278D01*
X21935931Y-25914004D01*
X22060228Y-25950500D01*
X22079237Y-25950500D01*
X22102410Y-25950500D01*
X22552365Y-25950500D01*
X22561923Y-25951440D01*
X22582330Y-25955500D01*
X22582332Y-25955500D01*
X22778158Y-25955500D01*
X22779606Y-25955500D01*
X22818979Y-25950839D01*
X22824738Y-25950500D01*
X23189772Y-25950500D01*
X23314069Y-25914004D01*
X23322978Y-25908278D01*
X23349469Y-25900500D01*
X23611567Y-25900500D01*
X23644997Y-25900500D01*
X23667769Y-25906113D01*
X23674775Y-25909790D01*
X23839943Y-25950500D01*
X23839944Y-25950500D01*
X24010056Y-25950500D01*
X24114918Y-25924653D01*
X24151992Y-25930295D01*
X24154992Y-25932262D01*
X24159060Y-25935149D01*
X24248222Y-25955500D01*
X24248223Y-25955500D01*
X26144584Y-25955500D01*
X26179232Y-25969852D01*
X28280148Y-28070768D01*
X28294500Y-28105416D01*
X28294500Y-28879706D01*
X28310141Y-28958343D01*
X28324495Y-28992995D01*
X28369042Y-29059663D01*
X28840336Y-29530957D01*
X28873899Y-29553384D01*
X28907005Y-29575505D01*
X28941653Y-29589857D01*
X28941654Y-29589857D01*
X28941656Y-29589858D01*
X29020293Y-29605500D01*
X29020296Y-29605500D01*
X29479707Y-29605500D01*
X29558343Y-29589858D01*
X29558343Y-29589857D01*
X29558347Y-29589857D01*
X29592995Y-29575505D01*
X29659663Y-29530958D01*
X30130959Y-29059661D01*
X30175505Y-28992994D01*
X30189857Y-28958346D01*
X30190950Y-28952850D01*
X30205500Y-28879705D01*
X30205500Y-28281921D01*
X38560931Y-28281921D01*
X38581413Y-28424375D01*
X38581413Y-28424376D01*
X38581414Y-28424378D01*
X38641202Y-28555294D01*
X38735451Y-28664064D01*
X38856526Y-28741874D01*
X38994618Y-28782421D01*
X39138540Y-28782421D01*
X39276632Y-28741874D01*
X39397707Y-28664064D01*
X39491956Y-28555294D01*
X39551744Y-28424378D01*
X39572226Y-28281921D01*
X39561130Y-28204751D01*
X39570404Y-28168415D01*
X39574976Y-28163138D01*
X40670673Y-27067441D01*
X40691512Y-27055077D01*
X40760053Y-27034953D01*
X40881128Y-26957143D01*
X40975377Y-26848373D01*
X41035165Y-26717457D01*
X41055647Y-26575000D01*
X41053622Y-26560919D01*
X41044692Y-26498807D01*
X41035165Y-26432543D01*
X40975377Y-26301627D01*
X40881128Y-26192857D01*
X40881128Y-26192856D01*
X40760052Y-26115046D01*
X40621961Y-26074500D01*
X40478039Y-26074500D01*
X40339947Y-26115046D01*
X40218871Y-26192857D01*
X40124623Y-26301626D01*
X40064834Y-26432545D01*
X40044352Y-26575000D01*
X40064834Y-26717455D01*
X40064835Y-26717457D01*
X40079590Y-26749767D01*
X40106065Y-26807737D01*
X40107404Y-26845217D01*
X40096141Y-26862741D01*
X39189185Y-27769697D01*
X39154537Y-27784049D01*
X39140735Y-27782065D01*
X39138541Y-27781421D01*
X39138540Y-27781421D01*
X38994618Y-27781421D01*
X38856526Y-27821967D01*
X38735450Y-27899778D01*
X38641202Y-28008547D01*
X38581413Y-28139466D01*
X38560931Y-28281921D01*
X30205500Y-28281921D01*
X30205500Y-23048998D01*
X30198550Y-23014060D01*
X30205866Y-22977277D01*
X30237048Y-22956442D01*
X30246608Y-22955500D01*
X30433264Y-22955500D01*
X30434148Y-22955500D01*
X30463396Y-22953408D01*
X30477201Y-22951423D01*
X30505848Y-22945191D01*
X30506695Y-22944942D01*
X30506700Y-22944941D01*
X30550826Y-22931985D01*
X30564630Y-22930000D01*
X30635370Y-22930000D01*
X30649174Y-22931985D01*
X30693299Y-22944941D01*
X30693310Y-22944944D01*
X30694152Y-22945191D01*
X30695007Y-22945377D01*
X30695011Y-22945378D01*
X30698214Y-22946074D01*
X30722799Y-22951423D01*
X30736604Y-22953408D01*
X30765852Y-22955500D01*
X30766736Y-22955500D01*
X31558264Y-22955500D01*
X31559148Y-22955500D01*
X31588396Y-22953408D01*
X31602201Y-22951423D01*
X31630848Y-22945191D01*
X31631695Y-22944942D01*
X31631700Y-22944941D01*
X31675826Y-22931985D01*
X31689630Y-22930000D01*
X31760370Y-22930000D01*
X31774174Y-22931985D01*
X31818299Y-22944941D01*
X31818310Y-22944944D01*
X31819152Y-22945191D01*
X31820007Y-22945377D01*
X31820011Y-22945378D01*
X31823214Y-22946074D01*
X31847799Y-22951423D01*
X31861604Y-22953408D01*
X31890852Y-22955500D01*
X31891736Y-22955500D01*
X32708264Y-22955500D01*
X32709148Y-22955500D01*
X32738396Y-22953408D01*
X32752201Y-22951423D01*
X32780848Y-22945191D01*
X32781695Y-22944942D01*
X32781700Y-22944941D01*
X32825826Y-22931985D01*
X32839630Y-22930000D01*
X32910370Y-22930000D01*
X32924174Y-22931985D01*
X32968299Y-22944941D01*
X32968310Y-22944944D01*
X32969152Y-22945191D01*
X32970007Y-22945377D01*
X32970011Y-22945378D01*
X32973214Y-22946074D01*
X32997799Y-22951423D01*
X33011604Y-22953408D01*
X33040852Y-22955500D01*
X33041736Y-22955500D01*
X33833264Y-22955500D01*
X33834148Y-22955500D01*
X33863396Y-22953408D01*
X33877201Y-22951423D01*
X33905848Y-22945191D01*
X33906695Y-22944942D01*
X33906700Y-22944941D01*
X33950826Y-22931985D01*
X33964630Y-22930000D01*
X34035370Y-22930000D01*
X34049174Y-22931985D01*
X34093299Y-22944941D01*
X34093310Y-22944944D01*
X34094152Y-22945191D01*
X34095007Y-22945377D01*
X34095011Y-22945378D01*
X34098214Y-22946074D01*
X34122799Y-22951423D01*
X34136604Y-22953408D01*
X34165852Y-22955500D01*
X34166736Y-22955500D01*
X34983264Y-22955500D01*
X34984148Y-22955500D01*
X35013396Y-22953408D01*
X35027201Y-22951423D01*
X35055848Y-22945191D01*
X35056695Y-22944942D01*
X35056700Y-22944941D01*
X35100826Y-22931985D01*
X35114630Y-22930000D01*
X35185370Y-22930000D01*
X35199174Y-22931985D01*
X35243299Y-22944941D01*
X35243310Y-22944944D01*
X35244152Y-22945191D01*
X35245007Y-22945377D01*
X35245011Y-22945378D01*
X35248214Y-22946074D01*
X35272799Y-22951423D01*
X35286604Y-22953408D01*
X35315852Y-22955500D01*
X35495500Y-22955500D01*
X35530148Y-22969852D01*
X35544500Y-23004500D01*
X35544500Y-23401002D01*
X35560141Y-23479639D01*
X35560143Y-23479643D01*
X35574495Y-23514291D01*
X35589319Y-23537883D01*
X35611121Y-23572581D01*
X35685706Y-23625504D01*
X35703033Y-23632681D01*
X35720357Y-23639857D01*
X35720358Y-23639857D01*
X35720360Y-23639858D01*
X35798997Y-23655500D01*
X35799000Y-23655500D01*
X36579707Y-23655500D01*
X36658343Y-23639858D01*
X36658343Y-23639857D01*
X36658347Y-23639857D01*
X36692995Y-23625505D01*
X36723939Y-23604828D01*
X37774181Y-23604828D01*
X37794663Y-23747283D01*
X37794663Y-23747284D01*
X37794664Y-23747286D01*
X37854452Y-23878202D01*
X37948701Y-23986972D01*
X38069776Y-24064782D01*
X38207868Y-24105329D01*
X38351789Y-24105329D01*
X38351790Y-24105329D01*
X38353982Y-24104685D01*
X38391270Y-24108693D01*
X38402436Y-24117052D01*
X39282593Y-24997209D01*
X39288687Y-25004634D01*
X39301375Y-25023623D01*
X39320361Y-25036309D01*
X39320369Y-25036316D01*
X39374195Y-25072281D01*
X39386484Y-25080492D01*
X39392505Y-25084515D01*
X39472867Y-25100500D01*
X39472868Y-25100500D01*
X39477589Y-25101439D01*
X39477601Y-25101441D01*
X39481998Y-25102315D01*
X39500000Y-25105896D01*
X39519255Y-25102066D01*
X39522399Y-25101441D01*
X39531957Y-25100500D01*
X39754088Y-25100500D01*
X39788736Y-25114852D01*
X39791120Y-25117412D01*
X39868872Y-25207143D01*
X39989947Y-25284953D01*
X40128039Y-25325500D01*
X40271961Y-25325500D01*
X40410053Y-25284953D01*
X40531128Y-25207143D01*
X40625377Y-25098373D01*
X40685165Y-24967457D01*
X40705647Y-24825000D01*
X40685165Y-24682543D01*
X40625377Y-24551627D01*
X40531128Y-24442857D01*
X40449018Y-24390088D01*
X40410052Y-24365046D01*
X40271961Y-24324500D01*
X40128039Y-24324500D01*
X39989947Y-24365046D01*
X39868871Y-24442857D01*
X39791120Y-24532588D01*
X39757584Y-24549375D01*
X39754088Y-24549500D01*
X39634412Y-24549500D01*
X39599764Y-24535148D01*
X38788233Y-23723617D01*
X38773881Y-23688969D01*
X38774379Y-23682007D01*
X38785476Y-23604829D01*
X38780839Y-23572581D01*
X38767477Y-23479643D01*
X38764994Y-23462372D01*
X38705206Y-23331456D01*
X38610957Y-23222686D01*
X38489881Y-23144875D01*
X38351790Y-23104329D01*
X38207868Y-23104329D01*
X38069776Y-23144875D01*
X37948700Y-23222686D01*
X37854452Y-23331455D01*
X37794663Y-23462374D01*
X37774181Y-23604828D01*
X36723939Y-23604828D01*
X36759662Y-23580958D01*
X39330958Y-21009662D01*
X39375505Y-20942995D01*
X39389857Y-20908347D01*
X39405500Y-20829704D01*
X39405499Y-19468440D01*
X39417467Y-19436353D01*
X39450377Y-19398373D01*
X39510165Y-19267457D01*
X39530647Y-19125000D01*
X39510165Y-18982543D01*
X39450377Y-18851627D01*
X39450376Y-18851626D01*
X39450375Y-18851623D01*
X39428542Y-18826426D01*
X39416699Y-18790842D01*
X39430925Y-18759692D01*
X41536162Y-16654458D01*
X41572332Y-16600326D01*
X41603515Y-16579491D01*
X41640297Y-16586808D01*
X41657646Y-16607195D01*
X41684843Y-16666749D01*
X41684844Y-16666750D01*
X41779093Y-16775520D01*
X41900168Y-16853330D01*
X42038260Y-16893877D01*
X42182182Y-16893877D01*
X42320274Y-16853330D01*
X42441349Y-16775520D01*
X42535598Y-16666750D01*
X42595386Y-16535834D01*
X42595386Y-16535832D01*
X42595387Y-16535831D01*
X42615991Y-16392527D01*
X42635127Y-16360274D01*
X42664492Y-16350500D01*
X42696961Y-16350500D01*
X42835053Y-16309953D01*
X42956128Y-16232143D01*
X43050377Y-16123373D01*
X43110165Y-15992457D01*
X43130647Y-15850000D01*
X43110165Y-15707543D01*
X43050377Y-15576627D01*
X42956128Y-15467857D01*
X42865213Y-15409429D01*
X42843825Y-15378625D01*
X42850483Y-15341718D01*
X42857050Y-15333568D01*
X42980958Y-15209662D01*
X43025505Y-15142994D01*
X43039857Y-15108346D01*
X43055500Y-15029703D01*
X43055500Y-10595205D01*
X43065134Y-10571944D01*
X43063648Y-10567479D01*
X43142613Y-10567479D01*
X43153001Y-10588232D01*
X43170732Y-10711556D01*
X43170732Y-10711557D01*
X43170733Y-10711559D01*
X43230521Y-10842475D01*
X43324770Y-10951245D01*
X43445845Y-11029055D01*
X43583937Y-11069602D01*
X43660165Y-11069602D01*
X43694813Y-11083954D01*
X43708666Y-11111629D01*
X43724021Y-11218427D01*
X43724021Y-11218428D01*
X43724022Y-11218430D01*
X43783810Y-11349346D01*
X43878059Y-11458116D01*
X43999134Y-11535926D01*
X44137226Y-11576473D01*
X44281148Y-11576473D01*
X44419240Y-11535926D01*
X44540315Y-11458116D01*
X44634564Y-11349346D01*
X44694352Y-11218430D01*
X44714834Y-11075973D01*
X44703738Y-10998803D01*
X44713012Y-10962467D01*
X44717584Y-10957190D01*
X45179978Y-10494796D01*
X45187394Y-10488709D01*
X45206390Y-10476018D01*
X45225261Y-10447776D01*
X45239382Y-10426645D01*
X45267281Y-10384889D01*
X45288663Y-10277396D01*
X45284207Y-10254992D01*
X45283266Y-10245433D01*
X45283266Y-9616342D01*
X45297618Y-9581694D01*
X45305776Y-9575120D01*
X45338894Y-9553837D01*
X45433143Y-9445067D01*
X45492931Y-9314151D01*
X45513413Y-9171694D01*
X45492931Y-9029237D01*
X45433143Y-8898321D01*
X45338894Y-8789551D01*
X45276737Y-8749605D01*
X45217818Y-8711740D01*
X45079727Y-8671194D01*
X45030738Y-8671194D01*
X44996090Y-8656842D01*
X44982237Y-8629167D01*
X44963661Y-8499968D01*
X44955439Y-8481965D01*
X44903872Y-8369050D01*
X44809623Y-8260280D01*
X44809622Y-8260280D01*
X44688547Y-8182469D01*
X44550456Y-8141923D01*
X44406534Y-8141923D01*
X44268442Y-8182469D01*
X44147366Y-8260280D01*
X44053118Y-8369049D01*
X43993329Y-8499968D01*
X43972847Y-8642422D01*
X43993329Y-8784877D01*
X43993329Y-8784878D01*
X43993330Y-8784880D01*
X44043727Y-8895232D01*
X44053118Y-8915796D01*
X44147367Y-9024566D01*
X44180485Y-9045849D01*
X44201875Y-9076654D01*
X44202995Y-9087071D01*
X44202995Y-9612092D01*
X44188643Y-9646740D01*
X43778504Y-10056878D01*
X43743856Y-10071230D01*
X43730054Y-10069246D01*
X43727860Y-10068602D01*
X43727859Y-10068602D01*
X43583937Y-10068602D01*
X43445845Y-10109148D01*
X43324769Y-10186959D01*
X43230521Y-10295728D01*
X43170732Y-10426647D01*
X43153001Y-10549971D01*
X43142613Y-10567479D01*
X43063648Y-10567479D01*
X43055500Y-10542998D01*
X43055500Y-8895233D01*
X43052052Y-8877849D01*
X43039944Y-8816801D01*
X43025669Y-8782230D01*
X42981359Y-8715675D01*
X42981358Y-8715673D01*
X41204781Y-6931165D01*
X41137786Y-6886292D01*
X41103145Y-6871944D01*
X41103143Y-6871943D01*
X41103142Y-6871943D01*
X41036021Y-6856623D01*
X41036019Y-6856623D01*
X41036018Y-6856623D01*
X41032706Y-6857186D01*
X40996143Y-6848839D01*
X40976192Y-6817084D01*
X40975500Y-6808878D01*
X40975500Y-6631956D01*
X40976442Y-6622396D01*
X40980897Y-6600000D01*
X40968803Y-6539198D01*
X40959515Y-6492505D01*
X40919018Y-6431897D01*
X40911314Y-6420367D01*
X40911309Y-6420361D01*
X40898623Y-6401375D01*
X40879634Y-6388687D01*
X40872209Y-6382593D01*
X37491157Y-3001541D01*
X54595352Y-3001541D01*
X54614120Y-3299852D01*
X54614506Y-3302909D01*
X54670515Y-3596525D01*
X54671278Y-3599496D01*
X54763652Y-3883792D01*
X54764775Y-3886627D01*
X54892050Y-4157101D01*
X54893533Y-4159799D01*
X55041444Y-4392869D01*
X55694695Y-3739617D01*
X55739946Y-3823234D01*
X55892632Y-4019404D01*
X56075523Y-4187768D01*
X56258422Y-4307261D01*
X55609430Y-4956253D01*
X55710227Y-5029488D01*
X55712824Y-5031136D01*
X55974754Y-5175133D01*
X55977546Y-5176447D01*
X56255467Y-5286483D01*
X56258373Y-5287428D01*
X56547914Y-5361769D01*
X56550915Y-5362341D01*
X56847489Y-5399808D01*
X56850536Y-5400000D01*
X57149464Y-5400000D01*
X57152510Y-5399808D01*
X57449084Y-5362341D01*
X57452085Y-5361769D01*
X57741626Y-5287428D01*
X57744532Y-5286483D01*
X58022453Y-5176447D01*
X58025245Y-5175133D01*
X58287175Y-5031136D01*
X58289772Y-5029488D01*
X58390568Y-4956253D01*
X57741577Y-4307262D01*
X57924477Y-4187768D01*
X58107368Y-4019404D01*
X58260054Y-3823234D01*
X58305303Y-3739618D01*
X58958554Y-4392869D01*
X59106474Y-4159787D01*
X59107945Y-4157111D01*
X59235224Y-3886627D01*
X59236347Y-3883792D01*
X59328721Y-3599496D01*
X59329484Y-3596525D01*
X59385493Y-3302909D01*
X59385879Y-3299852D01*
X59404648Y-3001541D01*
X59404648Y-2998458D01*
X59385879Y-2700147D01*
X59385493Y-2697090D01*
X59329484Y-2403474D01*
X59328721Y-2400503D01*
X59236347Y-2116207D01*
X59235224Y-2113372D01*
X59107949Y-1842898D01*
X59106466Y-1840200D01*
X58958554Y-1607129D01*
X58305303Y-2260380D01*
X58260054Y-2176766D01*
X58107368Y-1980596D01*
X57924477Y-1812232D01*
X57741575Y-1692737D01*
X58390568Y-1043745D01*
X58289772Y-970511D01*
X58287175Y-968863D01*
X58025245Y-824866D01*
X58022453Y-823552D01*
X57744532Y-713516D01*
X57741626Y-712571D01*
X57452085Y-638230D01*
X57449084Y-637658D01*
X57152510Y-600191D01*
X57149464Y-600000D01*
X56850536Y-600000D01*
X56847489Y-600191D01*
X56550915Y-637658D01*
X56547914Y-638230D01*
X56258373Y-712571D01*
X56255467Y-713516D01*
X55977546Y-823552D01*
X55974754Y-824866D01*
X55712825Y-968863D01*
X55710223Y-970514D01*
X55609429Y-1043744D01*
X56258422Y-1692737D01*
X56075523Y-1812232D01*
X55892632Y-1980596D01*
X55739946Y-2176766D01*
X55694696Y-2260381D01*
X55041443Y-1607128D01*
X55041443Y-1607129D01*
X54893534Y-1840200D01*
X54892050Y-1842898D01*
X54764775Y-2113372D01*
X54763652Y-2116207D01*
X54671278Y-2400503D01*
X54670515Y-2403474D01*
X54614506Y-2697090D01*
X54614120Y-2700147D01*
X54595352Y-2998458D01*
X54595352Y-3001541D01*
X37491157Y-3001541D01*
X36919405Y-2429789D01*
X36913311Y-2422364D01*
X36900689Y-2403474D01*
X36900624Y-2403376D01*
X36896324Y-2400503D01*
X36881637Y-2390689D01*
X36881635Y-2390687D01*
X36851465Y-2370528D01*
X36809494Y-2342484D01*
X36724402Y-2325558D01*
X36724397Y-2325558D01*
X36702000Y-2321102D01*
X36679603Y-2325558D01*
X36670043Y-2326500D01*
X26804961Y-2326500D01*
X26795402Y-2325559D01*
X26772998Y-2321102D01*
X26750603Y-2325558D01*
X26750597Y-2325558D01*
X26665507Y-2342484D01*
X26665505Y-2342484D01*
X26665505Y-2342485D01*
X26623534Y-2370528D01*
X26597378Y-2388006D01*
X26597376Y-2388007D01*
X26580164Y-2399508D01*
X26574374Y-2403377D01*
X26561687Y-2422364D01*
X26555594Y-2429788D01*
X25850236Y-3135148D01*
X25815588Y-3149500D01*
X25570912Y-3149500D01*
X25536264Y-3135148D01*
X25533880Y-3132588D01*
X25456128Y-3042857D01*
X25335052Y-2965046D01*
X25196961Y-2924500D01*
X25053039Y-2924500D01*
X24914947Y-2965046D01*
X24793870Y-3042857D01*
X24770752Y-3069537D01*
X24737215Y-3086323D01*
X24705368Y-3077412D01*
X24701257Y-3074495D01*
X24666604Y-3060141D01*
X24587968Y-3044500D01*
X24587965Y-3044500D01*
X16276287Y-3044500D01*
X16233198Y-3052273D01*
X16204471Y-3057456D01*
X16172383Y-3069424D01*
X16118546Y-3099359D01*
X16118545Y-3099359D01*
X16118545Y-3099360D01*
X16091205Y-3132588D01*
X16056928Y-3174246D01*
X16054987Y-3172649D01*
X16033903Y-3190913D01*
X16004631Y-3191433D01*
X15946961Y-3174500D01*
X15803039Y-3174500D01*
X15664945Y-3215047D01*
X15584540Y-3266721D01*
X15558049Y-3274500D01*
X13811566Y-3274500D01*
X13784885Y-3283168D01*
X13777413Y-3284962D01*
X13749694Y-3289353D01*
X13724694Y-3302091D01*
X13717594Y-3305032D01*
X13690911Y-3313702D01*
X13668210Y-3330195D01*
X13661657Y-3334210D01*
X13636658Y-3346948D01*
X12146948Y-4836658D01*
X12134210Y-4861657D01*
X12130195Y-4868210D01*
X12113702Y-4890911D01*
X12105032Y-4917594D01*
X12102091Y-4924694D01*
X12089353Y-4949694D01*
X12084962Y-4977413D01*
X12083168Y-4984885D01*
X12074500Y-5011565D01*
X12074500Y-14763434D01*
X6126982Y-14763434D01*
X6110300Y-14594066D01*
X6050232Y-14396046D01*
X5952685Y-14213550D01*
X5821410Y-14053590D01*
X5661450Y-13922315D01*
X5478954Y-13824768D01*
X5478953Y-13824767D01*
X5478952Y-13824767D01*
X5280934Y-13764699D01*
X5127806Y-13749618D01*
X5126608Y-13749500D01*
X4873392Y-13749500D01*
X4872194Y-13749617D01*
X4872193Y-13749618D01*
X4719065Y-13764699D01*
X4521047Y-13824767D01*
X4338550Y-13922315D01*
X4178590Y-14053590D01*
X4047315Y-14213550D01*
X3949767Y-14396047D01*
X3889699Y-14594065D01*
X3869417Y-14800000D01*
X100500Y-14800000D01*
X100500Y-12700000D01*
X4060084Y-12700000D01*
X4067687Y-12720531D01*
X4169890Y-12884500D01*
X4303005Y-13024538D01*
X4461584Y-13134912D01*
X4600000Y-13194310D01*
X4600000Y-12700000D01*
X5400000Y-12700000D01*
X5400000Y-13193691D01*
X5451570Y-13177511D01*
X5620504Y-13083745D01*
X5767103Y-12957895D01*
X5885368Y-12805109D01*
X5936927Y-12700000D01*
X5400000Y-12700000D01*
X4600000Y-12700000D01*
X4060084Y-12700000D01*
X100500Y-12700000D01*
X100500Y-12331395D01*
X4621114Y-12331395D01*
X4651837Y-12452719D01*
X4720289Y-12557492D01*
X4819052Y-12634363D01*
X4937424Y-12675000D01*
X5031073Y-12675000D01*
X5123446Y-12659586D01*
X5233514Y-12600019D01*
X5318278Y-12507941D01*
X5368551Y-12393330D01*
X5378886Y-12268605D01*
X5348163Y-12147281D01*
X5279711Y-12042508D01*
X5180948Y-11965637D01*
X5062576Y-11925000D01*
X4968927Y-11925000D01*
X4876554Y-11940414D01*
X4766486Y-11999981D01*
X4681722Y-12092059D01*
X4631449Y-12206670D01*
X4621114Y-12331395D01*
X100500Y-12331395D01*
X100500Y-11900000D01*
X4063073Y-11900000D01*
X4600000Y-11900000D01*
X4600000Y-11406307D01*
X4548429Y-11422488D01*
X4379495Y-11516254D01*
X4232896Y-11642104D01*
X4114631Y-11794890D01*
X4063073Y-11900000D01*
X100500Y-11900000D01*
X100500Y-11405688D01*
X5400000Y-11405688D01*
X5400000Y-11900000D01*
X5939916Y-11900000D01*
X5932312Y-11879468D01*
X5830109Y-11715499D01*
X5696994Y-11575461D01*
X5538417Y-11465088D01*
X5400000Y-11405688D01*
X100500Y-11405688D01*
X100500Y-10454266D01*
X3874500Y-10454266D01*
X3874604Y-10455376D01*
X3874605Y-10455395D01*
X3877354Y-10484699D01*
X3922207Y-10612883D01*
X4002849Y-10722150D01*
X4112116Y-10802792D01*
X4112117Y-10802792D01*
X4112118Y-10802793D01*
X4240301Y-10847646D01*
X4270734Y-10850500D01*
X4271870Y-10850500D01*
X5728130Y-10850500D01*
X5729266Y-10850500D01*
X5759699Y-10847646D01*
X5887882Y-10802793D01*
X5997150Y-10722150D01*
X6077793Y-10612882D01*
X6122646Y-10484699D01*
X6125500Y-10454266D01*
X6125500Y-9145734D01*
X6122646Y-9115301D01*
X6077793Y-8987118D01*
X6077792Y-8987116D01*
X5997150Y-8877849D01*
X5887883Y-8797207D01*
X5759699Y-8752354D01*
X5730395Y-8749605D01*
X5730376Y-8749604D01*
X5729266Y-8749500D01*
X4270734Y-8749500D01*
X4269624Y-8749604D01*
X4269604Y-8749605D01*
X4240300Y-8752354D01*
X4112116Y-8797207D01*
X4002849Y-8877849D01*
X3922207Y-8987116D01*
X3877354Y-9115300D01*
X3874605Y-9144604D01*
X3874604Y-9144624D01*
X3874500Y-9145734D01*
X3874500Y-10454266D01*
X100500Y-10454266D01*
X100500Y-3001541D01*
X595352Y-3001541D01*
X614120Y-3299852D01*
X614506Y-3302909D01*
X670515Y-3596525D01*
X671278Y-3599496D01*
X763652Y-3883792D01*
X764775Y-3886627D01*
X892050Y-4157101D01*
X893533Y-4159799D01*
X1041444Y-4392869D01*
X1694695Y-3739617D01*
X1739946Y-3823234D01*
X1892632Y-4019404D01*
X2075523Y-4187768D01*
X2258422Y-4307261D01*
X1609430Y-4956253D01*
X1710227Y-5029488D01*
X1712824Y-5031136D01*
X1974754Y-5175133D01*
X1977546Y-5176447D01*
X2255467Y-5286483D01*
X2258373Y-5287428D01*
X2547914Y-5361769D01*
X2550915Y-5362341D01*
X2847489Y-5399808D01*
X2850536Y-5400000D01*
X3149464Y-5400000D01*
X3152510Y-5399808D01*
X3449084Y-5362341D01*
X3452085Y-5361769D01*
X3741626Y-5287428D01*
X3744532Y-5286483D01*
X4022453Y-5176447D01*
X4025245Y-5175133D01*
X4287175Y-5031136D01*
X4289772Y-5029488D01*
X4390568Y-4956253D01*
X3741577Y-4307262D01*
X3924477Y-4187768D01*
X4107368Y-4019404D01*
X4260054Y-3823234D01*
X4305303Y-3739618D01*
X4958554Y-4392869D01*
X5106474Y-4159787D01*
X5107945Y-4157111D01*
X5235224Y-3886627D01*
X5236347Y-3883792D01*
X5328721Y-3599496D01*
X5329484Y-3596525D01*
X5385493Y-3302909D01*
X5385879Y-3299852D01*
X5404648Y-3001541D01*
X5404648Y-2998458D01*
X5385879Y-2700147D01*
X5385493Y-2697090D01*
X5329484Y-2403474D01*
X5328721Y-2400503D01*
X5236347Y-2116207D01*
X5235224Y-2113372D01*
X5107949Y-1842898D01*
X5106466Y-1840200D01*
X4958554Y-1607129D01*
X4305303Y-2260380D01*
X4260054Y-2176766D01*
X4107368Y-1980596D01*
X3924477Y-1812232D01*
X3741575Y-1692737D01*
X4390568Y-1043745D01*
X4289772Y-970511D01*
X4287175Y-968863D01*
X4025245Y-824866D01*
X4022453Y-823552D01*
X3744532Y-713516D01*
X3741626Y-712571D01*
X3452085Y-638230D01*
X3449084Y-637658D01*
X3152510Y-600191D01*
X3149464Y-600000D01*
X2850536Y-600000D01*
X2847489Y-600191D01*
X2550915Y-637658D01*
X2547914Y-638230D01*
X2258373Y-712571D01*
X2255467Y-713516D01*
X1977546Y-823552D01*
X1974754Y-824866D01*
X1712825Y-968863D01*
X1710223Y-970514D01*
X1609429Y-1043744D01*
X2258422Y-1692737D01*
X2075523Y-1812232D01*
X1892632Y-1980596D01*
X1739946Y-2176766D01*
X1694696Y-2260381D01*
X1041443Y-1607128D01*
X1041443Y-1607129D01*
X893534Y-1840200D01*
X892050Y-1842898D01*
X764775Y-2113372D01*
X763652Y-2116207D01*
X671278Y-2400503D01*
X670515Y-2403474D01*
X614506Y-2697090D01*
X614120Y-2700147D01*
X595352Y-2998458D01*
X595352Y-3001541D01*
X100500Y-3001541D01*
X100500Y-149500D01*
X114852Y-114852D01*
X149500Y-100500D01*
X59850500Y-100500D01*
X59885148Y-114852D01*
G37*
G04 #@! TD.AperFunction*
M02*
