G04 #@! TF.GenerationSoftware,KiCad,Pcbnew,7.0.2*
G04 #@! TF.CreationDate,2023-08-30T11:59:43+08:00*
G04 #@! TF.ProjectId,bldc_driver,626c6463-5f64-4726-9976-65722e6b6963,rev?*
G04 #@! TF.SameCoordinates,PX58b1140PY3750280*
G04 #@! TF.FileFunction,Legend,Top*
G04 #@! TF.FilePolarity,Positive*
%FSLAX46Y46*%
G04 Gerber Fmt 4.6, Leading zero omitted, Abs format (unit mm)*
G04 Created by KiCad (PCBNEW 7.0.2) date 2023-08-30 11:59:43*
%MOMM*%
%LPD*%
G01*
G04 APERTURE LIST*
%ADD10C,0.100000*%
%ADD11C,0.150000*%
%ADD12C,0.120000*%
%ADD13C,0.200000*%
G04 APERTURE END LIST*
D10*
X29185715Y-38293904D02*
X29147619Y-38332000D01*
X29147619Y-38332000D02*
X29033334Y-38370095D01*
X29033334Y-38370095D02*
X28957143Y-38370095D01*
X28957143Y-38370095D02*
X28842857Y-38332000D01*
X28842857Y-38332000D02*
X28766667Y-38255809D01*
X28766667Y-38255809D02*
X28728572Y-38179619D01*
X28728572Y-38179619D02*
X28690476Y-38027238D01*
X28690476Y-38027238D02*
X28690476Y-37912952D01*
X28690476Y-37912952D02*
X28728572Y-37760571D01*
X28728572Y-37760571D02*
X28766667Y-37684380D01*
X28766667Y-37684380D02*
X28842857Y-37608190D01*
X28842857Y-37608190D02*
X28957143Y-37570095D01*
X28957143Y-37570095D02*
X29033334Y-37570095D01*
X29033334Y-37570095D02*
X29147619Y-37608190D01*
X29147619Y-37608190D02*
X29185715Y-37646285D01*
X29528572Y-38370095D02*
X29528572Y-37570095D01*
X29528572Y-37570095D02*
X29719048Y-37570095D01*
X29719048Y-37570095D02*
X29833334Y-37608190D01*
X29833334Y-37608190D02*
X29909524Y-37684380D01*
X29909524Y-37684380D02*
X29947619Y-37760571D01*
X29947619Y-37760571D02*
X29985715Y-37912952D01*
X29985715Y-37912952D02*
X29985715Y-38027238D01*
X29985715Y-38027238D02*
X29947619Y-38179619D01*
X29947619Y-38179619D02*
X29909524Y-38255809D01*
X29909524Y-38255809D02*
X29833334Y-38332000D01*
X29833334Y-38332000D02*
X29719048Y-38370095D01*
X29719048Y-38370095D02*
X29528572Y-38370095D01*
X30595238Y-37951047D02*
X30328572Y-37951047D01*
X30328572Y-38370095D02*
X30328572Y-37570095D01*
X30328572Y-37570095D02*
X30709524Y-37570095D01*
X31166667Y-37570095D02*
X31319048Y-37570095D01*
X31319048Y-37570095D02*
X31395238Y-37608190D01*
X31395238Y-37608190D02*
X31471429Y-37684380D01*
X31471429Y-37684380D02*
X31509524Y-37836761D01*
X31509524Y-37836761D02*
X31509524Y-38103428D01*
X31509524Y-38103428D02*
X31471429Y-38255809D01*
X31471429Y-38255809D02*
X31395238Y-38332000D01*
X31395238Y-38332000D02*
X31319048Y-38370095D01*
X31319048Y-38370095D02*
X31166667Y-38370095D01*
X31166667Y-38370095D02*
X31090476Y-38332000D01*
X31090476Y-38332000D02*
X31014286Y-38255809D01*
X31014286Y-38255809D02*
X30976190Y-38103428D01*
X30976190Y-38103428D02*
X30976190Y-37836761D01*
X30976190Y-37836761D02*
X31014286Y-37684380D01*
X31014286Y-37684380D02*
X31090476Y-37608190D01*
X31090476Y-37608190D02*
X31166667Y-37570095D01*
X32309524Y-38293904D02*
X32271428Y-38332000D01*
X32271428Y-38332000D02*
X32157143Y-38370095D01*
X32157143Y-38370095D02*
X32080952Y-38370095D01*
X32080952Y-38370095D02*
X31966666Y-38332000D01*
X31966666Y-38332000D02*
X31890476Y-38255809D01*
X31890476Y-38255809D02*
X31852381Y-38179619D01*
X31852381Y-38179619D02*
X31814285Y-38027238D01*
X31814285Y-38027238D02*
X31814285Y-37912952D01*
X31814285Y-37912952D02*
X31852381Y-37760571D01*
X31852381Y-37760571D02*
X31890476Y-37684380D01*
X31890476Y-37684380D02*
X31966666Y-37608190D01*
X31966666Y-37608190D02*
X32080952Y-37570095D01*
X32080952Y-37570095D02*
X32157143Y-37570095D01*
X32157143Y-37570095D02*
X32271428Y-37608190D01*
X32271428Y-37608190D02*
X32309524Y-37646285D01*
X33147619Y-37570095D02*
X33414286Y-38370095D01*
X33414286Y-38370095D02*
X33680952Y-37570095D01*
X34290476Y-37836761D02*
X34290476Y-38370095D01*
X34100000Y-37532000D02*
X33909523Y-38103428D01*
X33909523Y-38103428D02*
X34404762Y-38103428D01*
X34709524Y-38293904D02*
X34747619Y-38332000D01*
X34747619Y-38332000D02*
X34709524Y-38370095D01*
X34709524Y-38370095D02*
X34671428Y-38332000D01*
X34671428Y-38332000D02*
X34709524Y-38293904D01*
X34709524Y-38293904D02*
X34709524Y-38370095D01*
X35509523Y-38370095D02*
X35052380Y-38370095D01*
X35280952Y-38370095D02*
X35280952Y-37570095D01*
X35280952Y-37570095D02*
X35204761Y-37684380D01*
X35204761Y-37684380D02*
X35128571Y-37760571D01*
X35128571Y-37760571D02*
X35052380Y-37798666D01*
X6917833Y-10550000D02*
X6917833Y-11083334D01*
X6651166Y-10816667D02*
X7184500Y-10816667D01*
X6917833Y-12483333D02*
X6917833Y-13016667D01*
X6851166Y-14383333D02*
X6851166Y-14716666D01*
X6651166Y-14316666D02*
X7351166Y-14550000D01*
X7351166Y-14550000D02*
X6651166Y-14783333D01*
X7017833Y-16316666D02*
X6984500Y-16416666D01*
X6984500Y-16416666D02*
X6951166Y-16449999D01*
X6951166Y-16449999D02*
X6884500Y-16483332D01*
X6884500Y-16483332D02*
X6784500Y-16483332D01*
X6784500Y-16483332D02*
X6717833Y-16449999D01*
X6717833Y-16449999D02*
X6684500Y-16416666D01*
X6684500Y-16416666D02*
X6651166Y-16349999D01*
X6651166Y-16349999D02*
X6651166Y-16083332D01*
X6651166Y-16083332D02*
X7351166Y-16083332D01*
X7351166Y-16083332D02*
X7351166Y-16316666D01*
X7351166Y-16316666D02*
X7317833Y-16383332D01*
X7317833Y-16383332D02*
X7284500Y-16416666D01*
X7284500Y-16416666D02*
X7217833Y-16449999D01*
X7217833Y-16449999D02*
X7151166Y-16449999D01*
X7151166Y-16449999D02*
X7084500Y-16416666D01*
X7084500Y-16416666D02*
X7051166Y-16383332D01*
X7051166Y-16383332D02*
X7017833Y-16316666D01*
X7017833Y-16316666D02*
X7017833Y-16083332D01*
X7017833Y-23450000D02*
X7017833Y-23983334D01*
X6751166Y-23716667D02*
X7284500Y-23716667D01*
X7017833Y-25383333D02*
X7017833Y-25916667D01*
X6951166Y-27283333D02*
X6951166Y-27616666D01*
X6751166Y-27216666D02*
X7451166Y-27450000D01*
X7451166Y-27450000D02*
X6751166Y-27683333D01*
X7117833Y-29216666D02*
X7084500Y-29316666D01*
X7084500Y-29316666D02*
X7051166Y-29349999D01*
X7051166Y-29349999D02*
X6984500Y-29383332D01*
X6984500Y-29383332D02*
X6884500Y-29383332D01*
X6884500Y-29383332D02*
X6817833Y-29349999D01*
X6817833Y-29349999D02*
X6784500Y-29316666D01*
X6784500Y-29316666D02*
X6751166Y-29249999D01*
X6751166Y-29249999D02*
X6751166Y-28983332D01*
X6751166Y-28983332D02*
X7451166Y-28983332D01*
X7451166Y-28983332D02*
X7451166Y-29216666D01*
X7451166Y-29216666D02*
X7417833Y-29283332D01*
X7417833Y-29283332D02*
X7384500Y-29316666D01*
X7384500Y-29316666D02*
X7317833Y-29349999D01*
X7317833Y-29349999D02*
X7251166Y-29349999D01*
X7251166Y-29349999D02*
X7184500Y-29316666D01*
X7184500Y-29316666D02*
X7151166Y-29283332D01*
X7151166Y-29283332D02*
X7117833Y-29216666D01*
X7117833Y-29216666D02*
X7117833Y-28983332D01*
D11*
X42981000Y-29507000D02*
X42981000Y-25443000D01*
X45013000Y-29507000D02*
X45013000Y-25443000D01*
X11357000Y-34441000D02*
X7293000Y-34441000D01*
X11357000Y-32409000D02*
X7293000Y-32409000D01*
X19749999Y-13650000D02*
X19749999Y-13150000D01*
X37275000Y-15325000D02*
X37275000Y-14875000D01*
X10850000Y-15350000D02*
X10850000Y-15800000D01*
X46050000Y-16300000D02*
X49450000Y-16300000D01*
X46050000Y-19700000D02*
X46050000Y-19425000D01*
X46050000Y-19700000D02*
X49450000Y-19700000D01*
X49450000Y-16300000D02*
X49450000Y-16575000D01*
X49450000Y-19700000D02*
X49450000Y-19425000D01*
X49450000Y-27200000D02*
X46050000Y-27200000D01*
X49450000Y-23800000D02*
X49450000Y-24075000D01*
X49450000Y-23800000D02*
X46050000Y-23800000D01*
X46050000Y-27200000D02*
X46050000Y-26925000D01*
X46050000Y-23800000D02*
X46050000Y-24075000D01*
X46050000Y-27550000D02*
X49450000Y-27550000D01*
X46050000Y-30950000D02*
X46050000Y-30675000D01*
X46050000Y-30950000D02*
X49450000Y-30950000D01*
X49450000Y-27550000D02*
X49450000Y-27825000D01*
X49450000Y-30950000D02*
X49450000Y-30675000D01*
X49450000Y-38450000D02*
X46050000Y-38450000D01*
X49450000Y-35050000D02*
X49450000Y-35325000D01*
X49450000Y-35050000D02*
X46050000Y-35050000D01*
X46050000Y-38450000D02*
X46050000Y-38175000D01*
X46050000Y-35050000D02*
X46050000Y-35325000D01*
X46050000Y-31300000D02*
X49450000Y-31300000D01*
X46050000Y-34700000D02*
X46050000Y-34425000D01*
X46050000Y-34700000D02*
X49450000Y-34700000D01*
X49450000Y-31300000D02*
X49450000Y-31575000D01*
X49450000Y-34700000D02*
X49450000Y-34425000D01*
X49450000Y-23450000D02*
X46050000Y-23450000D01*
X49450000Y-20050000D02*
X49450000Y-20325000D01*
X49450000Y-20050000D02*
X46050000Y-20050000D01*
X46050000Y-23450000D02*
X46050000Y-23175000D01*
X46050000Y-20050000D02*
X46050000Y-20325000D01*
X38575000Y-13050000D02*
X38575000Y-12550000D01*
X38375000Y-12700000D02*
X37775000Y-12700000D01*
X38075000Y-13000000D02*
X38375000Y-12700000D01*
X37775000Y-12700000D02*
X38075000Y-13000000D01*
X37325000Y-14400000D02*
X37225000Y-14400000D01*
X37325000Y-11200000D02*
X37225000Y-11200000D01*
X35975000Y-12800000D02*
X35975000Y-13050000D01*
X35975000Y-12800000D02*
X35975000Y-12550000D01*
D12*
X36485000Y-29110000D02*
X36010000Y-29110000D01*
X29265000Y-28635000D02*
X29265000Y-29110000D01*
X36485000Y-28635000D02*
X36485000Y-29110000D01*
X29265000Y-22365000D02*
X29265000Y-21890000D01*
X36485000Y-22365000D02*
X36485000Y-21890000D01*
X29265000Y-21890000D02*
X29740000Y-21890000D01*
X36485000Y-21890000D02*
X36010000Y-21890000D01*
X21710000Y-16855000D02*
X21710000Y-15055000D01*
X18490000Y-15055000D02*
X18490000Y-17505000D01*
D10*
X13325000Y-11950000D02*
X13325000Y-12150000D01*
X10325000Y-14950000D02*
X13325000Y-14950000D01*
X10325000Y-14950000D02*
X10325000Y-14750000D01*
X10325000Y-12150000D02*
X10325000Y-11950000D01*
X10325000Y-11950000D02*
X13325000Y-11950000D01*
D11*
X12342000Y-37720000D02*
X7008000Y-37720000D01*
D13*
X10056000Y-36958000D02*
X10056000Y-35942000D01*
X10056000Y-36450000D02*
X9294000Y-36831000D01*
X9294000Y-36831000D02*
X9294000Y-36069000D01*
X9294000Y-36069000D02*
X10056000Y-36450000D01*
D11*
X7008000Y-35180000D02*
X12342000Y-35180000D01*
D12*
X53290000Y-32735000D02*
X53290000Y-30325000D01*
X55700000Y-32735000D02*
X53290000Y-32735000D01*
X53590000Y-32435000D02*
X61710000Y-32435000D01*
X61710000Y-32435000D02*
X61710000Y-22315000D01*
X53590000Y-22315000D02*
X53590000Y-32435000D01*
X61710000Y-22315000D02*
X53590000Y-22315000D01*
X6710000Y-6940000D02*
X6710000Y-9350000D01*
X4300000Y-6940000D02*
X6710000Y-6940000D01*
X6410000Y-7240000D02*
X-1710000Y-7240000D01*
X-1710000Y-7240000D02*
X-1710000Y-19860000D01*
X6410000Y-19860000D02*
X6410000Y-7240000D01*
X-1710000Y-19860000D02*
X6410000Y-19860000D01*
D11*
X45016000Y-32468000D02*
X45016000Y-36532000D01*
X42984000Y-32468000D02*
X42984000Y-36532000D01*
X48750000Y-38775000D02*
X48750000Y-39225000D01*
D10*
X30975000Y-33775000D02*
X33375000Y-33775000D01*
X33375000Y-31975000D02*
X30975000Y-31975000D01*
D11*
X44250000Y-23850000D02*
X44250000Y-23400000D01*
D10*
X29250000Y-36250000D02*
X29250000Y-33850000D01*
X27450000Y-33850000D02*
X27450000Y-36250000D01*
D11*
X20925000Y-25075000D02*
X21425000Y-25075000D01*
X28075000Y-19350000D02*
X28075000Y-18850000D01*
X19825000Y-25075000D02*
X20325000Y-25075000D01*
X22025000Y-25075000D02*
X22525000Y-25075000D01*
X28875000Y-4500000D02*
X29325000Y-4500000D01*
X34850000Y-14250000D02*
X34850000Y-14700000D01*
X26775000Y-12675000D02*
X26325000Y-12675000D01*
X37875000Y-28375000D02*
X37425000Y-28375000D01*
X29850000Y-4500000D02*
X30300000Y-4500000D01*
X32375000Y-4500000D02*
X32825000Y-4500000D01*
X29475000Y-30050000D02*
X29475000Y-30500000D01*
X27650000Y-30500000D02*
X27650000Y-30050000D01*
X27650000Y-28900000D02*
X27650000Y-28450000D01*
X32725000Y-30725000D02*
X33175000Y-30725000D01*
X36725000Y-9225000D02*
X36725000Y-9675000D01*
X27650000Y-27525000D02*
X27650000Y-27975000D01*
X31175000Y-30725000D02*
X30725000Y-30725000D01*
X32250000Y-30725000D02*
X31800000Y-30725000D01*
X36750000Y-20375000D02*
X36300000Y-20375000D01*
X37650000Y-20375000D02*
X37200000Y-20375000D01*
X35775000Y-3775000D02*
X35775000Y-4225000D01*
X33975000Y-3775000D02*
X33975000Y-4225000D01*
X27450000Y-25825000D02*
X27450000Y-26275000D01*
X19649999Y-18700000D02*
X19649999Y-18250000D01*
D12*
X19475000Y-19525000D02*
X23475000Y-19525000D01*
X19475000Y-23725000D02*
X23475000Y-23725000D01*
D11*
X35900000Y-30500000D02*
X35900000Y-30050000D01*
D12*
X12250000Y-30865000D02*
X13500000Y-30865000D01*
X12875000Y-30240000D02*
X12875000Y-31490000D01*
X13740000Y-29429437D02*
X13740000Y-32115000D01*
X13740000Y-29429437D02*
X14804437Y-28365000D01*
X13740000Y-37820563D02*
X13740000Y-35135000D01*
X13740000Y-37820563D02*
X14804437Y-38885000D01*
X14804437Y-28365000D02*
X24260000Y-28365000D01*
X14804437Y-38885000D02*
X24260000Y-38885000D01*
X24260000Y-28365000D02*
X24260000Y-32115000D01*
X24260000Y-38885000D02*
X24260000Y-35135000D01*
X43940000Y-15732500D02*
X43940000Y-14482500D01*
X43315000Y-15107500D02*
X44565000Y-15107500D01*
X42504437Y-14242500D02*
X45190000Y-14242500D01*
X42504437Y-14242500D02*
X41440000Y-13178063D01*
X50895563Y-14242500D02*
X48210000Y-14242500D01*
X50895563Y-14242500D02*
X51960000Y-13178063D01*
X41440000Y-13178063D02*
X41440000Y-3722500D01*
X51960000Y-13178063D02*
X51960000Y-3722500D01*
X41440000Y-3722500D02*
X45190000Y-3722500D01*
X51960000Y-3722500D02*
X48210000Y-3722500D01*
X34960000Y-6040000D02*
X34960000Y-6515000D01*
X34485000Y-13260000D02*
X34960000Y-13260000D01*
X34485000Y-6040000D02*
X34960000Y-6040000D01*
X28215000Y-13260000D02*
X27740000Y-13260000D01*
X28215000Y-6040000D02*
X27740000Y-6040000D01*
X27740000Y-13260000D02*
X27740000Y-12785000D01*
X27740000Y-6040000D02*
X27740000Y-6515000D01*
D11*
X7500000Y-3125000D02*
X8900000Y-3125000D01*
X8100000Y-3625000D02*
X8300000Y-3775000D01*
X8300000Y-3475000D02*
X8100000Y-3625000D01*
X8300000Y-3775000D02*
X8300000Y-3475000D01*
X8900000Y-4125000D02*
X7500000Y-4125000D01*
X10100000Y-2850000D02*
X10100000Y-2400000D01*
X10100000Y-3850000D02*
X10100000Y-3400000D01*
X27900000Y-4500000D02*
X28350000Y-4500000D01*
X27375000Y-4500000D02*
X26925000Y-4500000D01*
X36725000Y-8175000D02*
X36725000Y-8625000D01*
X30125000Y-20375000D02*
X29675000Y-20375000D01*
X7500000Y-2125000D02*
X8900000Y-2125000D01*
X8100000Y-2625000D02*
X8300000Y-2775000D01*
X8300000Y-2475000D02*
X8100000Y-2625000D01*
X8300000Y-2775000D02*
X8300000Y-2475000D01*
X8900000Y-3125000D02*
X7500000Y-3125000D01*
X39050000Y-12800000D02*
X39500000Y-12800000D01*
D12*
X25950000Y-21275000D02*
X23950000Y-21275000D01*
X25950000Y-21275000D02*
X25950000Y-25125000D01*
X23950000Y-21275000D02*
X23950000Y-25125000D01*
D11*
X26865000Y-18325000D02*
X28135000Y-18325000D01*
X26865000Y-18325000D02*
X26865000Y-14325000D01*
X28135000Y-18325000D02*
X28135000Y-14325000D01*
X26600000Y-17900000D02*
X26600000Y-17800000D01*
X26865000Y-14325000D02*
X28135000Y-14325000D01*
D10*
X41650000Y-37950000D02*
X41650000Y-35550000D01*
X39850000Y-35550000D02*
X39850000Y-37950000D01*
D11*
X34100000Y-18000000D02*
X34100000Y-18450000D01*
X35625000Y-20375000D02*
X35175000Y-20375000D01*
D10*
X26075000Y-25775000D02*
X23675000Y-25775000D01*
X23675000Y-27575000D02*
X26075000Y-27575000D01*
D11*
X55275000Y-18700000D02*
X57525000Y-18700000D01*
X54475000Y-18500000D02*
X54775000Y-17900000D01*
X55075000Y-18500000D02*
X54475000Y-18500000D01*
X54775000Y-17900000D02*
X55075000Y-18500000D01*
X59775000Y-17900000D02*
X59775000Y-7500000D01*
X55275000Y-17700000D02*
X55275000Y-18700000D01*
X55275000Y-7700000D02*
X55275000Y-6700000D01*
X55275000Y-6700000D02*
X57525000Y-6700000D01*
D10*
X7917660Y-16173295D02*
X9261163Y-14829792D01*
X8370208Y-13938837D02*
X7238837Y-15070208D01*
D11*
X36725000Y-7125000D02*
X36725000Y-7575000D01*
X52975000Y-15425000D02*
X52975000Y-14975000D01*
X34575000Y-15850000D02*
X34125000Y-15850000D01*
X52975000Y-10425000D02*
X52975000Y-9975000D01*
X42984000Y-21532000D02*
X42984000Y-17468000D01*
X45016000Y-21532000D02*
X45016000Y-17468000D01*
X37425000Y-24000000D02*
X37875000Y-24000000D01*
X52975000Y-9425000D02*
X52975000Y-8975000D01*
D12*
X9940000Y-29275000D02*
X9940000Y-28025000D01*
X9315000Y-28650000D02*
X10565000Y-28650000D01*
X8504437Y-27785000D02*
X11190000Y-27785000D01*
X8504437Y-27785000D02*
X7440000Y-26720563D01*
X16895563Y-27785000D02*
X14210000Y-27785000D01*
X16895563Y-27785000D02*
X17960000Y-26720563D01*
X7440000Y-26720563D02*
X7440000Y-17265000D01*
X17960000Y-26720563D02*
X17960000Y-17265000D01*
X7440000Y-17265000D02*
X11190000Y-17265000D01*
X17960000Y-17265000D02*
X14210000Y-17265000D01*
D11*
X36725000Y-6175000D02*
X36725000Y-6625000D01*
X11825000Y-11100000D02*
X11825000Y-11550000D01*
X38550000Y-20375000D02*
X38100000Y-20375000D01*
X52975000Y-11425000D02*
X52975000Y-10975000D01*
D12*
X20647500Y-10985000D02*
X20172500Y-10985000D01*
X17427500Y-10510000D02*
X17427500Y-10985000D01*
X20647500Y-10510000D02*
X20647500Y-10985000D01*
X17427500Y-8240000D02*
X17427500Y-7765000D01*
X20647500Y-8240000D02*
X20647500Y-7765000D01*
X17427500Y-7765000D02*
X17902500Y-7765000D01*
X20647500Y-7765000D02*
X20172500Y-7765000D01*
D11*
X17675000Y-11825000D02*
X17675000Y-12275000D01*
X52975000Y-12425000D02*
X52975000Y-11975000D01*
X19750000Y-12325000D02*
X19750000Y-11825000D01*
X52975000Y-13375000D02*
X52975000Y-12925000D01*
X52975000Y-14425000D02*
X52975000Y-13975000D01*
X25975000Y-4500000D02*
X25525000Y-4500000D01*
X35575000Y-15850000D02*
X35125000Y-15850000D01*
D12*
X6710000Y-19865000D02*
X6710000Y-22275000D01*
X4300000Y-19865000D02*
X6710000Y-19865000D01*
X6410000Y-20165000D02*
X-1710000Y-20165000D01*
X-1710000Y-20165000D02*
X-1710000Y-32785000D01*
X6410000Y-32785000D02*
X6410000Y-20165000D01*
X-1710000Y-32785000D02*
X6410000Y-32785000D01*
M02*
