G04 #@! TF.GenerationSoftware,KiCad,Pcbnew,7.0.2*
G04 #@! TF.CreationDate,2023-08-30T11:59:43+08:00*
G04 #@! TF.ProjectId,bldc_driver,626c6463-5f64-4726-9976-65722e6b6963,rev?*
G04 #@! TF.SameCoordinates,PX58b1140PY3750280*
G04 #@! TF.FileFunction,Paste,Top*
G04 #@! TF.FilePolarity,Positive*
%FSLAX46Y46*%
G04 Gerber Fmt 4.6, Leading zero omitted, Abs format (unit mm)*
G04 Created by KiCad (PCBNEW 7.0.2) date 2023-08-30 11:59:43*
%MOMM*%
%LPD*%
G01*
G04 APERTURE LIST*
G04 Aperture macros list*
%AMRoundRect*
0 Rectangle with rounded corners*
0 $1 Rounding radius*
0 $2 $3 $4 $5 $6 $7 $8 $9 X,Y pos of 4 corners*
0 Add a 4 corners polygon primitive as box body*
4,1,4,$2,$3,$4,$5,$6,$7,$8,$9,$2,$3,0*
0 Add four circle primitives for the rounded corners*
1,1,$1+$1,$2,$3*
1,1,$1+$1,$4,$5*
1,1,$1+$1,$6,$7*
1,1,$1+$1,$8,$9*
0 Add four rect primitives between the rounded corners*
20,1,$1+$1,$2,$3,$4,$5,0*
20,1,$1+$1,$4,$5,$6,$7,0*
20,1,$1+$1,$6,$7,$8,$9,0*
20,1,$1+$1,$8,$9,$2,$3,0*%
G04 Aperture macros list end*
%ADD10R,1.500000X1.500000*%
%ADD11R,0.700000X0.670000*%
%ADD12R,0.500000X0.600000*%
%ADD13R,0.800000X0.340000*%
%ADD14R,0.650000X0.340000*%
%ADD15R,1.026000X1.374000*%
%ADD16R,1.050000X1.200000*%
%ADD17RoundRect,0.250000X0.270000X-0.270000X0.270000X0.270000X-0.270000X0.270000X-0.270000X-0.270000X0*%
%ADD18RoundRect,0.062500X0.062500X-0.375000X0.062500X0.375000X-0.062500X0.375000X-0.062500X-0.375000X0*%
%ADD19RoundRect,0.062500X0.375000X-0.062500X0.375000X0.062500X-0.375000X0.062500X-0.375000X-0.062500X0*%
%ADD20R,0.650000X1.060000*%
%ADD21R,0.650000X0.350000*%
%ADD22R,1.524000X1.524000*%
%ADD23R,1.000000X1.500000*%
%ADD24R,1.500000X1.000000*%
%ADD25R,0.670000X0.700000*%
%ADD26R,0.600000X0.500000*%
%ADD27R,1.200000X3.700000*%
%ADD28RoundRect,0.250000X-1.750000X-1.000000X1.750000X-1.000000X1.750000X1.000000X-1.750000X1.000000X0*%
%ADD29RoundRect,0.250000X1.000000X-1.750000X1.000000X1.750000X-1.000000X1.750000X-1.000000X-1.750000X0*%
%ADD30RoundRect,0.250000X0.315000X0.315000X-0.315000X0.315000X-0.315000X-0.315000X0.315000X-0.315000X0*%
%ADD31RoundRect,0.062500X0.375000X0.062500X-0.375000X0.062500X-0.375000X-0.062500X0.375000X-0.062500X0*%
%ADD32RoundRect,0.062500X0.062500X0.375000X-0.062500X0.375000X-0.062500X-0.375000X0.062500X-0.375000X0*%
%ADD33R,1.100000X1.100000*%
%ADD34R,1.600000X0.500000*%
%ADD35R,2.000000X1.200000*%
%ADD36RoundRect,0.015000X0.289914X0.098995X0.098995X0.289914X-0.289914X-0.098995X-0.098995X-0.289914X0*%
%ADD37RoundRect,0.172500X0.172500X-0.172500X0.172500X0.172500X-0.172500X0.172500X-0.172500X-0.172500X0*%
%ADD38RoundRect,0.062500X0.062500X-0.350000X0.062500X0.350000X-0.062500X0.350000X-0.062500X-0.350000X0*%
%ADD39RoundRect,0.062500X0.350000X-0.062500X0.350000X0.062500X-0.350000X0.062500X-0.350000X-0.062500X0*%
G04 APERTURE END LIST*
D10*
X43997000Y-28872000D03*
X43997000Y-26078000D03*
X10722000Y-33425000D03*
X7928000Y-33425000D03*
D11*
X20349999Y-13400000D03*
X19149999Y-13400000D03*
D12*
X37775000Y-15100000D03*
X36775000Y-15100000D03*
X10350000Y-15575000D03*
X11350000Y-15575000D03*
D13*
X46250000Y-17025000D03*
X46250000Y-17675000D03*
X46250000Y-18325000D03*
X46250000Y-18975000D03*
D14*
X49325000Y-18975000D03*
X49325000Y-18325000D03*
X49325000Y-17675000D03*
D15*
X48150000Y-18000000D03*
D14*
X49325000Y-17025000D03*
D13*
X49250000Y-26475000D03*
X49250000Y-25825000D03*
X49250000Y-25175000D03*
X49250000Y-24525000D03*
D14*
X46175000Y-24525000D03*
X46175000Y-25175000D03*
X46175000Y-25825000D03*
D15*
X47350000Y-25500000D03*
D14*
X46175000Y-26475000D03*
D13*
X46250000Y-28275000D03*
X46250000Y-28925000D03*
X46250000Y-29575000D03*
X46250000Y-30225000D03*
D14*
X49325000Y-30225000D03*
X49325000Y-29575000D03*
X49325000Y-28925000D03*
D15*
X48150000Y-29250000D03*
D14*
X49325000Y-28275000D03*
D13*
X49250000Y-37725000D03*
X49250000Y-37075000D03*
X49250000Y-36425000D03*
X49250000Y-35775000D03*
D14*
X46175000Y-35775000D03*
X46175000Y-36425000D03*
X46175000Y-37075000D03*
D15*
X47350000Y-36750000D03*
D14*
X46175000Y-37725000D03*
D13*
X46250000Y-32025000D03*
X46250000Y-32675000D03*
X46250000Y-33325000D03*
X46250000Y-33975000D03*
D14*
X49325000Y-33975000D03*
X49325000Y-33325000D03*
X49325000Y-32675000D03*
D15*
X48150000Y-33000000D03*
D14*
X49325000Y-32025000D03*
D13*
X49250000Y-22725000D03*
X49250000Y-22075000D03*
X49250000Y-21425000D03*
X49250000Y-20775000D03*
D14*
X46175000Y-20775000D03*
X46175000Y-21425000D03*
X46175000Y-22075000D03*
D15*
X47350000Y-21750000D03*
D14*
X46175000Y-22725000D03*
D16*
X38050000Y-13800000D03*
X38050000Y-11800000D03*
X36500000Y-11800000D03*
X36500000Y-13800000D03*
D17*
X30940000Y-27435000D03*
X32230000Y-27435000D03*
X33520000Y-27435000D03*
X34810000Y-27435000D03*
X30940000Y-26145000D03*
X32230000Y-26145000D03*
X33520000Y-26145000D03*
X34810000Y-26145000D03*
X30940000Y-24855000D03*
X32230000Y-24855000D03*
X33520000Y-24855000D03*
X34810000Y-24855000D03*
X30940000Y-23565000D03*
X32230000Y-23565000D03*
X33520000Y-23565000D03*
X34810000Y-23565000D03*
D18*
X30125000Y-28937500D03*
X30625000Y-28937500D03*
X31125000Y-28937500D03*
X31625000Y-28937500D03*
X32125000Y-28937500D03*
X32625000Y-28937500D03*
X33125000Y-28937500D03*
X33625000Y-28937500D03*
X34125000Y-28937500D03*
X34625000Y-28937500D03*
X35125000Y-28937500D03*
X35625000Y-28937500D03*
D19*
X36312500Y-28250000D03*
X36312500Y-27750000D03*
X36312500Y-27250000D03*
X36312500Y-26750000D03*
X36312500Y-26250000D03*
X36312500Y-25750000D03*
X36312500Y-25250000D03*
X36312500Y-24750000D03*
X36312500Y-24250000D03*
X36312500Y-23750000D03*
X36312500Y-23250000D03*
X36312500Y-22750000D03*
D18*
X35625000Y-22062500D03*
X35125000Y-22062500D03*
X34625000Y-22062500D03*
X34125000Y-22062500D03*
X33625000Y-22062500D03*
X33125000Y-22062500D03*
X32625000Y-22062500D03*
X32125000Y-22062500D03*
X31625000Y-22062500D03*
X31125000Y-22062500D03*
X30625000Y-22062500D03*
X30125000Y-22062500D03*
D19*
X29437500Y-22750000D03*
X29437500Y-23250000D03*
X29437500Y-23750000D03*
X29437500Y-24250000D03*
X29437500Y-24750000D03*
X29437500Y-25250000D03*
X29437500Y-25750000D03*
X29437500Y-26250000D03*
X29437500Y-26750000D03*
X29437500Y-27250000D03*
X29437500Y-27750000D03*
X29437500Y-28250000D03*
D20*
X19150000Y-17055000D03*
X20100000Y-17055000D03*
X21050000Y-17055000D03*
X21050000Y-14855000D03*
X19150000Y-14855000D03*
D21*
X13300000Y-14425000D03*
X13300000Y-13775000D03*
X13300000Y-13125000D03*
X13300000Y-12475000D03*
X10350000Y-12475000D03*
X10350000Y-13125000D03*
X10350000Y-13775000D03*
X10350000Y-14425000D03*
D22*
X11580000Y-36450000D03*
X7770000Y-36450000D03*
D10*
X44000000Y-33103000D03*
X44000000Y-35897000D03*
D12*
X48250000Y-39000000D03*
X49250000Y-39000000D03*
D23*
X31375000Y-32875000D03*
X32975000Y-32875000D03*
D12*
X44750000Y-23625000D03*
X43750000Y-23625000D03*
D24*
X28350000Y-35850000D03*
X28350000Y-34250000D03*
D25*
X21175000Y-25675000D03*
X21175000Y-24475000D03*
D11*
X28675000Y-19100000D03*
X27475000Y-19100000D03*
D25*
X20075000Y-25675000D03*
X20075000Y-24475000D03*
X22275000Y-25675000D03*
X22275000Y-24475000D03*
D26*
X29100000Y-5000000D03*
X29100000Y-4000000D03*
D12*
X34350000Y-14475000D03*
X35350000Y-14475000D03*
D26*
X26550000Y-12175000D03*
X26550000Y-13175000D03*
X37650000Y-27875000D03*
X37650000Y-28875000D03*
X30075000Y-5000000D03*
X30075000Y-4000000D03*
X32600000Y-5000000D03*
X32600000Y-4000000D03*
D12*
X28975000Y-30275000D03*
X29975000Y-30275000D03*
X28150000Y-30275000D03*
X27150000Y-30275000D03*
X28150000Y-28675000D03*
X27150000Y-28675000D03*
D26*
X32950000Y-31225000D03*
X32950000Y-30225000D03*
D12*
X36225000Y-9450000D03*
X37225000Y-9450000D03*
X27150000Y-27750000D03*
X28150000Y-27750000D03*
D26*
X30950000Y-30225000D03*
X30950000Y-31225000D03*
X32025000Y-30225000D03*
X32025000Y-31225000D03*
X36525000Y-19875000D03*
X36525000Y-20875000D03*
X37425000Y-19875000D03*
X37425000Y-20875000D03*
D12*
X35275000Y-4000000D03*
X36275000Y-4000000D03*
X33475000Y-4000000D03*
X34475000Y-4000000D03*
X26950000Y-26050000D03*
X27950000Y-26050000D03*
X20149999Y-18475000D03*
X19149999Y-18475000D03*
D27*
X20075000Y-21625000D03*
X22875000Y-21625000D03*
D12*
X36400000Y-30275000D03*
X35400000Y-30275000D03*
D28*
X15000000Y-33625000D03*
X23000000Y-33625000D03*
D29*
X46700000Y-12982500D03*
X46700000Y-4982500D03*
D30*
X33450000Y-11750000D03*
X33450000Y-10350000D03*
X33450000Y-8950000D03*
X33450000Y-7550000D03*
X32050000Y-11750000D03*
X32050000Y-10350000D03*
X32050000Y-8950000D03*
X32050000Y-7550000D03*
X30650000Y-11750000D03*
X30650000Y-10350000D03*
X30650000Y-8950000D03*
X30650000Y-7550000D03*
X29250000Y-11750000D03*
X29250000Y-10350000D03*
X29250000Y-8950000D03*
X29250000Y-7550000D03*
D31*
X34787500Y-12400000D03*
X34787500Y-11900000D03*
X34787500Y-11400000D03*
X34787500Y-10900000D03*
X34787500Y-10400000D03*
X34787500Y-9900000D03*
X34787500Y-9400000D03*
X34787500Y-8900000D03*
X34787500Y-8400000D03*
X34787500Y-7900000D03*
X34787500Y-7400000D03*
X34787500Y-6900000D03*
D32*
X34100000Y-6212500D03*
X33600000Y-6212500D03*
X33100000Y-6212500D03*
X32600000Y-6212500D03*
X32100000Y-6212500D03*
X31600000Y-6212500D03*
X31100000Y-6212500D03*
X30600000Y-6212500D03*
X30100000Y-6212500D03*
X29600000Y-6212500D03*
X29100000Y-6212500D03*
X28600000Y-6212500D03*
D31*
X27912500Y-6900000D03*
X27912500Y-7400000D03*
X27912500Y-7900000D03*
X27912500Y-8400000D03*
X27912500Y-8900000D03*
X27912500Y-9400000D03*
X27912500Y-9900000D03*
X27912500Y-10400000D03*
X27912500Y-10900000D03*
X27912500Y-11400000D03*
X27912500Y-11900000D03*
X27912500Y-12400000D03*
D32*
X28600000Y-13087500D03*
X29100000Y-13087500D03*
X29600000Y-13087500D03*
X30100000Y-13087500D03*
X30600000Y-13087500D03*
X31100000Y-13087500D03*
X31600000Y-13087500D03*
X32100000Y-13087500D03*
X32600000Y-13087500D03*
X33100000Y-13087500D03*
X33600000Y-13087500D03*
X34100000Y-13087500D03*
D12*
X7700000Y-3625000D03*
X8700000Y-3625000D03*
X10600000Y-2625000D03*
X9600000Y-2625000D03*
X10600000Y-3625000D03*
X9600000Y-3625000D03*
D26*
X28125000Y-5000000D03*
X28125000Y-4000000D03*
X27150000Y-4000000D03*
X27150000Y-5000000D03*
D12*
X36225000Y-8400000D03*
X37225000Y-8400000D03*
D26*
X29900000Y-19875000D03*
X29900000Y-20875000D03*
D12*
X7700000Y-2625000D03*
X8700000Y-2625000D03*
D26*
X39275000Y-13300000D03*
X39275000Y-12300000D03*
D33*
X24950000Y-22075000D03*
X24950000Y-24875000D03*
D24*
X40750000Y-37550000D03*
X40750000Y-35950000D03*
D12*
X33600000Y-18225000D03*
X34600000Y-18225000D03*
D26*
X35400000Y-19875000D03*
X35400000Y-20875000D03*
D23*
X25675000Y-26675000D03*
X24075000Y-26675000D03*
D34*
X55275000Y-17200000D03*
X55275000Y-16200000D03*
X55275000Y-15200000D03*
X55275000Y-14200000D03*
X55275000Y-13200000D03*
X55275000Y-12200000D03*
X55275000Y-11200000D03*
X55275000Y-10200000D03*
X55275000Y-9200000D03*
X55275000Y-8200000D03*
D35*
X58775000Y-18700000D03*
X58775000Y-6700000D03*
D36*
X7981299Y-15607609D03*
X8907609Y-14681299D03*
X8518701Y-14292391D03*
X7592391Y-15218701D03*
D12*
X36225000Y-7350000D03*
X37225000Y-7350000D03*
X53475000Y-15200000D03*
X52475000Y-15200000D03*
D26*
X34350000Y-15350000D03*
X34350000Y-16350000D03*
D12*
X53475000Y-10200000D03*
X52475000Y-10200000D03*
D10*
X44000000Y-20897000D03*
X44000000Y-18103000D03*
D26*
X37650000Y-24500000D03*
X37650000Y-23500000D03*
D12*
X53475000Y-9200000D03*
X52475000Y-9200000D03*
D29*
X12700000Y-26525000D03*
X12700000Y-18525000D03*
D12*
X36225000Y-6400000D03*
X37225000Y-6400000D03*
X11325000Y-11325000D03*
X12325000Y-11325000D03*
D26*
X38325000Y-19875000D03*
X38325000Y-20875000D03*
D12*
X53475000Y-11200000D03*
X52475000Y-11200000D03*
D37*
X18612500Y-9800000D03*
X19462500Y-9800000D03*
X18612500Y-8950000D03*
X19462500Y-8950000D03*
D38*
X18287500Y-10837500D03*
X18787500Y-10837500D03*
X19287500Y-10837500D03*
X19787500Y-10837500D03*
D39*
X20500000Y-10125000D03*
X20500000Y-9625000D03*
X20500000Y-9125000D03*
X20500000Y-8625000D03*
D38*
X19787500Y-7912500D03*
X19287500Y-7912500D03*
X18787500Y-7912500D03*
X18287500Y-7912500D03*
D39*
X17575000Y-8625000D03*
X17575000Y-9125000D03*
X17575000Y-9625000D03*
X17575000Y-10125000D03*
D12*
X17175000Y-12050000D03*
X18175000Y-12050000D03*
X53475000Y-12200000D03*
X52475000Y-12200000D03*
D11*
X20350000Y-12075000D03*
X19150000Y-12075000D03*
D12*
X53475000Y-13150000D03*
X52475000Y-13150000D03*
X53475000Y-14200000D03*
X52475000Y-14200000D03*
D26*
X25750000Y-4000000D03*
X25750000Y-5000000D03*
X35350000Y-15350000D03*
X35350000Y-16350000D03*
M02*
