M48
; DRILL file {KiCad 7.0.2} date Wednesday, August 30, 2023 AM11:59:46
; FORMAT={-:-/ absolute / metric / decimal}
; #@! TF.CreationDate,2023-08-30T11:59:46+08:00
; #@! TF.GenerationSoftware,Kicad,Pcbnew,7.0.2
; #@! TF.FileFunction,Plated,1,2,PTH
FMAT,2
METRIC
; #@! TA.AperFunction,Plated,PTH,ViaDrill
T1C0.300
; #@! TA.AperFunction,Plated,PTH,ComponentDrill
T2C0.400
; #@! TA.AperFunction,Plated,PTH,ComponentDrill
T3C0.750
; #@! TA.AperFunction,Plated,PTH,ComponentDrill
T4C3.000
%
G90
G05
T1
X6.675Y-36.45
X7.775Y-35.35
X7.775Y-37.55
X11.125Y-17.25
X11.125Y-17.9
X11.125Y-18.55
X11.125Y-19.175
X11.125Y-19.8
X13.825Y-6.85
X13.825Y-11.325
X14.025Y-6.024
X14.026Y-5.275
X14.275Y-17.875
X14.275Y-18.525
X14.275Y-19.15
X14.275Y-19.775
X14.675Y-11.325
X15.225Y-4.324
X15.225Y-5.072
X15.225Y-5.825
X15.625Y-14.35
X15.875Y-3.675
X17.175Y-11.425
X19.037Y-9.375
X19.425Y-25.175
X20.1Y-16.2
X20.725Y-18.475
X21.025Y-13.4
X21.025Y-12.075
X21.75Y-32.05
X21.775Y-35.2
X22.375Y-32.05
X22.4Y-35.2
X22.475Y-8.971
X22.925Y-25.175
X23.0Y-32.05
X23.025Y-35.2
X23.1Y-7.923
X23.25Y-26.675
X23.65Y-32.05
X23.675Y-35.2
X24.075Y-27.75
X24.3Y-32.05
X24.325Y-35.2
X24.55Y-15.175
X24.725Y-14.175
X25.125Y-3.425
X25.75Y-28.95
X25.8Y-16.175
X26.0Y-9.424
X26.1Y-17.175
X26.25Y-6.0
X26.375Y-4.0
X26.39Y-11.475
X26.4Y-14.575
X26.525Y-5.0
X26.55Y-13.75
X26.575Y-27.75
X27.15Y-29.65
X27.275Y-34.25
X27.475Y-19.775
X27.975Y-5.975
X28.125Y-25.225
X28.35Y-33.425
X28.675Y-18.425
X28.675Y-23.225
X28.675Y-24.275
X28.675Y-25.75
X28.85Y-7.15
X28.85Y-12.15
X29.1Y-3.425
X29.204Y-16.146
X29.25Y-29.1
X29.475Y-16.85
X29.624Y-15.079
X29.9Y-19.3
X30.075Y-3.425
X30.6Y-23.225
X30.6Y-24.35
X30.6Y-25.5
X30.6Y-26.625
X30.6Y-27.775
X30.625Y-21.3
X30.7Y-5.0
X31.092Y-4.25
X31.35Y-9.65
X31.725Y-23.225
X31.725Y-24.35
X31.725Y-25.5
X31.725Y-26.625
X31.725Y-27.775
X32.522Y-18.787
X32.6Y-3.425
X32.625Y-16.425
X32.875Y-23.225
X32.875Y-24.35
X32.875Y-25.5
X32.875Y-26.625
X32.875Y-27.775
X32.95Y-31.8
X33.576Y-18.87
X33.8Y-32.525
X33.85Y-7.15
X33.85Y-12.15
X34.0Y-23.225
X34.0Y-24.35
X34.0Y-25.5
X34.0Y-26.625
X34.0Y-27.775
X34.625Y-21.3
X34.65Y-13.85
X34.872Y-3.276
X35.0Y-6.05
X35.15Y-23.225
X35.15Y-24.35
X35.15Y-25.5
X35.15Y-26.625
X35.15Y-27.775
X35.4Y-19.3
X35.45Y-13.85
X35.65Y-6.425
X36.5Y-29.1
X36.625Y-17.85
X36.9Y-19.125
X36.975Y-16.11
X37.676Y-15.848
X37.8Y-6.4
X37.8Y-7.35
X37.8Y-8.4
X37.8Y-9.45
X37.95Y-19.125
X38.28Y-23.605
X38.9Y-11.725
X39.025Y-19.125
X39.067Y-28.282
X39.15Y-10.8
X39.45Y-6.55
X39.675Y-35.875
X39.975Y-19.125
X40.2Y-24.825
X40.4Y-12.49
X40.55Y-26.575
X41.45Y-8.5
X41.633Y-9.842
X41.825Y-35.975
X42.11Y-16.393
X42.3Y-33.275
X42.3Y-35.396
X42.625Y-15.85
X42.925Y-21.3
X42.925Y-25.675
X42.925Y-36.3
X43.175Y-23.625
X43.35Y-21.975
X43.35Y-25.0
X43.35Y-36.975
X43.656Y-10.569
X44.0Y-21.975
X44.0Y-25.0
X44.0Y-36.975
X44.2Y-37.825
X44.2Y-38.475
X44.209Y-11.076
X44.478Y-8.642
X44.65Y-21.975
X44.65Y-25.0
X44.65Y-36.975
X44.85Y-37.825
X44.85Y-38.475
X44.9Y-31.125
X45.008Y-9.172
X45.072Y-25.675
X45.072Y-26.325
X45.075Y-20.65
X45.075Y-21.3
X45.075Y-35.675
X45.075Y-36.3
X45.125Y-3.7
X45.125Y-4.35
X45.125Y-5.0
X45.125Y-5.625
X45.125Y-6.25
X45.425Y-38.15
X46.825Y-20.925
X46.825Y-21.75
X46.825Y-22.575
X46.825Y-24.675
X46.825Y-25.5
X46.825Y-26.325
X46.825Y-35.925
X46.825Y-36.75
X46.825Y-37.575
X47.9Y-20.925
X47.9Y-21.75
X47.9Y-22.575
X47.9Y-24.675
X47.9Y-25.5
X47.9Y-26.325
X47.9Y-35.925
X47.9Y-36.75
X47.9Y-37.575
X48.075Y-17.575
X48.075Y-18.4
X48.075Y-28.825
X48.075Y-29.65
X48.075Y-32.575
X48.075Y-33.4
X48.275Y-4.35
X48.275Y-5.0
X48.275Y-5.625
X48.275Y-6.25
X48.275Y-11.7
X48.275Y-12.35
X48.275Y-13.0
X48.275Y-13.625
X48.275Y-14.25
X48.675Y-17.175
X48.675Y-18.0
X48.675Y-18.825
X48.675Y-28.425
X48.675Y-29.25
X48.675Y-30.075
X48.675Y-32.175
X48.675Y-33.0
X48.675Y-33.825
X49.825Y-39.0
X50.307Y-9.55
X50.475Y-39.0
X51.1Y-39.0
T2
X27.5Y-14.825
X27.5Y-15.825
X27.5Y-16.825
X27.5Y-17.825
T3
X5.0Y-9.8
X5.0Y-12.3
X5.0Y-14.8
X5.0Y-17.3
X5.0Y-22.725
X5.0Y-25.225
X5.0Y-27.725
X5.0Y-30.225
X55.0Y-24.875
X55.0Y-27.375
X55.0Y-29.875
T4
X3.0Y-3.0
X3.0Y-37.0
X57.0Y-3.0
X57.0Y-37.0
T0
M30
