G04 #@! TF.GenerationSoftware,KiCad,Pcbnew,7.0.2*
G04 #@! TF.CreationDate,2023-08-30T11:59:43+08:00*
G04 #@! TF.ProjectId,bldc_driver,626c6463-5f64-4726-9976-65722e6b6963,rev?*
G04 #@! TF.SameCoordinates,PX58b1140PY3750280*
G04 #@! TF.FileFunction,Soldermask,Bot*
G04 #@! TF.FilePolarity,Negative*
%FSLAX46Y46*%
G04 Gerber Fmt 4.6, Leading zero omitted, Abs format (unit mm)*
G04 Created by KiCad (PCBNEW 7.0.2) date 2023-08-30 11:59:43*
%MOMM*%
%LPD*%
G01*
G04 APERTURE LIST*
G04 APERTURE END LIST*
G36*
X3072409Y-34634746D02*
G01*
X3148810Y-34634746D01*
X3231196Y-34645153D01*
X3309347Y-34650276D01*
X3374790Y-34663293D01*
X3444083Y-34672047D01*
X3531033Y-34694372D01*
X3613401Y-34710756D01*
X3671014Y-34730313D01*
X3732348Y-34746061D01*
X3822160Y-34781620D01*
X3906960Y-34810406D01*
X3956221Y-34834699D01*
X4009064Y-34855621D01*
X4099817Y-34905512D01*
X4185000Y-34947520D01*
X4225713Y-34974723D01*
X4269872Y-34999000D01*
X4359471Y-35064098D01*
X4442765Y-35119753D01*
X4475082Y-35148094D01*
X4510654Y-35173939D01*
X4596840Y-35254873D01*
X4675843Y-35324157D01*
X4700220Y-35351953D01*
X4727604Y-35377669D01*
X4808027Y-35474884D01*
X4880247Y-35557235D01*
X4897438Y-35582964D01*
X4917312Y-35606987D01*
X4989588Y-35720876D01*
X5052480Y-35815000D01*
X5063489Y-35837325D01*
X5076786Y-35858277D01*
X5138555Y-35989544D01*
X5189594Y-36093040D01*
X5195644Y-36110865D01*
X5203506Y-36127571D01*
X5252474Y-36278278D01*
X5289244Y-36386599D01*
X5291729Y-36399092D01*
X5295475Y-36410621D01*
X5329470Y-36588831D01*
X5349724Y-36690653D01*
X5350158Y-36697281D01*
X5351243Y-36702967D01*
X5368257Y-36973407D01*
X5370000Y-37000000D01*
X5368256Y-37026594D01*
X5351243Y-37297032D01*
X5350158Y-37302716D01*
X5349724Y-37309347D01*
X5329465Y-37411191D01*
X5295475Y-37589378D01*
X5291729Y-37600905D01*
X5289244Y-37613401D01*
X5252466Y-37721743D01*
X5203506Y-37872428D01*
X5195646Y-37889131D01*
X5189594Y-37906960D01*
X5138545Y-38010476D01*
X5076786Y-38141722D01*
X5063491Y-38162670D01*
X5052480Y-38185000D01*
X4989576Y-38279142D01*
X4917312Y-38393012D01*
X4897442Y-38417030D01*
X4880247Y-38442765D01*
X4808012Y-38525132D01*
X4727604Y-38622330D01*
X4700225Y-38648040D01*
X4675843Y-38675843D01*
X4596823Y-38745140D01*
X4510654Y-38826060D01*
X4475089Y-38851899D01*
X4442765Y-38880247D01*
X4359454Y-38935913D01*
X4269872Y-39000999D01*
X4225722Y-39025270D01*
X4185000Y-39052480D01*
X4099800Y-39094495D01*
X4009064Y-39144378D01*
X3956232Y-39165295D01*
X3906960Y-39189594D01*
X3822142Y-39218385D01*
X3732348Y-39253938D01*
X3671026Y-39269682D01*
X3613401Y-39289244D01*
X3531015Y-39305631D01*
X3444083Y-39327952D01*
X3374800Y-39336704D01*
X3309347Y-39349724D01*
X3231192Y-39354846D01*
X3148810Y-39365254D01*
X3072409Y-39365254D01*
X3000000Y-39370000D01*
X2927591Y-39365254D01*
X2851190Y-39365254D01*
X2768807Y-39354846D01*
X2690653Y-39349724D01*
X2625200Y-39336704D01*
X2555916Y-39327952D01*
X2468979Y-39305630D01*
X2386599Y-39289244D01*
X2328976Y-39269683D01*
X2267651Y-39253938D01*
X2177850Y-39218383D01*
X2093040Y-39189594D01*
X2043771Y-39165297D01*
X1990935Y-39144378D01*
X1900190Y-39094491D01*
X1815000Y-39052480D01*
X1774282Y-39025273D01*
X1730127Y-39000999D01*
X1640533Y-38935905D01*
X1557235Y-38880247D01*
X1524915Y-38851903D01*
X1489345Y-38826060D01*
X1403160Y-38745127D01*
X1324157Y-38675843D01*
X1299779Y-38648045D01*
X1272395Y-38622330D01*
X1191969Y-38525112D01*
X1119753Y-38442765D01*
X1102561Y-38417036D01*
X1082687Y-38393012D01*
X1010404Y-38279112D01*
X947520Y-38185000D01*
X936511Y-38162677D01*
X923213Y-38141722D01*
X861432Y-38010431D01*
X810406Y-37906960D01*
X804356Y-37889138D01*
X796493Y-37872428D01*
X747510Y-37721675D01*
X710756Y-37613401D01*
X708272Y-37600913D01*
X704524Y-37589378D01*
X670509Y-37411068D01*
X650276Y-37309347D01*
X649841Y-37302724D01*
X648756Y-37297032D01*
X631718Y-37026214D01*
X630000Y-37000000D01*
X631718Y-36973787D01*
X648756Y-36702967D01*
X649842Y-36697273D01*
X650276Y-36690653D01*
X670505Y-36588954D01*
X704524Y-36410621D01*
X708272Y-36399084D01*
X710756Y-36386599D01*
X747502Y-36278347D01*
X796493Y-36127571D01*
X804357Y-36110857D01*
X810406Y-36093040D01*
X861422Y-35989588D01*
X923213Y-35858277D01*
X936513Y-35837318D01*
X947520Y-35815000D01*
X1010391Y-35720906D01*
X1082687Y-35606987D01*
X1102565Y-35582958D01*
X1119753Y-35557235D01*
X1191955Y-35474904D01*
X1272395Y-35377669D01*
X1299784Y-35351948D01*
X1324157Y-35324157D01*
X1403144Y-35254886D01*
X1489345Y-35173939D01*
X1524922Y-35148090D01*
X1557235Y-35119753D01*
X1640516Y-35064106D01*
X1730127Y-34999000D01*
X1774290Y-34974720D01*
X1815000Y-34947520D01*
X1900172Y-34905517D01*
X1990935Y-34855621D01*
X2043782Y-34834697D01*
X2093040Y-34810406D01*
X2177832Y-34781622D01*
X2267651Y-34746061D01*
X2328988Y-34730312D01*
X2386599Y-34710756D01*
X2468962Y-34694372D01*
X2555916Y-34672047D01*
X2625211Y-34663293D01*
X2690653Y-34650276D01*
X2768802Y-34645153D01*
X2851190Y-34634746D01*
X2927591Y-34634746D01*
X3000000Y-34630000D01*
X3072409Y-34634746D01*
G37*
G36*
X44754788Y-34035328D02*
G01*
X44777497Y-34050503D01*
X44792672Y-34073212D01*
X44798000Y-34100000D01*
X44798000Y-35600000D01*
X44792672Y-35626788D01*
X44777497Y-35649497D01*
X44754788Y-35664672D01*
X44728000Y-35670000D01*
X43228000Y-35670000D01*
X43201212Y-35664672D01*
X43178503Y-35649497D01*
X43163328Y-35626788D01*
X43158000Y-35600000D01*
X43158000Y-34100000D01*
X43163328Y-34073212D01*
X43178503Y-34050503D01*
X43201212Y-34035328D01*
X43228000Y-34030000D01*
X44728000Y-34030000D01*
X44754788Y-34035328D01*
G37*
G36*
X47548788Y-34035328D02*
G01*
X47571497Y-34050503D01*
X47586672Y-34073212D01*
X47592000Y-34100000D01*
X47592000Y-35600000D01*
X47586672Y-35626788D01*
X47571497Y-35649497D01*
X47548788Y-35664672D01*
X47522000Y-35670000D01*
X46022000Y-35670000D01*
X45995212Y-35664672D01*
X45972503Y-35649497D01*
X45957328Y-35626788D01*
X45952000Y-35600000D01*
X45952000Y-34100000D01*
X45957328Y-34073212D01*
X45972503Y-34050503D01*
X45995212Y-34035328D01*
X46022000Y-34030000D01*
X47522000Y-34030000D01*
X47548788Y-34035328D01*
G37*
G36*
X57072409Y-34634746D02*
G01*
X57148810Y-34634746D01*
X57231196Y-34645153D01*
X57309347Y-34650276D01*
X57374790Y-34663293D01*
X57444083Y-34672047D01*
X57531033Y-34694372D01*
X57613401Y-34710756D01*
X57671014Y-34730313D01*
X57732348Y-34746061D01*
X57822160Y-34781620D01*
X57906960Y-34810406D01*
X57956221Y-34834699D01*
X58009064Y-34855621D01*
X58099817Y-34905512D01*
X58185000Y-34947520D01*
X58225713Y-34974723D01*
X58269872Y-34999000D01*
X58359471Y-35064098D01*
X58442765Y-35119753D01*
X58475082Y-35148094D01*
X58510654Y-35173939D01*
X58596840Y-35254873D01*
X58675843Y-35324157D01*
X58700220Y-35351953D01*
X58727604Y-35377669D01*
X58808027Y-35474884D01*
X58880247Y-35557235D01*
X58897438Y-35582964D01*
X58917312Y-35606987D01*
X58989588Y-35720876D01*
X59052480Y-35815000D01*
X59063489Y-35837325D01*
X59076786Y-35858277D01*
X59138555Y-35989544D01*
X59189594Y-36093040D01*
X59195644Y-36110865D01*
X59203506Y-36127571D01*
X59252474Y-36278278D01*
X59289244Y-36386599D01*
X59291729Y-36399092D01*
X59295475Y-36410621D01*
X59329470Y-36588831D01*
X59349724Y-36690653D01*
X59350158Y-36697281D01*
X59351243Y-36702967D01*
X59368258Y-36973429D01*
X59370000Y-37000000D01*
X59368255Y-37026616D01*
X59351243Y-37297032D01*
X59350158Y-37302716D01*
X59349724Y-37309347D01*
X59329465Y-37411191D01*
X59295475Y-37589378D01*
X59291729Y-37600905D01*
X59289244Y-37613401D01*
X59252466Y-37721743D01*
X59203506Y-37872428D01*
X59195646Y-37889131D01*
X59189594Y-37906960D01*
X59138545Y-38010476D01*
X59076786Y-38141722D01*
X59063491Y-38162670D01*
X59052480Y-38185000D01*
X58989576Y-38279142D01*
X58917312Y-38393012D01*
X58897442Y-38417030D01*
X58880247Y-38442765D01*
X58808012Y-38525132D01*
X58727604Y-38622330D01*
X58700225Y-38648040D01*
X58675843Y-38675843D01*
X58596823Y-38745140D01*
X58510654Y-38826060D01*
X58475089Y-38851899D01*
X58442765Y-38880247D01*
X58359454Y-38935913D01*
X58269872Y-39000999D01*
X58225722Y-39025270D01*
X58185000Y-39052480D01*
X58099800Y-39094495D01*
X58009064Y-39144378D01*
X57956232Y-39165295D01*
X57906960Y-39189594D01*
X57822142Y-39218385D01*
X57732348Y-39253938D01*
X57671026Y-39269682D01*
X57613401Y-39289244D01*
X57531015Y-39305631D01*
X57444083Y-39327952D01*
X57374800Y-39336704D01*
X57309347Y-39349724D01*
X57231192Y-39354846D01*
X57148810Y-39365254D01*
X57072409Y-39365254D01*
X57000000Y-39370000D01*
X56927591Y-39365254D01*
X56851190Y-39365254D01*
X56768807Y-39354846D01*
X56690653Y-39349724D01*
X56625200Y-39336704D01*
X56555916Y-39327952D01*
X56468979Y-39305630D01*
X56386599Y-39289244D01*
X56328976Y-39269683D01*
X56267651Y-39253938D01*
X56177850Y-39218383D01*
X56093040Y-39189594D01*
X56043771Y-39165297D01*
X55990935Y-39144378D01*
X55900190Y-39094491D01*
X55815000Y-39052480D01*
X55774282Y-39025273D01*
X55730127Y-39000999D01*
X55640533Y-38935905D01*
X55557235Y-38880247D01*
X55524915Y-38851903D01*
X55489345Y-38826060D01*
X55403160Y-38745127D01*
X55324157Y-38675843D01*
X55299779Y-38648045D01*
X55272395Y-38622330D01*
X55191969Y-38525112D01*
X55119753Y-38442765D01*
X55102561Y-38417036D01*
X55082687Y-38393012D01*
X55010404Y-38279112D01*
X54947520Y-38185000D01*
X54936511Y-38162677D01*
X54923213Y-38141722D01*
X54861432Y-38010431D01*
X54810406Y-37906960D01*
X54804356Y-37889138D01*
X54796493Y-37872428D01*
X54747510Y-37721675D01*
X54710756Y-37613401D01*
X54708272Y-37600913D01*
X54704524Y-37589378D01*
X54670509Y-37411068D01*
X54650276Y-37309347D01*
X54649841Y-37302724D01*
X54648756Y-37297032D01*
X54631718Y-37026214D01*
X54630000Y-37000000D01*
X54631718Y-36973787D01*
X54648756Y-36702967D01*
X54649842Y-36697273D01*
X54650276Y-36690653D01*
X54670505Y-36588954D01*
X54704524Y-36410621D01*
X54708272Y-36399084D01*
X54710756Y-36386599D01*
X54747502Y-36278347D01*
X54796493Y-36127571D01*
X54804357Y-36110857D01*
X54810406Y-36093040D01*
X54861422Y-35989588D01*
X54923213Y-35858277D01*
X54936513Y-35837318D01*
X54947520Y-35815000D01*
X55010391Y-35720906D01*
X55082687Y-35606987D01*
X55102565Y-35582958D01*
X55119753Y-35557235D01*
X55191955Y-35474904D01*
X55272395Y-35377669D01*
X55299784Y-35351948D01*
X55324157Y-35324157D01*
X55403144Y-35254886D01*
X55489345Y-35173939D01*
X55524922Y-35148090D01*
X55557235Y-35119753D01*
X55640516Y-35064106D01*
X55730127Y-34999000D01*
X55774290Y-34974720D01*
X55815000Y-34947520D01*
X55900172Y-34905517D01*
X55990935Y-34855621D01*
X56043782Y-34834697D01*
X56093040Y-34810406D01*
X56177832Y-34781622D01*
X56267651Y-34746061D01*
X56328988Y-34730312D01*
X56386599Y-34710756D01*
X56468962Y-34694372D01*
X56555916Y-34672047D01*
X56625211Y-34663293D01*
X56690653Y-34650276D01*
X56768802Y-34645153D01*
X56851190Y-34634746D01*
X56927591Y-34634746D01*
X57000000Y-34630000D01*
X57072409Y-34634746D01*
G37*
G36*
X5075825Y-29305086D02*
G01*
X5167178Y-29309719D01*
X5216669Y-29319889D01*
X5266279Y-29325104D01*
X5307991Y-29338657D01*
X5350359Y-29347364D01*
X5398906Y-29368197D01*
X5449198Y-29384538D01*
X5484558Y-29404953D01*
X5521390Y-29420759D01*
X5567394Y-29452778D01*
X5615762Y-29480704D01*
X5643844Y-29505989D01*
X5674146Y-29527080D01*
X5715002Y-29570060D01*
X5758693Y-29609400D01*
X5779110Y-29637501D01*
X5802370Y-29661971D01*
X5835465Y-29715068D01*
X5871743Y-29765000D01*
X5884632Y-29793949D01*
X5900819Y-29819919D01*
X5923693Y-29881681D01*
X5949972Y-29940704D01*
X5955924Y-29968707D01*
X5965456Y-29994444D01*
X5975936Y-30062857D01*
X5989960Y-30128834D01*
X5989960Y-30154400D01*
X5993638Y-30178410D01*
X5989960Y-30250937D01*
X5989960Y-30321166D01*
X5985282Y-30343171D01*
X5984212Y-30364283D01*
X5965130Y-30437981D01*
X5949972Y-30509296D01*
X5942071Y-30527041D01*
X5937561Y-30544461D01*
X5902412Y-30616116D01*
X5871743Y-30685000D01*
X5862138Y-30698219D01*
X5855599Y-30711551D01*
X5804338Y-30777774D01*
X5758693Y-30840600D01*
X5748842Y-30849469D01*
X5741679Y-30858724D01*
X5674801Y-30916136D01*
X5615762Y-30969296D01*
X5606955Y-30974380D01*
X5600463Y-30979954D01*
X5518640Y-31025369D01*
X5449198Y-31065462D01*
X5442467Y-31067648D01*
X5437736Y-31070275D01*
X5340247Y-31100862D01*
X5266279Y-31124896D01*
X5262319Y-31125312D01*
X5260156Y-31125991D01*
X5127800Y-31139450D01*
X5075000Y-31145000D01*
X5073229Y-31145000D01*
X4925886Y-31145000D01*
X4925000Y-31145000D01*
X4924173Y-31144913D01*
X4832821Y-31140280D01*
X4783338Y-31130110D01*
X4733721Y-31124896D01*
X4692002Y-31111340D01*
X4649640Y-31102635D01*
X4601099Y-31081804D01*
X4550802Y-31065462D01*
X4515437Y-31045044D01*
X4478609Y-31029240D01*
X4432608Y-30997222D01*
X4384238Y-30969296D01*
X4356154Y-30944009D01*
X4325853Y-30922919D01*
X4284997Y-30879939D01*
X4241307Y-30840600D01*
X4220890Y-30812498D01*
X4197629Y-30788028D01*
X4164531Y-30734927D01*
X4128257Y-30685000D01*
X4115368Y-30656052D01*
X4099180Y-30630080D01*
X4076302Y-30568309D01*
X4050028Y-30509296D01*
X4044076Y-30481296D01*
X4034543Y-30455555D01*
X4024060Y-30387128D01*
X4010040Y-30321166D01*
X4010040Y-30295604D01*
X4006361Y-30271589D01*
X4010040Y-30199042D01*
X4010040Y-30128834D01*
X4014716Y-30106834D01*
X4015787Y-30085716D01*
X4034875Y-30011991D01*
X4050028Y-29940704D01*
X4057925Y-29922965D01*
X4062438Y-29905538D01*
X4097602Y-29833850D01*
X4128257Y-29765000D01*
X4137857Y-29751786D01*
X4144400Y-29738448D01*
X4195688Y-29672188D01*
X4241307Y-29609400D01*
X4251151Y-29600535D01*
X4258320Y-29591275D01*
X4325243Y-29533823D01*
X4384238Y-29480704D01*
X4393038Y-29475623D01*
X4399536Y-29470045D01*
X4481429Y-29424590D01*
X4550802Y-29384538D01*
X4557526Y-29382353D01*
X4562263Y-29379724D01*
X4659869Y-29349099D01*
X4733721Y-29325104D01*
X4737673Y-29324688D01*
X4739843Y-29324008D01*
X4872293Y-29310539D01*
X4925000Y-29305000D01*
X5075000Y-29305000D01*
X5075825Y-29305086D01*
G37*
G36*
X55757822Y-28965904D02*
G01*
X55762599Y-28968131D01*
X55765833Y-28968603D01*
X55811766Y-28991058D01*
X55858544Y-29012871D01*
X55860609Y-29014936D01*
X55860664Y-29014963D01*
X55935036Y-29089335D01*
X55935062Y-29089389D01*
X55937129Y-29091456D01*
X55958952Y-29138256D01*
X55981396Y-29184166D01*
X55981866Y-29187397D01*
X55984096Y-29192178D01*
X55995000Y-29275000D01*
X55995000Y-30475000D01*
X55984096Y-30557822D01*
X55981866Y-30562603D01*
X55981396Y-30565833D01*
X55958962Y-30611722D01*
X55937129Y-30658544D01*
X55935061Y-30660611D01*
X55935036Y-30660664D01*
X55860664Y-30735036D01*
X55860611Y-30735061D01*
X55858544Y-30737129D01*
X55811722Y-30758962D01*
X55765833Y-30781396D01*
X55762603Y-30781866D01*
X55757822Y-30784096D01*
X55675000Y-30795000D01*
X54325000Y-30795000D01*
X54242178Y-30784096D01*
X54237397Y-30781866D01*
X54234166Y-30781396D01*
X54188256Y-30758952D01*
X54141456Y-30737129D01*
X54139389Y-30735062D01*
X54139335Y-30735036D01*
X54064963Y-30660664D01*
X54064936Y-30660609D01*
X54062871Y-30658544D01*
X54041058Y-30611766D01*
X54018603Y-30565833D01*
X54018131Y-30562599D01*
X54015904Y-30557822D01*
X54005000Y-30475000D01*
X54005000Y-29275000D01*
X54015904Y-29192178D01*
X54018131Y-29187400D01*
X54018603Y-29184166D01*
X54041068Y-29138211D01*
X54062871Y-29091456D01*
X54064935Y-29089391D01*
X54064963Y-29089335D01*
X54139335Y-29014963D01*
X54139391Y-29014935D01*
X54141456Y-29012871D01*
X54188211Y-28991068D01*
X54234166Y-28968603D01*
X54237400Y-28968131D01*
X54242178Y-28965904D01*
X54325000Y-28955000D01*
X55675000Y-28955000D01*
X55757822Y-28965904D01*
G37*
G36*
X5075825Y-26805086D02*
G01*
X5167178Y-26809719D01*
X5216669Y-26819889D01*
X5266279Y-26825104D01*
X5307991Y-26838657D01*
X5350359Y-26847364D01*
X5398906Y-26868197D01*
X5449198Y-26884538D01*
X5484558Y-26904953D01*
X5521390Y-26920759D01*
X5567394Y-26952778D01*
X5615762Y-26980704D01*
X5643844Y-27005989D01*
X5674146Y-27027080D01*
X5715002Y-27070060D01*
X5758693Y-27109400D01*
X5779110Y-27137501D01*
X5802370Y-27161971D01*
X5835465Y-27215068D01*
X5871743Y-27265000D01*
X5884632Y-27293949D01*
X5900819Y-27319919D01*
X5923693Y-27381681D01*
X5949972Y-27440704D01*
X5955924Y-27468707D01*
X5965456Y-27494444D01*
X5975936Y-27562857D01*
X5989960Y-27628834D01*
X5989960Y-27654400D01*
X5993638Y-27678410D01*
X5989960Y-27750937D01*
X5989960Y-27821166D01*
X5985282Y-27843171D01*
X5984212Y-27864283D01*
X5965130Y-27937981D01*
X5949972Y-28009296D01*
X5942071Y-28027041D01*
X5937561Y-28044461D01*
X5902412Y-28116116D01*
X5871743Y-28185000D01*
X5862138Y-28198219D01*
X5855599Y-28211551D01*
X5804338Y-28277774D01*
X5758693Y-28340600D01*
X5748842Y-28349469D01*
X5741679Y-28358724D01*
X5674801Y-28416136D01*
X5615762Y-28469296D01*
X5606955Y-28474380D01*
X5600463Y-28479954D01*
X5518640Y-28525369D01*
X5449198Y-28565462D01*
X5442467Y-28567648D01*
X5437736Y-28570275D01*
X5340247Y-28600862D01*
X5266279Y-28624896D01*
X5262319Y-28625312D01*
X5260156Y-28625991D01*
X5127800Y-28639450D01*
X5075000Y-28645000D01*
X5073229Y-28645000D01*
X4925886Y-28645000D01*
X4925000Y-28645000D01*
X4924173Y-28644913D01*
X4832821Y-28640280D01*
X4783338Y-28630110D01*
X4733721Y-28624896D01*
X4692002Y-28611340D01*
X4649640Y-28602635D01*
X4601099Y-28581804D01*
X4550802Y-28565462D01*
X4515437Y-28545044D01*
X4478609Y-28529240D01*
X4432608Y-28497222D01*
X4384238Y-28469296D01*
X4356154Y-28444009D01*
X4325853Y-28422919D01*
X4284997Y-28379939D01*
X4241307Y-28340600D01*
X4220890Y-28312498D01*
X4197629Y-28288028D01*
X4164531Y-28234927D01*
X4128257Y-28185000D01*
X4115368Y-28156052D01*
X4099180Y-28130080D01*
X4076302Y-28068309D01*
X4050028Y-28009296D01*
X4044076Y-27981296D01*
X4034543Y-27955555D01*
X4024060Y-27887128D01*
X4010040Y-27821166D01*
X4010040Y-27795604D01*
X4006361Y-27771589D01*
X4010040Y-27699042D01*
X4010040Y-27628834D01*
X4014716Y-27606834D01*
X4015787Y-27585716D01*
X4034875Y-27511991D01*
X4050028Y-27440704D01*
X4057925Y-27422965D01*
X4062438Y-27405538D01*
X4097602Y-27333850D01*
X4128257Y-27265000D01*
X4137857Y-27251786D01*
X4144400Y-27238448D01*
X4195688Y-27172188D01*
X4241307Y-27109400D01*
X4251151Y-27100535D01*
X4258320Y-27091275D01*
X4325243Y-27033823D01*
X4384238Y-26980704D01*
X4393038Y-26975623D01*
X4399536Y-26970045D01*
X4481429Y-26924590D01*
X4550802Y-26884538D01*
X4557526Y-26882353D01*
X4562263Y-26879724D01*
X4659869Y-26849099D01*
X4733721Y-26825104D01*
X4737673Y-26824688D01*
X4739843Y-26824008D01*
X4872293Y-26810539D01*
X4925000Y-26805000D01*
X5075000Y-26805000D01*
X5075825Y-26805086D01*
G37*
G36*
X55075825Y-26455086D02*
G01*
X55167178Y-26459719D01*
X55216669Y-26469889D01*
X55266279Y-26475104D01*
X55307991Y-26488657D01*
X55350359Y-26497364D01*
X55398906Y-26518197D01*
X55449198Y-26534538D01*
X55484558Y-26554953D01*
X55521390Y-26570759D01*
X55567394Y-26602778D01*
X55615762Y-26630704D01*
X55643844Y-26655989D01*
X55674146Y-26677080D01*
X55715002Y-26720060D01*
X55758693Y-26759400D01*
X55779110Y-26787501D01*
X55802370Y-26811971D01*
X55835465Y-26865068D01*
X55871743Y-26915000D01*
X55884632Y-26943949D01*
X55900819Y-26969919D01*
X55923693Y-27031681D01*
X55949972Y-27090704D01*
X55955924Y-27118707D01*
X55965456Y-27144444D01*
X55975936Y-27212857D01*
X55989960Y-27278834D01*
X55989960Y-27304400D01*
X55993638Y-27328410D01*
X55989960Y-27400937D01*
X55989960Y-27471166D01*
X55985282Y-27493171D01*
X55984212Y-27514283D01*
X55965130Y-27587981D01*
X55949972Y-27659296D01*
X55942071Y-27677041D01*
X55937561Y-27694461D01*
X55902412Y-27766116D01*
X55871743Y-27835000D01*
X55862138Y-27848219D01*
X55855599Y-27861551D01*
X55804338Y-27927774D01*
X55758693Y-27990600D01*
X55748842Y-27999469D01*
X55741679Y-28008724D01*
X55674801Y-28066136D01*
X55615762Y-28119296D01*
X55606955Y-28124380D01*
X55600463Y-28129954D01*
X55518640Y-28175369D01*
X55449198Y-28215462D01*
X55442467Y-28217648D01*
X55437736Y-28220275D01*
X55340247Y-28250862D01*
X55266279Y-28274896D01*
X55262319Y-28275312D01*
X55260156Y-28275991D01*
X55127800Y-28289450D01*
X55075000Y-28295000D01*
X55073229Y-28295000D01*
X54925886Y-28295000D01*
X54925000Y-28295000D01*
X54924173Y-28294913D01*
X54832821Y-28290280D01*
X54783338Y-28280110D01*
X54733721Y-28274896D01*
X54692002Y-28261340D01*
X54649640Y-28252635D01*
X54601099Y-28231804D01*
X54550802Y-28215462D01*
X54515437Y-28195044D01*
X54478609Y-28179240D01*
X54432608Y-28147222D01*
X54384238Y-28119296D01*
X54356154Y-28094009D01*
X54325853Y-28072919D01*
X54284997Y-28029939D01*
X54241307Y-27990600D01*
X54220890Y-27962498D01*
X54197629Y-27938028D01*
X54164531Y-27884927D01*
X54128257Y-27835000D01*
X54115368Y-27806052D01*
X54099180Y-27780080D01*
X54076302Y-27718309D01*
X54050028Y-27659296D01*
X54044076Y-27631296D01*
X54034543Y-27605555D01*
X54024060Y-27537128D01*
X54010040Y-27471166D01*
X54010040Y-27445604D01*
X54006361Y-27421589D01*
X54010040Y-27349042D01*
X54010040Y-27278834D01*
X54014716Y-27256834D01*
X54015787Y-27235716D01*
X54034875Y-27161991D01*
X54050028Y-27090704D01*
X54057925Y-27072965D01*
X54062438Y-27055538D01*
X54097602Y-26983850D01*
X54128257Y-26915000D01*
X54137857Y-26901786D01*
X54144400Y-26888448D01*
X54195688Y-26822188D01*
X54241307Y-26759400D01*
X54251151Y-26750535D01*
X54258320Y-26741275D01*
X54325243Y-26683823D01*
X54384238Y-26630704D01*
X54393038Y-26625623D01*
X54399536Y-26620045D01*
X54481429Y-26574590D01*
X54550802Y-26534538D01*
X54557526Y-26532353D01*
X54562263Y-26529724D01*
X54659869Y-26499099D01*
X54733721Y-26475104D01*
X54737673Y-26474688D01*
X54739843Y-26474008D01*
X54872293Y-26460539D01*
X54925000Y-26455000D01*
X55075000Y-26455000D01*
X55075825Y-26455086D01*
G37*
G36*
X44754788Y-26585328D02*
G01*
X44777497Y-26600503D01*
X44792672Y-26623212D01*
X44798000Y-26650000D01*
X44798000Y-28150000D01*
X44792672Y-28176788D01*
X44777497Y-28199497D01*
X44754788Y-28214672D01*
X44728000Y-28220000D01*
X43228000Y-28220000D01*
X43201212Y-28214672D01*
X43178503Y-28199497D01*
X43163328Y-28176788D01*
X43158000Y-28150000D01*
X43158000Y-26650000D01*
X43163328Y-26623212D01*
X43178503Y-26600503D01*
X43201212Y-26585328D01*
X43228000Y-26580000D01*
X44728000Y-26580000D01*
X44754788Y-26585328D01*
G37*
G36*
X47548788Y-26585328D02*
G01*
X47571497Y-26600503D01*
X47586672Y-26623212D01*
X47592000Y-26650000D01*
X47592000Y-28150000D01*
X47586672Y-28176788D01*
X47571497Y-28199497D01*
X47548788Y-28214672D01*
X47522000Y-28220000D01*
X46022000Y-28220000D01*
X45995212Y-28214672D01*
X45972503Y-28199497D01*
X45957328Y-28176788D01*
X45952000Y-28150000D01*
X45952000Y-26650000D01*
X45957328Y-26623212D01*
X45972503Y-26600503D01*
X45995212Y-26585328D01*
X46022000Y-26580000D01*
X47522000Y-26580000D01*
X47548788Y-26585328D01*
G37*
G36*
X5075825Y-24305086D02*
G01*
X5167178Y-24309719D01*
X5216669Y-24319889D01*
X5266279Y-24325104D01*
X5307991Y-24338657D01*
X5350359Y-24347364D01*
X5398906Y-24368197D01*
X5449198Y-24384538D01*
X5484558Y-24404953D01*
X5521390Y-24420759D01*
X5567394Y-24452778D01*
X5615762Y-24480704D01*
X5643844Y-24505989D01*
X5674146Y-24527080D01*
X5715002Y-24570060D01*
X5758693Y-24609400D01*
X5779110Y-24637501D01*
X5802370Y-24661971D01*
X5835465Y-24715068D01*
X5871743Y-24765000D01*
X5884632Y-24793949D01*
X5900819Y-24819919D01*
X5923693Y-24881681D01*
X5949972Y-24940704D01*
X5955924Y-24968707D01*
X5965456Y-24994444D01*
X5975936Y-25062857D01*
X5989960Y-25128834D01*
X5989960Y-25154400D01*
X5993638Y-25178410D01*
X5989960Y-25250937D01*
X5989960Y-25321166D01*
X5985282Y-25343171D01*
X5984212Y-25364283D01*
X5965130Y-25437981D01*
X5949972Y-25509296D01*
X5942071Y-25527041D01*
X5937561Y-25544461D01*
X5902412Y-25616116D01*
X5871743Y-25685000D01*
X5862138Y-25698219D01*
X5855599Y-25711551D01*
X5804338Y-25777774D01*
X5758693Y-25840600D01*
X5748842Y-25849469D01*
X5741679Y-25858724D01*
X5674801Y-25916136D01*
X5615762Y-25969296D01*
X5606955Y-25974380D01*
X5600463Y-25979954D01*
X5518640Y-26025369D01*
X5449198Y-26065462D01*
X5442467Y-26067648D01*
X5437736Y-26070275D01*
X5340247Y-26100862D01*
X5266279Y-26124896D01*
X5262319Y-26125312D01*
X5260156Y-26125991D01*
X5127800Y-26139450D01*
X5075000Y-26145000D01*
X5073229Y-26145000D01*
X4925886Y-26145000D01*
X4925000Y-26145000D01*
X4924173Y-26144913D01*
X4832821Y-26140280D01*
X4783338Y-26130110D01*
X4733721Y-26124896D01*
X4692002Y-26111340D01*
X4649640Y-26102635D01*
X4601099Y-26081804D01*
X4550802Y-26065462D01*
X4515437Y-26045044D01*
X4478609Y-26029240D01*
X4432608Y-25997222D01*
X4384238Y-25969296D01*
X4356154Y-25944009D01*
X4325853Y-25922919D01*
X4284997Y-25879939D01*
X4241307Y-25840600D01*
X4220890Y-25812498D01*
X4197629Y-25788028D01*
X4164531Y-25734927D01*
X4128257Y-25685000D01*
X4115368Y-25656052D01*
X4099180Y-25630080D01*
X4076302Y-25568309D01*
X4050028Y-25509296D01*
X4044076Y-25481296D01*
X4034543Y-25455555D01*
X4024060Y-25387128D01*
X4010040Y-25321166D01*
X4010040Y-25295604D01*
X4006361Y-25271589D01*
X4010040Y-25199042D01*
X4010040Y-25128834D01*
X4014716Y-25106834D01*
X4015787Y-25085716D01*
X4034875Y-25011991D01*
X4050028Y-24940704D01*
X4057925Y-24922965D01*
X4062438Y-24905538D01*
X4097602Y-24833850D01*
X4128257Y-24765000D01*
X4137857Y-24751786D01*
X4144400Y-24738448D01*
X4195688Y-24672188D01*
X4241307Y-24609400D01*
X4251151Y-24600535D01*
X4258320Y-24591275D01*
X4325243Y-24533823D01*
X4384238Y-24480704D01*
X4393038Y-24475623D01*
X4399536Y-24470045D01*
X4481429Y-24424590D01*
X4550802Y-24384538D01*
X4557526Y-24382353D01*
X4562263Y-24379724D01*
X4659869Y-24349099D01*
X4733721Y-24325104D01*
X4737673Y-24324688D01*
X4739843Y-24324008D01*
X4872293Y-24310539D01*
X4925000Y-24305000D01*
X5075000Y-24305000D01*
X5075825Y-24305086D01*
G37*
G36*
X55075825Y-23955086D02*
G01*
X55167178Y-23959719D01*
X55216669Y-23969889D01*
X55266279Y-23975104D01*
X55307991Y-23988657D01*
X55350359Y-23997364D01*
X55398906Y-24018197D01*
X55449198Y-24034538D01*
X55484558Y-24054953D01*
X55521390Y-24070759D01*
X55567394Y-24102778D01*
X55615762Y-24130704D01*
X55643844Y-24155989D01*
X55674146Y-24177080D01*
X55715002Y-24220060D01*
X55758693Y-24259400D01*
X55779110Y-24287501D01*
X55802370Y-24311971D01*
X55835465Y-24365068D01*
X55871743Y-24415000D01*
X55884632Y-24443949D01*
X55900819Y-24469919D01*
X55923693Y-24531681D01*
X55949972Y-24590704D01*
X55955924Y-24618707D01*
X55965456Y-24644444D01*
X55975936Y-24712857D01*
X55989960Y-24778834D01*
X55989960Y-24804400D01*
X55993638Y-24828410D01*
X55989960Y-24900937D01*
X55989960Y-24971166D01*
X55985282Y-24993171D01*
X55984212Y-25014283D01*
X55965130Y-25087981D01*
X55949972Y-25159296D01*
X55942071Y-25177041D01*
X55937561Y-25194461D01*
X55902412Y-25266116D01*
X55871743Y-25335000D01*
X55862138Y-25348219D01*
X55855599Y-25361551D01*
X55804338Y-25427774D01*
X55758693Y-25490600D01*
X55748842Y-25499469D01*
X55741679Y-25508724D01*
X55674801Y-25566136D01*
X55615762Y-25619296D01*
X55606955Y-25624380D01*
X55600463Y-25629954D01*
X55518640Y-25675369D01*
X55449198Y-25715462D01*
X55442467Y-25717648D01*
X55437736Y-25720275D01*
X55340247Y-25750862D01*
X55266279Y-25774896D01*
X55262319Y-25775312D01*
X55260156Y-25775991D01*
X55127800Y-25789450D01*
X55075000Y-25795000D01*
X55073229Y-25795000D01*
X54925886Y-25795000D01*
X54925000Y-25795000D01*
X54924173Y-25794913D01*
X54832821Y-25790280D01*
X54783338Y-25780110D01*
X54733721Y-25774896D01*
X54692002Y-25761340D01*
X54649640Y-25752635D01*
X54601099Y-25731804D01*
X54550802Y-25715462D01*
X54515437Y-25695044D01*
X54478609Y-25679240D01*
X54432608Y-25647222D01*
X54384238Y-25619296D01*
X54356154Y-25594009D01*
X54325853Y-25572919D01*
X54284997Y-25529939D01*
X54241307Y-25490600D01*
X54220890Y-25462498D01*
X54197629Y-25438028D01*
X54164531Y-25384927D01*
X54128257Y-25335000D01*
X54115368Y-25306052D01*
X54099180Y-25280080D01*
X54076302Y-25218309D01*
X54050028Y-25159296D01*
X54044076Y-25131296D01*
X54034543Y-25105555D01*
X54024060Y-25037128D01*
X54010040Y-24971166D01*
X54010040Y-24945604D01*
X54006361Y-24921589D01*
X54010040Y-24849042D01*
X54010040Y-24778834D01*
X54014716Y-24756834D01*
X54015787Y-24735716D01*
X54034875Y-24661991D01*
X54050028Y-24590704D01*
X54057925Y-24572965D01*
X54062438Y-24555538D01*
X54097602Y-24483850D01*
X54128257Y-24415000D01*
X54137857Y-24401786D01*
X54144400Y-24388448D01*
X54195688Y-24322188D01*
X54241307Y-24259400D01*
X54251151Y-24250535D01*
X54258320Y-24241275D01*
X54325243Y-24183823D01*
X54384238Y-24130704D01*
X54393038Y-24125623D01*
X54399536Y-24120045D01*
X54481429Y-24074590D01*
X54550802Y-24034538D01*
X54557526Y-24032353D01*
X54562263Y-24029724D01*
X54659869Y-23999099D01*
X54733721Y-23975104D01*
X54737673Y-23974688D01*
X54739843Y-23974008D01*
X54872293Y-23960539D01*
X54925000Y-23955000D01*
X55075000Y-23955000D01*
X55075825Y-23955086D01*
G37*
G36*
X5757822Y-21815904D02*
G01*
X5762599Y-21818131D01*
X5765833Y-21818603D01*
X5811766Y-21841058D01*
X5858544Y-21862871D01*
X5860609Y-21864936D01*
X5860664Y-21864963D01*
X5935036Y-21939335D01*
X5935062Y-21939389D01*
X5937129Y-21941456D01*
X5958952Y-21988256D01*
X5981396Y-22034166D01*
X5981866Y-22037397D01*
X5984096Y-22042178D01*
X5995000Y-22125000D01*
X5995000Y-23325000D01*
X5984096Y-23407822D01*
X5981866Y-23412603D01*
X5981396Y-23415833D01*
X5958962Y-23461722D01*
X5937129Y-23508544D01*
X5935061Y-23510611D01*
X5935036Y-23510664D01*
X5860664Y-23585036D01*
X5860611Y-23585061D01*
X5858544Y-23587129D01*
X5811722Y-23608962D01*
X5765833Y-23631396D01*
X5762603Y-23631866D01*
X5757822Y-23634096D01*
X5675000Y-23645000D01*
X4325000Y-23645000D01*
X4242178Y-23634096D01*
X4237397Y-23631866D01*
X4234166Y-23631396D01*
X4188256Y-23608952D01*
X4141456Y-23587129D01*
X4139389Y-23585062D01*
X4139335Y-23585036D01*
X4064963Y-23510664D01*
X4064936Y-23510609D01*
X4062871Y-23508544D01*
X4041058Y-23461766D01*
X4018603Y-23415833D01*
X4018131Y-23412599D01*
X4015904Y-23407822D01*
X4005000Y-23325000D01*
X4005000Y-22125000D01*
X4015904Y-22042178D01*
X4018131Y-22037400D01*
X4018603Y-22034166D01*
X4041068Y-21988211D01*
X4062871Y-21941456D01*
X4064935Y-21939391D01*
X4064963Y-21939335D01*
X4139335Y-21864963D01*
X4139391Y-21864935D01*
X4141456Y-21862871D01*
X4188211Y-21841068D01*
X4234166Y-21818603D01*
X4237400Y-21818131D01*
X4242178Y-21815904D01*
X4325000Y-21805000D01*
X5675000Y-21805000D01*
X5757822Y-21815904D01*
G37*
G36*
X44754788Y-19035328D02*
G01*
X44777497Y-19050503D01*
X44792672Y-19073212D01*
X44798000Y-19100000D01*
X44798000Y-20600000D01*
X44792672Y-20626788D01*
X44777497Y-20649497D01*
X44754788Y-20664672D01*
X44728000Y-20670000D01*
X43228000Y-20670000D01*
X43201212Y-20664672D01*
X43178503Y-20649497D01*
X43163328Y-20626788D01*
X43158000Y-20600000D01*
X43158000Y-19100000D01*
X43163328Y-19073212D01*
X43178503Y-19050503D01*
X43201212Y-19035328D01*
X43228000Y-19030000D01*
X44728000Y-19030000D01*
X44754788Y-19035328D01*
G37*
G36*
X47548788Y-19035328D02*
G01*
X47571497Y-19050503D01*
X47586672Y-19073212D01*
X47592000Y-19100000D01*
X47592000Y-20600000D01*
X47586672Y-20626788D01*
X47571497Y-20649497D01*
X47548788Y-20664672D01*
X47522000Y-20670000D01*
X46022000Y-20670000D01*
X45995212Y-20664672D01*
X45972503Y-20649497D01*
X45957328Y-20626788D01*
X45952000Y-20600000D01*
X45952000Y-19100000D01*
X45957328Y-19073212D01*
X45972503Y-19050503D01*
X45995212Y-19035328D01*
X46022000Y-19030000D01*
X47522000Y-19030000D01*
X47548788Y-19035328D01*
G37*
G36*
X5075825Y-13880086D02*
G01*
X5167178Y-13884719D01*
X5216669Y-13894889D01*
X5266279Y-13900104D01*
X5307991Y-13913657D01*
X5350359Y-13922364D01*
X5398906Y-13943197D01*
X5449198Y-13959538D01*
X5484558Y-13979953D01*
X5521390Y-13995759D01*
X5567394Y-14027778D01*
X5615762Y-14055704D01*
X5643844Y-14080989D01*
X5674146Y-14102080D01*
X5715002Y-14145060D01*
X5758693Y-14184400D01*
X5779110Y-14212501D01*
X5802370Y-14236971D01*
X5835465Y-14290068D01*
X5871743Y-14340000D01*
X5884632Y-14368949D01*
X5900819Y-14394919D01*
X5923693Y-14456681D01*
X5949972Y-14515704D01*
X5955924Y-14543707D01*
X5965456Y-14569444D01*
X5975936Y-14637857D01*
X5989960Y-14703834D01*
X5989960Y-14729400D01*
X5993638Y-14753410D01*
X5989960Y-14825937D01*
X5989960Y-14896166D01*
X5985282Y-14918171D01*
X5984212Y-14939283D01*
X5965130Y-15012981D01*
X5949972Y-15084296D01*
X5942071Y-15102041D01*
X5937561Y-15119461D01*
X5902412Y-15191116D01*
X5871743Y-15260000D01*
X5862138Y-15273219D01*
X5855599Y-15286551D01*
X5804338Y-15352774D01*
X5758693Y-15415600D01*
X5748842Y-15424469D01*
X5741679Y-15433724D01*
X5674801Y-15491136D01*
X5615762Y-15544296D01*
X5606955Y-15549380D01*
X5600463Y-15554954D01*
X5518640Y-15600369D01*
X5449198Y-15640462D01*
X5442467Y-15642648D01*
X5437736Y-15645275D01*
X5340247Y-15675862D01*
X5266279Y-15699896D01*
X5262319Y-15700312D01*
X5260156Y-15700991D01*
X5127800Y-15714450D01*
X5075000Y-15720000D01*
X5073229Y-15720000D01*
X4925886Y-15720000D01*
X4925000Y-15720000D01*
X4924173Y-15719913D01*
X4832821Y-15715280D01*
X4783338Y-15705110D01*
X4733721Y-15699896D01*
X4692002Y-15686340D01*
X4649640Y-15677635D01*
X4601099Y-15656804D01*
X4550802Y-15640462D01*
X4515437Y-15620044D01*
X4478609Y-15604240D01*
X4432608Y-15572222D01*
X4384238Y-15544296D01*
X4356154Y-15519009D01*
X4325853Y-15497919D01*
X4284997Y-15454939D01*
X4241307Y-15415600D01*
X4220890Y-15387498D01*
X4197629Y-15363028D01*
X4164531Y-15309927D01*
X4128257Y-15260000D01*
X4115368Y-15231052D01*
X4099180Y-15205080D01*
X4076302Y-15143309D01*
X4050028Y-15084296D01*
X4044076Y-15056296D01*
X4034543Y-15030555D01*
X4024060Y-14962128D01*
X4010040Y-14896166D01*
X4010040Y-14870604D01*
X4006361Y-14846589D01*
X4010040Y-14774042D01*
X4010040Y-14703834D01*
X4014716Y-14681834D01*
X4015787Y-14660716D01*
X4034875Y-14586991D01*
X4050028Y-14515704D01*
X4057925Y-14497965D01*
X4062438Y-14480538D01*
X4097602Y-14408850D01*
X4128257Y-14340000D01*
X4137857Y-14326786D01*
X4144400Y-14313448D01*
X4195688Y-14247188D01*
X4241307Y-14184400D01*
X4251151Y-14175535D01*
X4258320Y-14166275D01*
X4325243Y-14108823D01*
X4384238Y-14055704D01*
X4393038Y-14050623D01*
X4399536Y-14045045D01*
X4481429Y-13999590D01*
X4550802Y-13959538D01*
X4557526Y-13957353D01*
X4562263Y-13954724D01*
X4659869Y-13924099D01*
X4733721Y-13900104D01*
X4737673Y-13899688D01*
X4739843Y-13899008D01*
X4872293Y-13885539D01*
X4925000Y-13880000D01*
X5075000Y-13880000D01*
X5075825Y-13880086D01*
G37*
G36*
X27732414Y-14374038D02*
G01*
X27854101Y-14429611D01*
X27955202Y-14517215D01*
X28027527Y-14629755D01*
X28065216Y-14758112D01*
X28065216Y-14891888D01*
X28027527Y-15020245D01*
X27955202Y-15132785D01*
X27854101Y-15220389D01*
X27732414Y-15275962D01*
X27600000Y-15295000D01*
X27599769Y-15295000D01*
X27599769Y-15355000D01*
X27600000Y-15355000D01*
X27732414Y-15374038D01*
X27854101Y-15429611D01*
X27955202Y-15517215D01*
X28027527Y-15629755D01*
X28065216Y-15758112D01*
X28065216Y-15891888D01*
X28027527Y-16020245D01*
X27955202Y-16132785D01*
X27854101Y-16220389D01*
X27732414Y-16275962D01*
X27600000Y-16295000D01*
X27599769Y-16295000D01*
X27599769Y-16355000D01*
X27600000Y-16355000D01*
X27732414Y-16374038D01*
X27854101Y-16429611D01*
X27955202Y-16517215D01*
X28027527Y-16629755D01*
X28065216Y-16758112D01*
X28065216Y-16891888D01*
X28027527Y-17020245D01*
X27955202Y-17132785D01*
X27854101Y-17220389D01*
X27732414Y-17275962D01*
X27632327Y-17290352D01*
X27636951Y-17355000D01*
X27800000Y-17355000D01*
X27802832Y-17355563D01*
X27860536Y-17362257D01*
X27880255Y-17370964D01*
X27903325Y-17375553D01*
X27928025Y-17392057D01*
X27952244Y-17402751D01*
X27968783Y-17419290D01*
X27990919Y-17434081D01*
X28005709Y-17456216D01*
X28022248Y-17472755D01*
X28032941Y-17496971D01*
X28049447Y-17521675D01*
X28054036Y-17544747D01*
X28062742Y-17564463D01*
X28069434Y-17622155D01*
X28070000Y-17625000D01*
X28070000Y-18025000D01*
X28069434Y-18027844D01*
X28062742Y-18085536D01*
X28054036Y-18105250D01*
X28049447Y-18128325D01*
X28032939Y-18153029D01*
X28022248Y-18177244D01*
X28005711Y-18193780D01*
X27990919Y-18215919D01*
X27968780Y-18230711D01*
X27952244Y-18247248D01*
X27928029Y-18257939D01*
X27903325Y-18274447D01*
X27880250Y-18279036D01*
X27860536Y-18287742D01*
X27802846Y-18294433D01*
X27800000Y-18295000D01*
X27200000Y-18295000D01*
X27197156Y-18294434D01*
X27139463Y-18287742D01*
X27119747Y-18279036D01*
X27096675Y-18274447D01*
X27071971Y-18257941D01*
X27047755Y-18247248D01*
X27031216Y-18230709D01*
X27009081Y-18215919D01*
X26994290Y-18193783D01*
X26977751Y-18177244D01*
X26967057Y-18153025D01*
X26950553Y-18128325D01*
X26945964Y-18105255D01*
X26937257Y-18085536D01*
X26930563Y-18027834D01*
X26930000Y-18025000D01*
X26930000Y-17625000D01*
X26930563Y-17622168D01*
X26937257Y-17564463D01*
X26945964Y-17544743D01*
X26950553Y-17521675D01*
X26967055Y-17496976D01*
X26977751Y-17472755D01*
X26994292Y-17456213D01*
X27009081Y-17434081D01*
X27031213Y-17419292D01*
X27047755Y-17402751D01*
X27071976Y-17392055D01*
X27096675Y-17375553D01*
X27119743Y-17370964D01*
X27139463Y-17362257D01*
X27197167Y-17355563D01*
X27200000Y-17355000D01*
X27363053Y-17355000D01*
X27367675Y-17290352D01*
X27267586Y-17275962D01*
X27145899Y-17220389D01*
X27044798Y-17132785D01*
X26972473Y-17020245D01*
X26934784Y-16891888D01*
X26934784Y-16758112D01*
X26972473Y-16629755D01*
X27044798Y-16517215D01*
X27145899Y-16429611D01*
X27267586Y-16374038D01*
X27400000Y-16355000D01*
X27400230Y-16355000D01*
X27400230Y-16295000D01*
X27400000Y-16295000D01*
X27267586Y-16275962D01*
X27145899Y-16220389D01*
X27044798Y-16132785D01*
X26972473Y-16020245D01*
X26934784Y-15891888D01*
X26934784Y-15758112D01*
X26972473Y-15629755D01*
X27044798Y-15517215D01*
X27145899Y-15429611D01*
X27267586Y-15374038D01*
X27400000Y-15355000D01*
X27400230Y-15355000D01*
X27400230Y-15295000D01*
X27400000Y-15295000D01*
X27267586Y-15275962D01*
X27145899Y-15220389D01*
X27044798Y-15132785D01*
X26972473Y-15020245D01*
X26934784Y-14891888D01*
X26934784Y-14758112D01*
X26972473Y-14629755D01*
X27044798Y-14517215D01*
X27145899Y-14429611D01*
X27267586Y-14374038D01*
X27400000Y-14355000D01*
X27600000Y-14355000D01*
X27732414Y-14374038D01*
G37*
G36*
X5075825Y-16380086D02*
G01*
X5167178Y-16384719D01*
X5216669Y-16394889D01*
X5266279Y-16400104D01*
X5307991Y-16413657D01*
X5350359Y-16422364D01*
X5398906Y-16443197D01*
X5449198Y-16459538D01*
X5484558Y-16479953D01*
X5521390Y-16495759D01*
X5567394Y-16527778D01*
X5615762Y-16555704D01*
X5643844Y-16580989D01*
X5674146Y-16602080D01*
X5715002Y-16645060D01*
X5758693Y-16684400D01*
X5779110Y-16712501D01*
X5802370Y-16736971D01*
X5835465Y-16790068D01*
X5871743Y-16840000D01*
X5884632Y-16868949D01*
X5900819Y-16894919D01*
X5923693Y-16956681D01*
X5949972Y-17015704D01*
X5955924Y-17043707D01*
X5965456Y-17069444D01*
X5975936Y-17137857D01*
X5989960Y-17203834D01*
X5989960Y-17229400D01*
X5993638Y-17253410D01*
X5989960Y-17325937D01*
X5989960Y-17396166D01*
X5985282Y-17418171D01*
X5984212Y-17439283D01*
X5965130Y-17512981D01*
X5949972Y-17584296D01*
X5942071Y-17602041D01*
X5937561Y-17619461D01*
X5902412Y-17691116D01*
X5871743Y-17760000D01*
X5862138Y-17773219D01*
X5855599Y-17786551D01*
X5804338Y-17852774D01*
X5758693Y-17915600D01*
X5748842Y-17924469D01*
X5741679Y-17933724D01*
X5674801Y-17991136D01*
X5615762Y-18044296D01*
X5606955Y-18049380D01*
X5600463Y-18054954D01*
X5518640Y-18100369D01*
X5449198Y-18140462D01*
X5442467Y-18142648D01*
X5437736Y-18145275D01*
X5340247Y-18175862D01*
X5266279Y-18199896D01*
X5262319Y-18200312D01*
X5260156Y-18200991D01*
X5127800Y-18214450D01*
X5075000Y-18220000D01*
X5073229Y-18220000D01*
X4925886Y-18220000D01*
X4925000Y-18220000D01*
X4924173Y-18219913D01*
X4832821Y-18215280D01*
X4783338Y-18205110D01*
X4733721Y-18199896D01*
X4692002Y-18186340D01*
X4649640Y-18177635D01*
X4601099Y-18156804D01*
X4550802Y-18140462D01*
X4515437Y-18120044D01*
X4478609Y-18104240D01*
X4432608Y-18072222D01*
X4384238Y-18044296D01*
X4356154Y-18019009D01*
X4325853Y-17997919D01*
X4284997Y-17954939D01*
X4241307Y-17915600D01*
X4220890Y-17887498D01*
X4197629Y-17863028D01*
X4164531Y-17809927D01*
X4128257Y-17760000D01*
X4115368Y-17731052D01*
X4099180Y-17705080D01*
X4076302Y-17643309D01*
X4050028Y-17584296D01*
X4044076Y-17556296D01*
X4034543Y-17530555D01*
X4024060Y-17462128D01*
X4010040Y-17396166D01*
X4010040Y-17370604D01*
X4006361Y-17346589D01*
X4010040Y-17274042D01*
X4010040Y-17203834D01*
X4014716Y-17181834D01*
X4015787Y-17160716D01*
X4034875Y-17086991D01*
X4050028Y-17015704D01*
X4057925Y-16997965D01*
X4062438Y-16980538D01*
X4097602Y-16908850D01*
X4128257Y-16840000D01*
X4137857Y-16826786D01*
X4144400Y-16813448D01*
X4195688Y-16747188D01*
X4241307Y-16684400D01*
X4251151Y-16675535D01*
X4258320Y-16666275D01*
X4325243Y-16608823D01*
X4384238Y-16555704D01*
X4393038Y-16550623D01*
X4399536Y-16545045D01*
X4481429Y-16499590D01*
X4550802Y-16459538D01*
X4557526Y-16457353D01*
X4562263Y-16454724D01*
X4659869Y-16424099D01*
X4733721Y-16400104D01*
X4737673Y-16399688D01*
X4739843Y-16399008D01*
X4872293Y-16385539D01*
X4925000Y-16380000D01*
X5075000Y-16380000D01*
X5075825Y-16380086D01*
G37*
G36*
X24586361Y-14680089D02*
G01*
X24621157Y-14680089D01*
X24649439Y-14688393D01*
X24679333Y-14692329D01*
X24719486Y-14708961D01*
X24757708Y-14720184D01*
X24777883Y-14733150D01*
X24799850Y-14742249D01*
X24840100Y-14773134D01*
X24877430Y-14797125D01*
X24889464Y-14811013D01*
X24903339Y-14821660D01*
X24939311Y-14868539D01*
X24970627Y-14904680D01*
X24975896Y-14916217D01*
X24982750Y-14925150D01*
X25009818Y-14990499D01*
X25029746Y-15034134D01*
X25030731Y-15040985D01*
X25032670Y-15045666D01*
X25046408Y-15150021D01*
X25050000Y-15175000D01*
X25046408Y-15199980D01*
X25032670Y-15304333D01*
X25030731Y-15309013D01*
X25029746Y-15315866D01*
X25009816Y-15359506D01*
X24982750Y-15424850D01*
X24975896Y-15433781D01*
X24970627Y-15445320D01*
X24939307Y-15481464D01*
X24903339Y-15528339D01*
X24889467Y-15538983D01*
X24877430Y-15552875D01*
X24840092Y-15576870D01*
X24799850Y-15607750D01*
X24777888Y-15616846D01*
X24757708Y-15629816D01*
X24719476Y-15641041D01*
X24693953Y-15651614D01*
X24693953Y-15698386D01*
X24719478Y-15708958D01*
X24757708Y-15720184D01*
X24777884Y-15733150D01*
X24799850Y-15742249D01*
X24840100Y-15773134D01*
X24877430Y-15797125D01*
X24889464Y-15811013D01*
X24903339Y-15821660D01*
X24939311Y-15868539D01*
X24970627Y-15904680D01*
X24975896Y-15916217D01*
X24982750Y-15925150D01*
X25009818Y-15990499D01*
X25029746Y-16034134D01*
X25030731Y-16040985D01*
X25032670Y-16045666D01*
X25046408Y-16150021D01*
X25050000Y-16175000D01*
X25046408Y-16199980D01*
X25032670Y-16304333D01*
X25030731Y-16309013D01*
X25029746Y-16315866D01*
X25009816Y-16359506D01*
X24982750Y-16424850D01*
X24975896Y-16433781D01*
X24970627Y-16445320D01*
X24939307Y-16481464D01*
X24903339Y-16528339D01*
X24889467Y-16538983D01*
X24877430Y-16552875D01*
X24840092Y-16576870D01*
X24799850Y-16607750D01*
X24777888Y-16616846D01*
X24757708Y-16629816D01*
X24719476Y-16641041D01*
X24693953Y-16651614D01*
X24693953Y-16698386D01*
X24719478Y-16708958D01*
X24757708Y-16720184D01*
X24777884Y-16733150D01*
X24799850Y-16742249D01*
X24840100Y-16773134D01*
X24877430Y-16797125D01*
X24889464Y-16811013D01*
X24903339Y-16821660D01*
X24939311Y-16868539D01*
X24970627Y-16904680D01*
X24975896Y-16916217D01*
X24982750Y-16925150D01*
X25009818Y-16990499D01*
X25029746Y-17034134D01*
X25030731Y-17040985D01*
X25032670Y-17045666D01*
X25046408Y-17150021D01*
X25050000Y-17175000D01*
X25046408Y-17199980D01*
X25032670Y-17304333D01*
X25030731Y-17309013D01*
X25029746Y-17315866D01*
X25009816Y-17359506D01*
X24982750Y-17424850D01*
X24975896Y-17433781D01*
X24970627Y-17445320D01*
X24939307Y-17481464D01*
X24903339Y-17528339D01*
X24889467Y-17538983D01*
X24877430Y-17552875D01*
X24840092Y-17576870D01*
X24799850Y-17607750D01*
X24777888Y-17616846D01*
X24757708Y-17629816D01*
X24719477Y-17641041D01*
X24679333Y-17657670D01*
X24649445Y-17661604D01*
X24621157Y-17669911D01*
X24586353Y-17669911D01*
X24549999Y-17674697D01*
X24513646Y-17669911D01*
X24478843Y-17669911D01*
X24450555Y-17661605D01*
X24420666Y-17657670D01*
X24380518Y-17641040D01*
X24342292Y-17629816D01*
X24322113Y-17616848D01*
X24300149Y-17607750D01*
X24259901Y-17576866D01*
X24222570Y-17552875D01*
X24210534Y-17538985D01*
X24196660Y-17528339D01*
X24160683Y-17481454D01*
X24129373Y-17445320D01*
X24124105Y-17433785D01*
X24117249Y-17424850D01*
X24090172Y-17359482D01*
X24070254Y-17315866D01*
X24069269Y-17309017D01*
X24067329Y-17304333D01*
X24053579Y-17199897D01*
X24050000Y-17175000D01*
X24053579Y-17150104D01*
X24067329Y-17045666D01*
X24069269Y-17040981D01*
X24070254Y-17034134D01*
X24090170Y-16990522D01*
X24117249Y-16925150D01*
X24124105Y-16916214D01*
X24129373Y-16904680D01*
X24160680Y-16868549D01*
X24196660Y-16821660D01*
X24210537Y-16811011D01*
X24222570Y-16797125D01*
X24259889Y-16773140D01*
X24300148Y-16742249D01*
X24322118Y-16733148D01*
X24342292Y-16720184D01*
X24380516Y-16708960D01*
X24406046Y-16698386D01*
X24406046Y-16651614D01*
X24380519Y-16641040D01*
X24342292Y-16629816D01*
X24322113Y-16616847D01*
X24300149Y-16607750D01*
X24259901Y-16576866D01*
X24222570Y-16552875D01*
X24210534Y-16538985D01*
X24196660Y-16528339D01*
X24160683Y-16481454D01*
X24129373Y-16445320D01*
X24124105Y-16433785D01*
X24117249Y-16424850D01*
X24090172Y-16359482D01*
X24070254Y-16315866D01*
X24069269Y-16309017D01*
X24067329Y-16304333D01*
X24053579Y-16199897D01*
X24050000Y-16175000D01*
X24053579Y-16150104D01*
X24067329Y-16045666D01*
X24069269Y-16040981D01*
X24070254Y-16034134D01*
X24090170Y-15990522D01*
X24117249Y-15925150D01*
X24124105Y-15916214D01*
X24129373Y-15904680D01*
X24160680Y-15868549D01*
X24196660Y-15821660D01*
X24210537Y-15811011D01*
X24222570Y-15797125D01*
X24259889Y-15773140D01*
X24300148Y-15742249D01*
X24322118Y-15733148D01*
X24342292Y-15720184D01*
X24380516Y-15708960D01*
X24406046Y-15698386D01*
X24406046Y-15651614D01*
X24380519Y-15641040D01*
X24342292Y-15629816D01*
X24322113Y-15616847D01*
X24300149Y-15607750D01*
X24259901Y-15576866D01*
X24222570Y-15552875D01*
X24210534Y-15538985D01*
X24196660Y-15528339D01*
X24160683Y-15481454D01*
X24129373Y-15445320D01*
X24124105Y-15433785D01*
X24117249Y-15424850D01*
X24090172Y-15359482D01*
X24070254Y-15315866D01*
X24069269Y-15309017D01*
X24067329Y-15304333D01*
X24053579Y-15199897D01*
X24050000Y-15175000D01*
X24053579Y-15150104D01*
X24067329Y-15045666D01*
X24069269Y-15040981D01*
X24070254Y-15034134D01*
X24090170Y-14990522D01*
X24117249Y-14925150D01*
X24124105Y-14916214D01*
X24129373Y-14904680D01*
X24160680Y-14868549D01*
X24196660Y-14821660D01*
X24210537Y-14811011D01*
X24222570Y-14797125D01*
X24259897Y-14773136D01*
X24300150Y-14742249D01*
X24322116Y-14733150D01*
X24342292Y-14720184D01*
X24380511Y-14708961D01*
X24420666Y-14692329D01*
X24450561Y-14688393D01*
X24478843Y-14680089D01*
X24513639Y-14680089D01*
X24550000Y-14675302D01*
X24586361Y-14680089D01*
G37*
G36*
X5075825Y-11380086D02*
G01*
X5167178Y-11384719D01*
X5216669Y-11394889D01*
X5266279Y-11400104D01*
X5307991Y-11413657D01*
X5350359Y-11422364D01*
X5398906Y-11443197D01*
X5449198Y-11459538D01*
X5484558Y-11479953D01*
X5521390Y-11495759D01*
X5567394Y-11527778D01*
X5615762Y-11555704D01*
X5643844Y-11580989D01*
X5674146Y-11602080D01*
X5715002Y-11645060D01*
X5758693Y-11684400D01*
X5779110Y-11712501D01*
X5802370Y-11736971D01*
X5835465Y-11790068D01*
X5871743Y-11840000D01*
X5884632Y-11868949D01*
X5900819Y-11894919D01*
X5923693Y-11956681D01*
X5949972Y-12015704D01*
X5955924Y-12043707D01*
X5965456Y-12069444D01*
X5975936Y-12137857D01*
X5989960Y-12203834D01*
X5989960Y-12229400D01*
X5993638Y-12253410D01*
X5989960Y-12325937D01*
X5989960Y-12396166D01*
X5985282Y-12418171D01*
X5984212Y-12439283D01*
X5965130Y-12512981D01*
X5949972Y-12584296D01*
X5942071Y-12602041D01*
X5937561Y-12619461D01*
X5902412Y-12691116D01*
X5871743Y-12760000D01*
X5862138Y-12773219D01*
X5855599Y-12786551D01*
X5804338Y-12852774D01*
X5758693Y-12915600D01*
X5748842Y-12924469D01*
X5741679Y-12933724D01*
X5674801Y-12991136D01*
X5615762Y-13044296D01*
X5606955Y-13049380D01*
X5600463Y-13054954D01*
X5518640Y-13100369D01*
X5449198Y-13140462D01*
X5442467Y-13142648D01*
X5437736Y-13145275D01*
X5340247Y-13175862D01*
X5266279Y-13199896D01*
X5262319Y-13200312D01*
X5260156Y-13200991D01*
X5127800Y-13214450D01*
X5075000Y-13220000D01*
X5073229Y-13220000D01*
X4925886Y-13220000D01*
X4925000Y-13220000D01*
X4924173Y-13219913D01*
X4832821Y-13215280D01*
X4783338Y-13205110D01*
X4733721Y-13199896D01*
X4692002Y-13186340D01*
X4649640Y-13177635D01*
X4601099Y-13156804D01*
X4550802Y-13140462D01*
X4515437Y-13120044D01*
X4478609Y-13104240D01*
X4432608Y-13072222D01*
X4384238Y-13044296D01*
X4356154Y-13019009D01*
X4325853Y-12997919D01*
X4284997Y-12954939D01*
X4241307Y-12915600D01*
X4220890Y-12887498D01*
X4197629Y-12863028D01*
X4164531Y-12809927D01*
X4128257Y-12760000D01*
X4115368Y-12731052D01*
X4099180Y-12705080D01*
X4076302Y-12643309D01*
X4050028Y-12584296D01*
X4044076Y-12556296D01*
X4034543Y-12530555D01*
X4024060Y-12462128D01*
X4010040Y-12396166D01*
X4010040Y-12370604D01*
X4006361Y-12346589D01*
X4010040Y-12274042D01*
X4010040Y-12203834D01*
X4014716Y-12181834D01*
X4015787Y-12160716D01*
X4034875Y-12086991D01*
X4050028Y-12015704D01*
X4057925Y-11997965D01*
X4062438Y-11980538D01*
X4097602Y-11908850D01*
X4128257Y-11840000D01*
X4137857Y-11826786D01*
X4144400Y-11813448D01*
X4195688Y-11747188D01*
X4241307Y-11684400D01*
X4251151Y-11675535D01*
X4258320Y-11666275D01*
X4325243Y-11608823D01*
X4384238Y-11555704D01*
X4393038Y-11550623D01*
X4399536Y-11545045D01*
X4481429Y-11499590D01*
X4550802Y-11459538D01*
X4557526Y-11457353D01*
X4562263Y-11454724D01*
X4659869Y-11424099D01*
X4733721Y-11400104D01*
X4737673Y-11399688D01*
X4739843Y-11399008D01*
X4872293Y-11385539D01*
X4925000Y-11380000D01*
X5075000Y-11380000D01*
X5075825Y-11380086D01*
G37*
G36*
X5757822Y-8890904D02*
G01*
X5762599Y-8893131D01*
X5765833Y-8893603D01*
X5811766Y-8916058D01*
X5858544Y-8937871D01*
X5860609Y-8939936D01*
X5860664Y-8939963D01*
X5935036Y-9014335D01*
X5935062Y-9014389D01*
X5937129Y-9016456D01*
X5958952Y-9063256D01*
X5981396Y-9109166D01*
X5981866Y-9112397D01*
X5984096Y-9117178D01*
X5995000Y-9200000D01*
X5995000Y-10400000D01*
X5984096Y-10482822D01*
X5981866Y-10487603D01*
X5981396Y-10490833D01*
X5958962Y-10536722D01*
X5937129Y-10583544D01*
X5935061Y-10585611D01*
X5935036Y-10585664D01*
X5860664Y-10660036D01*
X5860611Y-10660061D01*
X5858544Y-10662129D01*
X5811722Y-10683962D01*
X5765833Y-10706396D01*
X5762603Y-10706866D01*
X5757822Y-10709096D01*
X5675000Y-10720000D01*
X4325000Y-10720000D01*
X4242178Y-10709096D01*
X4237397Y-10706866D01*
X4234166Y-10706396D01*
X4188256Y-10683952D01*
X4141456Y-10662129D01*
X4139389Y-10660062D01*
X4139335Y-10660036D01*
X4064963Y-10585664D01*
X4064936Y-10585609D01*
X4062871Y-10583544D01*
X4041058Y-10536766D01*
X4018603Y-10490833D01*
X4018131Y-10487599D01*
X4015904Y-10482822D01*
X4005000Y-10400000D01*
X4005000Y-9200000D01*
X4015904Y-9117178D01*
X4018131Y-9112400D01*
X4018603Y-9109166D01*
X4041068Y-9063211D01*
X4062871Y-9016456D01*
X4064935Y-9014391D01*
X4064963Y-9014335D01*
X4139335Y-8939963D01*
X4139391Y-8939935D01*
X4141456Y-8937871D01*
X4188211Y-8916068D01*
X4234166Y-8893603D01*
X4237400Y-8893131D01*
X4242178Y-8890904D01*
X4325000Y-8880000D01*
X5675000Y-8880000D01*
X5757822Y-8890904D01*
G37*
G36*
X25811360Y-10130089D02*
G01*
X25846157Y-10130089D01*
X25874439Y-10138393D01*
X25904333Y-10142329D01*
X25944486Y-10158961D01*
X25982708Y-10170184D01*
X26002883Y-10183150D01*
X26024850Y-10192249D01*
X26065100Y-10223134D01*
X26102430Y-10247125D01*
X26114464Y-10261013D01*
X26128339Y-10271660D01*
X26164311Y-10318539D01*
X26195627Y-10354680D01*
X26200896Y-10366217D01*
X26207750Y-10375150D01*
X26234818Y-10440499D01*
X26254746Y-10484134D01*
X26255731Y-10490985D01*
X26257670Y-10495666D01*
X26271408Y-10600021D01*
X26275000Y-10625000D01*
X26271408Y-10649980D01*
X26257670Y-10754333D01*
X26255731Y-10759013D01*
X26254746Y-10765866D01*
X26234816Y-10809506D01*
X26207750Y-10874850D01*
X26200896Y-10883781D01*
X26195627Y-10895320D01*
X26164307Y-10931464D01*
X26128339Y-10978339D01*
X26114467Y-10988983D01*
X26102430Y-11002875D01*
X26065092Y-11026870D01*
X26024850Y-11057750D01*
X26002888Y-11066846D01*
X25982708Y-11079816D01*
X25944477Y-11091041D01*
X25904333Y-11107670D01*
X25874445Y-11111604D01*
X25846157Y-11119911D01*
X25811353Y-11119911D01*
X25775000Y-11124697D01*
X25738646Y-11119911D01*
X25703843Y-11119911D01*
X25675555Y-11111604D01*
X25645666Y-11107670D01*
X25605518Y-11091040D01*
X25567292Y-11079816D01*
X25547113Y-11066848D01*
X25525149Y-11057750D01*
X25484901Y-11026866D01*
X25447570Y-11002875D01*
X25435534Y-10988985D01*
X25421660Y-10978339D01*
X25385683Y-10931454D01*
X25354373Y-10895320D01*
X25349105Y-10883785D01*
X25342249Y-10874850D01*
X25315172Y-10809482D01*
X25295254Y-10765866D01*
X25294269Y-10759017D01*
X25292329Y-10754333D01*
X25278579Y-10649897D01*
X25275000Y-10625000D01*
X25278579Y-10600104D01*
X25292329Y-10495666D01*
X25294269Y-10490981D01*
X25295254Y-10484134D01*
X25315170Y-10440522D01*
X25342249Y-10375150D01*
X25349105Y-10366214D01*
X25354373Y-10354680D01*
X25385680Y-10318549D01*
X25421660Y-10271660D01*
X25435537Y-10261011D01*
X25447570Y-10247125D01*
X25484897Y-10223136D01*
X25525150Y-10192249D01*
X25547116Y-10183150D01*
X25567292Y-10170184D01*
X25605511Y-10158961D01*
X25645666Y-10142329D01*
X25675561Y-10138393D01*
X25703843Y-10130089D01*
X25738638Y-10130089D01*
X25774999Y-10125302D01*
X25811360Y-10130089D01*
G37*
G36*
X28011360Y-5480089D02*
G01*
X28046157Y-5480089D01*
X28074439Y-5488393D01*
X28104333Y-5492329D01*
X28144486Y-5508961D01*
X28182708Y-5520184D01*
X28202883Y-5533150D01*
X28224850Y-5542249D01*
X28265100Y-5573134D01*
X28302430Y-5597125D01*
X28314464Y-5611013D01*
X28328339Y-5621660D01*
X28364311Y-5668539D01*
X28395627Y-5704680D01*
X28400896Y-5716217D01*
X28407750Y-5725150D01*
X28434818Y-5790499D01*
X28454746Y-5834134D01*
X28455731Y-5840985D01*
X28457670Y-5845666D01*
X28471409Y-5950030D01*
X28475000Y-5975000D01*
X28471407Y-5999988D01*
X28457670Y-6104333D01*
X28455731Y-6109013D01*
X28454746Y-6115866D01*
X28434816Y-6159506D01*
X28407750Y-6224850D01*
X28400896Y-6233781D01*
X28395627Y-6245320D01*
X28364307Y-6281464D01*
X28328339Y-6328339D01*
X28314467Y-6338983D01*
X28302430Y-6352875D01*
X28265092Y-6376870D01*
X28224850Y-6407750D01*
X28202888Y-6416846D01*
X28182708Y-6429816D01*
X28144477Y-6441041D01*
X28104333Y-6457670D01*
X28074445Y-6461604D01*
X28046157Y-6469911D01*
X28011353Y-6469911D01*
X27975000Y-6474697D01*
X27938646Y-6469911D01*
X27903843Y-6469911D01*
X27875555Y-6461604D01*
X27845666Y-6457670D01*
X27805518Y-6441040D01*
X27767292Y-6429816D01*
X27747113Y-6416848D01*
X27725149Y-6407750D01*
X27684901Y-6376866D01*
X27647570Y-6352875D01*
X27635534Y-6338985D01*
X27621660Y-6328339D01*
X27585683Y-6281454D01*
X27554373Y-6245320D01*
X27549105Y-6233785D01*
X27542249Y-6224850D01*
X27515172Y-6159482D01*
X27495254Y-6115866D01*
X27494269Y-6109017D01*
X27492329Y-6104333D01*
X27478581Y-5999906D01*
X27475000Y-5975000D01*
X27478578Y-5950113D01*
X27492329Y-5845666D01*
X27494269Y-5840981D01*
X27495254Y-5834134D01*
X27515170Y-5790522D01*
X27542249Y-5725150D01*
X27549105Y-5716214D01*
X27554373Y-5704680D01*
X27585680Y-5668549D01*
X27621660Y-5621660D01*
X27635537Y-5611011D01*
X27647570Y-5597125D01*
X27684897Y-5573136D01*
X27725150Y-5542249D01*
X27747116Y-5533150D01*
X27767292Y-5520184D01*
X27805511Y-5508961D01*
X27845666Y-5492329D01*
X27875561Y-5488393D01*
X27903843Y-5480089D01*
X27938638Y-5480089D01*
X27974999Y-5475302D01*
X28011360Y-5480089D01*
G37*
G36*
X3072409Y-634746D02*
G01*
X3148810Y-634746D01*
X3231196Y-645153D01*
X3309347Y-650276D01*
X3374790Y-663293D01*
X3444083Y-672047D01*
X3531033Y-694372D01*
X3613401Y-710756D01*
X3671014Y-730313D01*
X3732348Y-746061D01*
X3822160Y-781620D01*
X3906960Y-810406D01*
X3956221Y-834699D01*
X4009064Y-855621D01*
X4099817Y-905512D01*
X4185000Y-947520D01*
X4225713Y-974723D01*
X4269872Y-999000D01*
X4359471Y-1064098D01*
X4442765Y-1119753D01*
X4475082Y-1148094D01*
X4510654Y-1173939D01*
X4596840Y-1254873D01*
X4675843Y-1324157D01*
X4700220Y-1351953D01*
X4727604Y-1377669D01*
X4808027Y-1474884D01*
X4880247Y-1557235D01*
X4897438Y-1582964D01*
X4917312Y-1606987D01*
X4989588Y-1720876D01*
X5052480Y-1815000D01*
X5063489Y-1837325D01*
X5076786Y-1858277D01*
X5138555Y-1989544D01*
X5189594Y-2093040D01*
X5195644Y-2110865D01*
X5203506Y-2127571D01*
X5252474Y-2278278D01*
X5289244Y-2386599D01*
X5291729Y-2399092D01*
X5295475Y-2410621D01*
X5329470Y-2588831D01*
X5349724Y-2690653D01*
X5350158Y-2697281D01*
X5351243Y-2702967D01*
X5368257Y-2973407D01*
X5370000Y-3000000D01*
X5368256Y-3026594D01*
X5351243Y-3297032D01*
X5350158Y-3302716D01*
X5349724Y-3309347D01*
X5329465Y-3411191D01*
X5295475Y-3589378D01*
X5291729Y-3600905D01*
X5289244Y-3613401D01*
X5252466Y-3721743D01*
X5203506Y-3872428D01*
X5195646Y-3889131D01*
X5189594Y-3906960D01*
X5138545Y-4010476D01*
X5076786Y-4141722D01*
X5063491Y-4162670D01*
X5052480Y-4185000D01*
X4989576Y-4279142D01*
X4917312Y-4393012D01*
X4897442Y-4417030D01*
X4880247Y-4442765D01*
X4808012Y-4525132D01*
X4727604Y-4622330D01*
X4700225Y-4648040D01*
X4675843Y-4675843D01*
X4596823Y-4745140D01*
X4510654Y-4826060D01*
X4475089Y-4851899D01*
X4442765Y-4880247D01*
X4359454Y-4935913D01*
X4269872Y-5000999D01*
X4225722Y-5025270D01*
X4185000Y-5052480D01*
X4099800Y-5094495D01*
X4009064Y-5144378D01*
X3956232Y-5165295D01*
X3906960Y-5189594D01*
X3822142Y-5218385D01*
X3732348Y-5253938D01*
X3671026Y-5269682D01*
X3613401Y-5289244D01*
X3531015Y-5305631D01*
X3444083Y-5327952D01*
X3374800Y-5336704D01*
X3309347Y-5349724D01*
X3231192Y-5354846D01*
X3148810Y-5365254D01*
X3072409Y-5365254D01*
X3000000Y-5370000D01*
X2927591Y-5365254D01*
X2851190Y-5365254D01*
X2768807Y-5354846D01*
X2690653Y-5349724D01*
X2625200Y-5336704D01*
X2555916Y-5327952D01*
X2468979Y-5305630D01*
X2386599Y-5289244D01*
X2328976Y-5269683D01*
X2267651Y-5253938D01*
X2177850Y-5218383D01*
X2093040Y-5189594D01*
X2043771Y-5165297D01*
X1990935Y-5144378D01*
X1900190Y-5094491D01*
X1815000Y-5052480D01*
X1774282Y-5025273D01*
X1730127Y-5000999D01*
X1640533Y-4935905D01*
X1557235Y-4880247D01*
X1524915Y-4851903D01*
X1489345Y-4826060D01*
X1403160Y-4745127D01*
X1324157Y-4675843D01*
X1299779Y-4648045D01*
X1272395Y-4622330D01*
X1191969Y-4525112D01*
X1119753Y-4442765D01*
X1102561Y-4417036D01*
X1082687Y-4393012D01*
X1010404Y-4279112D01*
X947520Y-4185000D01*
X936511Y-4162677D01*
X923213Y-4141722D01*
X861432Y-4010431D01*
X810406Y-3906960D01*
X804356Y-3889138D01*
X796493Y-3872428D01*
X747510Y-3721675D01*
X710756Y-3613401D01*
X708272Y-3600913D01*
X704524Y-3589378D01*
X670509Y-3411068D01*
X650276Y-3309347D01*
X649841Y-3302724D01*
X648756Y-3297032D01*
X631718Y-3026214D01*
X630000Y-3000000D01*
X631718Y-2973787D01*
X648756Y-2702967D01*
X649842Y-2697273D01*
X650276Y-2690653D01*
X670505Y-2588954D01*
X704524Y-2410621D01*
X708272Y-2399084D01*
X710756Y-2386599D01*
X747502Y-2278347D01*
X796493Y-2127571D01*
X804357Y-2110857D01*
X810406Y-2093040D01*
X861422Y-1989588D01*
X923213Y-1858277D01*
X936513Y-1837318D01*
X947520Y-1815000D01*
X1010391Y-1720906D01*
X1082687Y-1606987D01*
X1102565Y-1582958D01*
X1119753Y-1557235D01*
X1191955Y-1474904D01*
X1272395Y-1377669D01*
X1299784Y-1351948D01*
X1324157Y-1324157D01*
X1403144Y-1254886D01*
X1489345Y-1173939D01*
X1524922Y-1148090D01*
X1557235Y-1119753D01*
X1640516Y-1064106D01*
X1730127Y-999000D01*
X1774290Y-974720D01*
X1815000Y-947520D01*
X1900172Y-905517D01*
X1990935Y-855621D01*
X2043782Y-834697D01*
X2093040Y-810406D01*
X2177832Y-781622D01*
X2267651Y-746061D01*
X2328988Y-730312D01*
X2386599Y-710756D01*
X2468962Y-694372D01*
X2555916Y-672047D01*
X2625211Y-663293D01*
X2690653Y-650276D01*
X2768802Y-645153D01*
X2851190Y-634746D01*
X2927591Y-634746D01*
X3000000Y-630000D01*
X3072409Y-634746D01*
G37*
G36*
X57072409Y-634746D02*
G01*
X57148810Y-634746D01*
X57231196Y-645153D01*
X57309347Y-650276D01*
X57374790Y-663293D01*
X57444083Y-672047D01*
X57531033Y-694372D01*
X57613401Y-710756D01*
X57671014Y-730313D01*
X57732348Y-746061D01*
X57822160Y-781620D01*
X57906960Y-810406D01*
X57956221Y-834699D01*
X58009064Y-855621D01*
X58099817Y-905512D01*
X58185000Y-947520D01*
X58225713Y-974723D01*
X58269872Y-999000D01*
X58359471Y-1064098D01*
X58442765Y-1119753D01*
X58475082Y-1148094D01*
X58510654Y-1173939D01*
X58596840Y-1254873D01*
X58675843Y-1324157D01*
X58700220Y-1351953D01*
X58727604Y-1377669D01*
X58808027Y-1474884D01*
X58880247Y-1557235D01*
X58897438Y-1582964D01*
X58917312Y-1606987D01*
X58989588Y-1720876D01*
X59052480Y-1815000D01*
X59063489Y-1837325D01*
X59076786Y-1858277D01*
X59138555Y-1989544D01*
X59189594Y-2093040D01*
X59195644Y-2110865D01*
X59203506Y-2127571D01*
X59252474Y-2278278D01*
X59289244Y-2386599D01*
X59291729Y-2399092D01*
X59295475Y-2410621D01*
X59329470Y-2588831D01*
X59349724Y-2690653D01*
X59350158Y-2697281D01*
X59351243Y-2702967D01*
X59368257Y-2973407D01*
X59370000Y-3000000D01*
X59368256Y-3026594D01*
X59351243Y-3297032D01*
X59350158Y-3302716D01*
X59349724Y-3309347D01*
X59329465Y-3411191D01*
X59295475Y-3589378D01*
X59291729Y-3600905D01*
X59289244Y-3613401D01*
X59252466Y-3721743D01*
X59203506Y-3872428D01*
X59195646Y-3889131D01*
X59189594Y-3906960D01*
X59138545Y-4010476D01*
X59076786Y-4141722D01*
X59063491Y-4162670D01*
X59052480Y-4185000D01*
X58989576Y-4279142D01*
X58917312Y-4393012D01*
X58897442Y-4417030D01*
X58880247Y-4442765D01*
X58808012Y-4525132D01*
X58727604Y-4622330D01*
X58700225Y-4648040D01*
X58675843Y-4675843D01*
X58596823Y-4745140D01*
X58510654Y-4826060D01*
X58475089Y-4851899D01*
X58442765Y-4880247D01*
X58359454Y-4935913D01*
X58269872Y-5000999D01*
X58225722Y-5025270D01*
X58185000Y-5052480D01*
X58099800Y-5094495D01*
X58009064Y-5144378D01*
X57956232Y-5165295D01*
X57906960Y-5189594D01*
X57822142Y-5218385D01*
X57732348Y-5253938D01*
X57671026Y-5269682D01*
X57613401Y-5289244D01*
X57531015Y-5305631D01*
X57444083Y-5327952D01*
X57374800Y-5336704D01*
X57309347Y-5349724D01*
X57231192Y-5354846D01*
X57148810Y-5365254D01*
X57072409Y-5365254D01*
X57000000Y-5370000D01*
X56927591Y-5365254D01*
X56851190Y-5365254D01*
X56768807Y-5354846D01*
X56690653Y-5349724D01*
X56625200Y-5336704D01*
X56555916Y-5327952D01*
X56468979Y-5305630D01*
X56386599Y-5289244D01*
X56328976Y-5269683D01*
X56267651Y-5253938D01*
X56177850Y-5218383D01*
X56093040Y-5189594D01*
X56043771Y-5165297D01*
X55990935Y-5144378D01*
X55900190Y-5094491D01*
X55815000Y-5052480D01*
X55774282Y-5025273D01*
X55730127Y-5000999D01*
X55640533Y-4935905D01*
X55557235Y-4880247D01*
X55524915Y-4851903D01*
X55489345Y-4826060D01*
X55403160Y-4745127D01*
X55324157Y-4675843D01*
X55299779Y-4648045D01*
X55272395Y-4622330D01*
X55191969Y-4525112D01*
X55119753Y-4442765D01*
X55102561Y-4417036D01*
X55082687Y-4393012D01*
X55010404Y-4279112D01*
X54947520Y-4185000D01*
X54936511Y-4162677D01*
X54923213Y-4141722D01*
X54861432Y-4010431D01*
X54810406Y-3906960D01*
X54804356Y-3889138D01*
X54796493Y-3872428D01*
X54747510Y-3721675D01*
X54710756Y-3613401D01*
X54708272Y-3600913D01*
X54704524Y-3589378D01*
X54670509Y-3411068D01*
X54650276Y-3309347D01*
X54649841Y-3302724D01*
X54648756Y-3297032D01*
X54631719Y-3026236D01*
X54630000Y-3000000D01*
X54631716Y-2973809D01*
X54648756Y-2702967D01*
X54649842Y-2697273D01*
X54650276Y-2690653D01*
X54670505Y-2588954D01*
X54704524Y-2410621D01*
X54708272Y-2399084D01*
X54710756Y-2386599D01*
X54747502Y-2278347D01*
X54796493Y-2127571D01*
X54804357Y-2110857D01*
X54810406Y-2093040D01*
X54861422Y-1989588D01*
X54923213Y-1858277D01*
X54936513Y-1837318D01*
X54947520Y-1815000D01*
X55010391Y-1720906D01*
X55082687Y-1606987D01*
X55102565Y-1582958D01*
X55119753Y-1557235D01*
X55191955Y-1474904D01*
X55272395Y-1377669D01*
X55299784Y-1351948D01*
X55324157Y-1324157D01*
X55403144Y-1254886D01*
X55489345Y-1173939D01*
X55524922Y-1148090D01*
X55557235Y-1119753D01*
X55640516Y-1064106D01*
X55730127Y-999000D01*
X55774290Y-974720D01*
X55815000Y-947520D01*
X55900172Y-905517D01*
X55990935Y-855621D01*
X56043782Y-834697D01*
X56093040Y-810406D01*
X56177832Y-781622D01*
X56267651Y-746061D01*
X56328988Y-730312D01*
X56386599Y-710756D01*
X56468962Y-694372D01*
X56555916Y-672047D01*
X56625211Y-663293D01*
X56690653Y-650276D01*
X56768802Y-645153D01*
X56851190Y-634746D01*
X56927591Y-634746D01*
X57000000Y-630000D01*
X57072409Y-634746D01*
G37*
G36*
X31136361Y-3747418D02*
G01*
X31171157Y-3747418D01*
X31199439Y-3755722D01*
X31229333Y-3759658D01*
X31269486Y-3776290D01*
X31307708Y-3787513D01*
X31327883Y-3800479D01*
X31349850Y-3809578D01*
X31390100Y-3840463D01*
X31427430Y-3864454D01*
X31439464Y-3878342D01*
X31453339Y-3888989D01*
X31489311Y-3935868D01*
X31520627Y-3972009D01*
X31525896Y-3983546D01*
X31532750Y-3992479D01*
X31559818Y-4057828D01*
X31579746Y-4101463D01*
X31580731Y-4108314D01*
X31582670Y-4112995D01*
X31596408Y-4217350D01*
X31600000Y-4242329D01*
X31596408Y-4267309D01*
X31582670Y-4371662D01*
X31580731Y-4376342D01*
X31579746Y-4383195D01*
X31559816Y-4426835D01*
X31532750Y-4492179D01*
X31525896Y-4501110D01*
X31520627Y-4512649D01*
X31489307Y-4548793D01*
X31453339Y-4595668D01*
X31439467Y-4606312D01*
X31427430Y-4620204D01*
X31390092Y-4644199D01*
X31349850Y-4675079D01*
X31327888Y-4684175D01*
X31307708Y-4697145D01*
X31269477Y-4708370D01*
X31229333Y-4724999D01*
X31199445Y-4728933D01*
X31171157Y-4737240D01*
X31136353Y-4737240D01*
X31100000Y-4742026D01*
X31063646Y-4737240D01*
X31028843Y-4737240D01*
X31000555Y-4728933D01*
X30970666Y-4724999D01*
X30930518Y-4708369D01*
X30892292Y-4697145D01*
X30872113Y-4684177D01*
X30850149Y-4675079D01*
X30809901Y-4644195D01*
X30772570Y-4620204D01*
X30760534Y-4606314D01*
X30746660Y-4595668D01*
X30710683Y-4548783D01*
X30679373Y-4512649D01*
X30674105Y-4501114D01*
X30667249Y-4492179D01*
X30640172Y-4426811D01*
X30620254Y-4383195D01*
X30619269Y-4376346D01*
X30617329Y-4371662D01*
X30603579Y-4267226D01*
X30600000Y-4242329D01*
X30603579Y-4217433D01*
X30617329Y-4112995D01*
X30619269Y-4108310D01*
X30620254Y-4101463D01*
X30640170Y-4057851D01*
X30667249Y-3992479D01*
X30674105Y-3983543D01*
X30679373Y-3972009D01*
X30710680Y-3935878D01*
X30746660Y-3888989D01*
X30760537Y-3878340D01*
X30772570Y-3864454D01*
X30809897Y-3840465D01*
X30850150Y-3809578D01*
X30872116Y-3800479D01*
X30892292Y-3787513D01*
X30930511Y-3776290D01*
X30970666Y-3759658D01*
X31000561Y-3755722D01*
X31028843Y-3747418D01*
X31063639Y-3747418D01*
X31100000Y-3742631D01*
X31136361Y-3747418D01*
G37*
M02*
